<svg xmlns="http://www.w3.org/2000/svg" width="320" height="230" viewBox="0 0 320 230" role="img" aria-label="B++06 · 多面投影网">
<rect width="320" height="230" fill="#fff"/>
<polygon points="25.5,169.6 226.3,169.6 299.0,209.0 98.2,209.0" fill="#e9f0f4" fill-opacity="0.45" stroke="none"/>
<polygon points="21.0,21.0 221.8,21.0 294.5,60.4 93.7,60.4" fill="#edf4ee" fill-opacity="0.45" stroke="none"/>
<polygon points="25.5,169.6 226.3,169.6 221.8,21.0 21.0,21.0" fill="#f6eee5" fill-opacity="0.45" stroke="none"/>
<polygon points="226.3,169.6 299.0,209.0 294.5,60.4 221.8,21.0" fill="#f0ecf8" fill-opacity="0.45" stroke="none"/>
<polygon points="299.0,209.0 98.2,209.0 93.7,60.4 294.5,60.4" fill="#eef0f3" fill-opacity="0.45" stroke="none"/>
<polygon points="98.2,209.0 25.5,169.6 21.0,21.0 93.7,60.4" fill="#e9f0f4" fill-opacity="0.45" stroke="none"/>
<polygon points="224.1,95.3 23.2,95.3 95.9,134.7 296.8,134.7" fill="#2f9e44" fill-opacity="0.24" stroke="#2f9e44" stroke-width="1.4"/>
<polygon points="226.3,169.6 25.5,169.6 21.0,21.0 221.8,21.0" fill="#d9480f" fill-opacity="0.18" stroke="#d9480f" stroke-width="1.4"/>
<polygon points="226.3,169.6 98.2,209.0 93.7,60.4 221.8,21.0" fill="#c2255c" fill-opacity="0.15" stroke="#c2255c" stroke-width="1.4" stroke-dasharray="5 4"/>
<polygon points="162.2,189.3 125.9,169.6 121.4,21.0 157.8,40.7" fill="#7048e8" fill-opacity="0.18" stroke="#7048e8" stroke-width="1.4" stroke-dasharray="5 4"/>
<line x1="25.5" y1="169.6" x2="226.3" y2="169.6" stroke="#111" stroke-width="1.45" stroke-linecap="round"/>
<line x1="226.3" y1="169.6" x2="299.0" y2="209.0" stroke="#111" stroke-width="1.45" stroke-linecap="round"/>
<line x1="299.0" y1="209.0" x2="98.2" y2="209.0" stroke="#111" stroke-width="1.45" stroke-linecap="round"/>
<line x1="98.2" y1="209.0" x2="25.5" y2="169.6" stroke="#111" stroke-width="1.45" stroke-linecap="round"/>
<line x1="21.0" y1="21.0" x2="221.8" y2="21.0" stroke="#111" stroke-width="1.45" stroke-linecap="round"/>
<line x1="221.8" y1="21.0" x2="294.5" y2="60.4" stroke="#111" stroke-width="1.45" stroke-linecap="round"/>
<line x1="294.5" y1="60.4" x2="93.7" y2="60.4" stroke="#111" stroke-width="1.45" stroke-linecap="round"/>
<line x1="93.7" y1="60.4" x2="21.0" y2="21.0" stroke="#111" stroke-width="1.45" stroke-linecap="round"/>
<line x1="25.5" y1="169.6" x2="21.0" y2="21.0" stroke="#111" stroke-width="1.45" stroke-linecap="round"/>
<line x1="226.3" y1="169.6" x2="221.8" y2="21.0" stroke="#111" stroke-width="1.45" stroke-linecap="round"/>
<line x1="299.0" y1="209.0" x2="294.5" y2="60.4" stroke="#111" stroke-width="1.45" stroke-linecap="round"/>
<line x1="98.2" y1="209.0" x2="93.7" y2="60.4" stroke="#111" stroke-width="1.45" stroke-linecap="round"/>
<line x1="162.2" y1="189.3" x2="157.8" y2="40.7" stroke="#c2255c" stroke-width="2.15" stroke-linecap="round" stroke-opacity="0.88"/>
<line x1="125.9" y1="169.6" x2="121.4" y2="21.0" stroke="#c2255c" stroke-width="2.15" stroke-linecap="round" stroke-opacity="0.88"/>
<line x1="162.2" y1="189.3" x2="125.9" y2="169.6" stroke="#d97400" stroke-width="2.15" stroke-linecap="round" stroke-opacity="0.88"/>
<line x1="157.8" y1="40.7" x2="121.4" y2="21.0" stroke="#d97400" stroke-width="2.15" stroke-linecap="round" stroke-opacity="0.88"/>
<line x1="224.1" y1="95.3" x2="95.9" y2="134.7" stroke="#c2255c" stroke-width="2.15" stroke-linecap="round" stroke-opacity="0.88"/>
<line x1="23.2" y1="95.3" x2="296.8" y2="134.7" stroke="#c2255c" stroke-width="2.15" stroke-linecap="round" stroke-opacity="0.88"/>
<line x1="224.1" y1="95.3" x2="23.2" y2="95.3" stroke="#2f9e44" stroke-width="2.15" stroke-linecap="round" stroke-opacity="0.88"/>
<line x1="23.2" y1="95.3" x2="95.9" y2="134.7" stroke="#2f9e44" stroke-width="2.15" stroke-linecap="round" stroke-opacity="0.88"/>
<line x1="226.3" y1="169.6" x2="221.8" y2="21.0" stroke="#111111" stroke-width="1.45" stroke-linecap="round" stroke-opacity="0.32" stroke-dasharray="6 4"/>
<line x1="25.5" y1="169.6" x2="21.0" y2="21.0" stroke="#111111" stroke-width="1.45" stroke-linecap="round" stroke-opacity="0.32" stroke-dasharray="6 4"/>
<line x1="226.3" y1="169.6" x2="98.2" y2="209.0" stroke="#d97400" stroke-width="2.15" stroke-linecap="round" stroke-opacity="0.72" stroke-dasharray="6 4"/>
<line x1="221.8" y1="21.0" x2="93.7" y2="60.4" stroke="#7048e8" stroke-width="2.15" stroke-linecap="round" stroke-opacity="0.72" stroke-dasharray="6 4"/>
<circle cx="25.5" cy="169.6" r="3.4" fill="#111111"/>
<text x="31.0" y="164.1" font-family="Arial, sans-serif" font-size="10.5" font-weight="700" paint-order="stroke" stroke="#fff" stroke-width="3" fill="#111111">A</text>
<text x="31.0" y="164.1" font-family="Arial, sans-serif" font-size="10.5" font-weight="700" fill="#111111">A</text>
<circle cx="21.0" cy="21.0" r="3.4" fill="#111111"/>
<text x="26.5" y="15.5" font-family="Arial, sans-serif" font-size="10.5" font-weight="700" paint-order="stroke" stroke="#fff" stroke-width="3" fill="#111111">A1</text>
<text x="26.5" y="15.5" font-family="Arial, sans-serif" font-size="10.5" font-weight="700" fill="#111111">A1</text>
<circle cx="226.3" cy="169.6" r="3.4" fill="#111111"/>
<text x="231.8" y="164.1" font-family="Arial, sans-serif" font-size="10.5" font-weight="700" paint-order="stroke" stroke="#fff" stroke-width="3" fill="#111111">B</text>
<text x="231.8" y="164.1" font-family="Arial, sans-serif" font-size="10.5" font-weight="700" fill="#111111">B</text>
<circle cx="221.8" cy="21.0" r="3.4" fill="#111111"/>
<text x="227.3" y="15.5" font-family="Arial, sans-serif" font-size="10.5" font-weight="700" paint-order="stroke" stroke="#fff" stroke-width="3" fill="#111111">B1</text>
<text x="227.3" y="15.5" font-family="Arial, sans-serif" font-size="10.5" font-weight="700" fill="#111111">B1</text>
<circle cx="299.0" cy="209.0" r="3.4" fill="#111111"/>
<text x="304.5" y="203.5" font-family="Arial, sans-serif" font-size="10.5" font-weight="700" paint-order="stroke" stroke="#fff" stroke-width="3" fill="#111111">C</text>
<text x="304.5" y="203.5" font-family="Arial, sans-serif" font-size="10.5" font-weight="700" fill="#111111">C</text>
<circle cx="294.5" cy="60.4" r="3.4" fill="#111111"/>
<text x="300.0" y="54.9" font-family="Arial, sans-serif" font-size="10.5" font-weight="700" paint-order="stroke" stroke="#fff" stroke-width="3" fill="#111111">C1</text>
<text x="300.0" y="54.9" font-family="Arial, sans-serif" font-size="10.5" font-weight="700" fill="#111111">C1</text>
<circle cx="98.2" cy="209.0" r="3.4" fill="#111111"/>
<text x="103.7" y="203.5" font-family="Arial, sans-serif" font-size="10.5" font-weight="700" paint-order="stroke" stroke="#fff" stroke-width="3" fill="#111111">D</text>
<text x="103.7" y="203.5" font-family="Arial, sans-serif" font-size="10.5" font-weight="700" fill="#111111">D</text>
<circle cx="93.7" cy="60.4" r="3.4" fill="#111111"/>
<text x="99.2" y="54.9" font-family="Arial, sans-serif" font-size="10.5" font-weight="700" paint-order="stroke" stroke="#fff" stroke-width="3" fill="#111111">D1</text>
<text x="99.2" y="54.9" font-family="Arial, sans-serif" font-size="10.5" font-weight="700" fill="#111111">D1</text>
<circle cx="125.9" cy="169.6" r="3.4" fill="#d97400"/>
<text x="131.4" y="164.1" font-family="Arial, sans-serif" font-size="10.5" font-weight="700" paint-order="stroke" stroke="#fff" stroke-width="3" fill="#d97400">M</text>
<text x="131.4" y="164.1" font-family="Arial, sans-serif" font-size="10.5" font-weight="700" fill="#d97400">M</text>
<circle cx="121.4" cy="21.0" r="3.4" fill="#d97400"/>
<text x="126.9" y="15.5" font-family="Arial, sans-serif" font-size="10.5" font-weight="700" paint-order="stroke" stroke="#fff" stroke-width="3" fill="#d97400">N</text>
<text x="126.9" y="15.5" font-family="Arial, sans-serif" font-size="10.5" font-weight="700" fill="#d97400">N</text>
<circle cx="162.2" cy="189.3" r="3.4" fill="#d97400"/>
<text x="167.7" y="183.8" font-family="Arial, sans-serif" font-size="10.5" font-weight="700" paint-order="stroke" stroke="#fff" stroke-width="3" fill="#d97400">O</text>
<text x="167.7" y="183.8" font-family="Arial, sans-serif" font-size="10.5" font-weight="700" fill="#d97400">O</text>
<circle cx="157.8" cy="40.7" r="3.4" fill="#d97400"/>
<text x="163.3" y="35.2" font-family="Arial, sans-serif" font-size="10.5" font-weight="700" paint-order="stroke" stroke="#fff" stroke-width="3" fill="#d97400">O1</text>
<text x="163.3" y="35.2" font-family="Arial, sans-serif" font-size="10.5" font-weight="700" fill="#d97400">O1</text>
<circle cx="224.1" cy="95.3" r="3.4" fill="#d97400"/>
<text x="229.6" y="89.8" font-family="Arial, sans-serif" font-size="10.5" font-weight="700" paint-order="stroke" stroke="#fff" stroke-width="3" fill="#d97400">P</text>
<text x="229.6" y="89.8" font-family="Arial, sans-serif" font-size="10.5" font-weight="700" fill="#d97400">P</text>
<circle cx="23.2" cy="95.3" r="3.4" fill="#d97400"/>
<text x="28.7" y="89.8" font-family="Arial, sans-serif" font-size="10.5" font-weight="700" paint-order="stroke" stroke="#fff" stroke-width="3" fill="#d97400">Q</text>
<text x="28.7" y="89.8" font-family="Arial, sans-serif" font-size="10.5" font-weight="700" fill="#d97400">Q</text>
<circle cx="95.9" cy="134.7" r="3.4" fill="#d97400"/>
<text x="101.4" y="129.2" font-family="Arial, sans-serif" font-size="10.5" font-weight="700" paint-order="stroke" stroke="#fff" stroke-width="3" fill="#d97400">R</text>
<text x="101.4" y="129.2" font-family="Arial, sans-serif" font-size="10.5" font-weight="700" fill="#d97400">R</text>
<circle cx="296.8" cy="134.7" r="3.4" fill="#d97400"/>
<text x="302.3" y="129.2" font-family="Arial, sans-serif" font-size="10.5" font-weight="700" paint-order="stroke" stroke="#fff" stroke-width="3" fill="#d97400">T</text>
<text x="302.3" y="129.2" font-family="Arial, sans-serif" font-size="10.5" font-weight="700" fill="#d97400">T</text>
<text x="10" y="20" font-family="Arial, sans-serif" font-size="12" font-weight="700" paint-order="stroke" stroke="#fff" stroke-width="4" fill="#0b7285">B++ · 8P/12L/4F</text>
</svg>
