<svg xmlns="http://www.w3.org/2000/svg" width="320" height="230" viewBox="0 0 320 230" role="img" aria-label="B++01 · 侧面投影网">
<rect width="320" height="230" fill="#fff"/>
<polygon points="25.5,169.6 226.3,169.6 299.0,209.0 98.2,209.0" fill="#e9f0f4" fill-opacity="0.45" stroke="none"/>
<polygon points="21.0,21.0 221.8,21.0 294.5,60.4 93.7,60.4" fill="#edf4ee" fill-opacity="0.45" stroke="none"/>
<polygon points="25.5,169.6 226.3,169.6 221.8,21.0 21.0,21.0" fill="#f6eee5" fill-opacity="0.45" stroke="none"/>
<polygon points="226.3,169.6 299.0,209.0 294.5,60.4 221.8,21.0" fill="#f0ecf8" fill-opacity="0.45" stroke="none"/>
<polygon points="299.0,209.0 98.2,209.0 93.7,60.4 294.5,60.4" fill="#eef0f3" fill-opacity="0.45" stroke="none"/>
<polygon points="98.2,209.0 25.5,169.6 21.0,21.0 93.7,60.4" fill="#e9f0f4" fill-opacity="0.45" stroke="none"/>
<polygon points="98.2,209.0 25.5,169.6 21.0,21.0 93.7,60.4" fill="#d9480f" fill-opacity="0.20" stroke="#d9480f" stroke-width="1.4"/>
<polygon points="299.0,209.0 98.2,209.0 25.5,169.6 226.3,169.6" fill="#1971c2" fill-opacity="0.13" stroke="#1971c2" stroke-width="1.4"/>
<polygon points="61.8,189.3 57.4,40.7 162.2,189.3" fill="#7048e8" fill-opacity="0.18" stroke="#7048e8" stroke-width="1.4" stroke-dasharray="5 4"/>
<line x1="25.5" y1="169.6" x2="226.3" y2="169.6" stroke="#111" stroke-width="1.45" stroke-linecap="round"/>
<line x1="226.3" y1="169.6" x2="299.0" y2="209.0" stroke="#111" stroke-width="1.45" stroke-linecap="round"/>
<line x1="299.0" y1="209.0" x2="98.2" y2="209.0" stroke="#111" stroke-width="1.45" stroke-linecap="round"/>
<line x1="98.2" y1="209.0" x2="25.5" y2="169.6" stroke="#111" stroke-width="1.45" stroke-linecap="round"/>
<line x1="21.0" y1="21.0" x2="221.8" y2="21.0" stroke="#111" stroke-width="1.45" stroke-linecap="round"/>
<line x1="221.8" y1="21.0" x2="294.5" y2="60.4" stroke="#111" stroke-width="1.45" stroke-linecap="round"/>
<line x1="294.5" y1="60.4" x2="93.7" y2="60.4" stroke="#111" stroke-width="1.45" stroke-linecap="round"/>
<line x1="93.7" y1="60.4" x2="21.0" y2="21.0" stroke="#111" stroke-width="1.45" stroke-linecap="round"/>
<line x1="25.5" y1="169.6" x2="21.0" y2="21.0" stroke="#111" stroke-width="1.45" stroke-linecap="round"/>
<line x1="226.3" y1="169.6" x2="221.8" y2="21.0" stroke="#111" stroke-width="1.45" stroke-linecap="round"/>
<line x1="299.0" y1="209.0" x2="294.5" y2="60.4" stroke="#111" stroke-width="1.45" stroke-linecap="round"/>
<line x1="98.2" y1="209.0" x2="93.7" y2="60.4" stroke="#111" stroke-width="1.45" stroke-linecap="round"/>
<line x1="98.2" y1="209.0" x2="25.5" y2="169.6" stroke="#111111" stroke-width="1.45" stroke-linecap="round" stroke-opacity="0.72"/>
<line x1="61.8" y1="189.3" x2="57.4" y2="40.7" stroke="#c2255c" stroke-width="2.15" stroke-linecap="round" stroke-opacity="0.88"/>
<line x1="61.8" y1="189.3" x2="162.2" y2="189.3" stroke="#c2255c" stroke-width="2.15" stroke-linecap="round" stroke-opacity="0.88"/>
<line x1="162.2" y1="189.3" x2="25.5" y2="169.6" stroke="#d97400" stroke-width="2.15" stroke-linecap="round" stroke-opacity="0.88"/>
<line x1="112.1" y1="189.3" x2="57.4" y2="40.7" stroke="#7048e8" stroke-width="2.15" stroke-linecap="round" stroke-opacity="0.82" stroke-dasharray="6 4"/>
<line x1="112.1" y1="189.3" x2="25.5" y2="169.6" stroke="#7048e8" stroke-width="2.15" stroke-linecap="round" stroke-opacity="0.74" stroke-dasharray="6 4"/>
<line x1="25.5" y1="169.6" x2="21.0" y2="21.0" stroke="#111111" stroke-width="1.45" stroke-linecap="round" stroke-opacity="0.35" stroke-dasharray="6 4"/>
<circle cx="25.5" cy="169.6" r="3.4" fill="#111111"/>
<text x="31.0" y="164.1" font-family="Arial, sans-serif" font-size="10.5" font-weight="700" paint-order="stroke" stroke="#fff" stroke-width="3" fill="#111111">A</text>
<text x="31.0" y="164.1" font-family="Arial, sans-serif" font-size="10.5" font-weight="700" fill="#111111">A</text>
<circle cx="21.0" cy="21.0" r="3.4" fill="#111111"/>
<text x="26.5" y="15.5" font-family="Arial, sans-serif" font-size="10.5" font-weight="700" paint-order="stroke" stroke="#fff" stroke-width="3" fill="#111111">A1</text>
<text x="26.5" y="15.5" font-family="Arial, sans-serif" font-size="10.5" font-weight="700" fill="#111111">A1</text>
<circle cx="226.3" cy="169.6" r="3.4" fill="#111111"/>
<text x="231.8" y="164.1" font-family="Arial, sans-serif" font-size="10.5" font-weight="700" paint-order="stroke" stroke="#fff" stroke-width="3" fill="#111111">B</text>
<text x="231.8" y="164.1" font-family="Arial, sans-serif" font-size="10.5" font-weight="700" fill="#111111">B</text>
<circle cx="221.8" cy="21.0" r="3.4" fill="#111111"/>
<text x="227.3" y="15.5" font-family="Arial, sans-serif" font-size="10.5" font-weight="700" paint-order="stroke" stroke="#fff" stroke-width="3" fill="#111111">B1</text>
<text x="227.3" y="15.5" font-family="Arial, sans-serif" font-size="10.5" font-weight="700" fill="#111111">B1</text>
<circle cx="299.0" cy="209.0" r="3.4" fill="#111111"/>
<text x="304.5" y="203.5" font-family="Arial, sans-serif" font-size="10.5" font-weight="700" paint-order="stroke" stroke="#fff" stroke-width="3" fill="#111111">C</text>
<text x="304.5" y="203.5" font-family="Arial, sans-serif" font-size="10.5" font-weight="700" fill="#111111">C</text>
<circle cx="294.5" cy="60.4" r="3.4" fill="#111111"/>
<text x="300.0" y="54.9" font-family="Arial, sans-serif" font-size="10.5" font-weight="700" paint-order="stroke" stroke="#fff" stroke-width="3" fill="#111111">C1</text>
<text x="300.0" y="54.9" font-family="Arial, sans-serif" font-size="10.5" font-weight="700" fill="#111111">C1</text>
<circle cx="98.2" cy="209.0" r="3.4" fill="#111111"/>
<text x="103.7" y="203.5" font-family="Arial, sans-serif" font-size="10.5" font-weight="700" paint-order="stroke" stroke="#fff" stroke-width="3" fill="#111111">D</text>
<text x="103.7" y="203.5" font-family="Arial, sans-serif" font-size="10.5" font-weight="700" fill="#111111">D</text>
<circle cx="93.7" cy="60.4" r="3.4" fill="#111111"/>
<text x="99.2" y="54.9" font-family="Arial, sans-serif" font-size="10.5" font-weight="700" paint-order="stroke" stroke="#fff" stroke-width="3" fill="#111111">D1</text>
<text x="99.2" y="54.9" font-family="Arial, sans-serif" font-size="10.5" font-weight="700" fill="#111111">D1</text>
<circle cx="112.1" cy="189.3" r="3.4" fill="#d97400"/>
<text x="117.6" y="183.8" font-family="Arial, sans-serif" font-size="10.5" font-weight="700" paint-order="stroke" stroke="#fff" stroke-width="3" fill="#d97400">H</text>
<text x="117.6" y="183.8" font-family="Arial, sans-serif" font-size="10.5" font-weight="700" fill="#d97400">H</text>
<circle cx="61.8" cy="189.3" r="3.4" fill="#d97400"/>
<text x="67.3" y="183.8" font-family="Arial, sans-serif" font-size="10.5" font-weight="700" paint-order="stroke" stroke="#fff" stroke-width="3" fill="#d97400">M</text>
<text x="67.3" y="183.8" font-family="Arial, sans-serif" font-size="10.5" font-weight="700" fill="#d97400">M</text>
<circle cx="57.4" cy="40.7" r="3.4" fill="#d97400"/>
<text x="62.9" y="35.2" font-family="Arial, sans-serif" font-size="10.5" font-weight="700" paint-order="stroke" stroke="#fff" stroke-width="3" fill="#d97400">N</text>
<text x="62.9" y="35.2" font-family="Arial, sans-serif" font-size="10.5" font-weight="700" fill="#d97400">N</text>
<circle cx="162.2" cy="189.3" r="3.4" fill="#d97400"/>
<text x="167.7" y="183.8" font-family="Arial, sans-serif" font-size="10.5" font-weight="700" paint-order="stroke" stroke="#fff" stroke-width="3" fill="#d97400">O</text>
<text x="167.7" y="183.8" font-family="Arial, sans-serif" font-size="10.5" font-weight="700" fill="#d97400">O</text>
<text x="10" y="20" font-family="Arial, sans-serif" font-size="12" font-weight="700" paint-order="stroke" stroke="#fff" stroke-width="4" fill="#0b7285">B++ · 4P/7L/3F</text>
</svg>
