<svg xmlns="http://www.w3.org/2000/svg" width="320" height="230" viewBox="0 0 320 230" role="img" aria-label="B+++05 · 双截面格">
<rect width="320" height="230" fill="#fff"/>
<polygon points="25.5,169.6 226.3,169.6 299.0,209.0 98.2,209.0" fill="#e9f0f4" fill-opacity="0.45" stroke="none"/>
<polygon points="21.0,21.0 221.8,21.0 294.5,60.4 93.7,60.4" fill="#edf4ee" fill-opacity="0.45" stroke="none"/>
<polygon points="25.5,169.6 226.3,169.6 221.8,21.0 21.0,21.0" fill="#f6eee5" fill-opacity="0.45" stroke="none"/>
<polygon points="226.3,169.6 299.0,209.0 294.5,60.4 221.8,21.0" fill="#f0ecf8" fill-opacity="0.45" stroke="none"/>
<polygon points="299.0,209.0 98.2,209.0 93.7,60.4 294.5,60.4" fill="#eef0f3" fill-opacity="0.45" stroke="none"/>
<polygon points="98.2,209.0 25.5,169.6 21.0,21.0 93.7,60.4" fill="#e9f0f4" fill-opacity="0.45" stroke="none"/>
<polygon points="96.6,158.5 297.4,158.5 224.7,119.1 23.9,119.1" fill="#2f9e44" fill-opacity="0.26" stroke="#2f9e44" stroke-width="1.4"/>
<polygon points="95.2,108.0 296.0,108.0 223.3,68.6 22.4,68.6" fill="#7048e8" fill-opacity="0.24" stroke="#7048e8" stroke-width="1.4"/>
<polygon points="96.6,158.5 224.7,119.1 223.3,68.6 95.2,108.0" fill="#c2255c" fill-opacity="0.15" stroke="#c2255c" stroke-width="1.4" stroke-dasharray="5 4"/>
<polygon points="297.4,158.5 23.9,119.1 22.4,68.6 296.0,108.0" fill="#d9480f" fill-opacity="0.15" stroke="#d9480f" stroke-width="1.4" stroke-dasharray="5 4"/>
<polygon points="98.2,209.0 299.0,209.0 226.3,169.6 25.5,169.6" fill="#1971c2" fill-opacity="0.09" stroke="#1971c2" stroke-width="1.4"/>
<line x1="25.5" y1="169.6" x2="226.3" y2="169.6" stroke="#111" stroke-width="1.45" stroke-linecap="round"/>
<line x1="226.3" y1="169.6" x2="299.0" y2="209.0" stroke="#111" stroke-width="1.45" stroke-linecap="round"/>
<line x1="299.0" y1="209.0" x2="98.2" y2="209.0" stroke="#111" stroke-width="1.45" stroke-linecap="round"/>
<line x1="98.2" y1="209.0" x2="25.5" y2="169.6" stroke="#111" stroke-width="1.45" stroke-linecap="round"/>
<line x1="21.0" y1="21.0" x2="221.8" y2="21.0" stroke="#111" stroke-width="1.45" stroke-linecap="round"/>
<line x1="221.8" y1="21.0" x2="294.5" y2="60.4" stroke="#111" stroke-width="1.45" stroke-linecap="round"/>
<line x1="294.5" y1="60.4" x2="93.7" y2="60.4" stroke="#111" stroke-width="1.45" stroke-linecap="round"/>
<line x1="93.7" y1="60.4" x2="21.0" y2="21.0" stroke="#111" stroke-width="1.45" stroke-linecap="round"/>
<line x1="25.5" y1="169.6" x2="21.0" y2="21.0" stroke="#111" stroke-width="1.45" stroke-linecap="round"/>
<line x1="226.3" y1="169.6" x2="221.8" y2="21.0" stroke="#111" stroke-width="1.45" stroke-linecap="round"/>
<line x1="299.0" y1="209.0" x2="294.5" y2="60.4" stroke="#111" stroke-width="1.45" stroke-linecap="round"/>
<line x1="98.2" y1="209.0" x2="93.7" y2="60.4" stroke="#111" stroke-width="1.45" stroke-linecap="round"/>
<line x1="96.6" y1="158.5" x2="224.7" y2="119.1" stroke="#c2255c" stroke-width="2.15" stroke-linecap="round" stroke-opacity="0.88"/>
<line x1="297.4" y1="158.5" x2="23.9" y2="119.1" stroke="#c2255c" stroke-width="2.15" stroke-linecap="round" stroke-opacity="0.88"/>
<line x1="95.2" y1="108.0" x2="223.3" y2="68.6" stroke="#7048e8" stroke-width="2.15" stroke-linecap="round" stroke-opacity="0.88"/>
<line x1="296.0" y1="108.0" x2="22.4" y2="68.6" stroke="#7048e8" stroke-width="2.15" stroke-linecap="round" stroke-opacity="0.88"/>
<line x1="160.7" y1="138.8" x2="159.2" y2="88.3" stroke="#d9480f" stroke-width="2.15" stroke-linecap="round" stroke-opacity="0.88"/>
<line x1="96.6" y1="158.5" x2="95.2" y2="108.0" stroke="#d97400" stroke-width="2.15" stroke-linecap="round" stroke-opacity="0.88" stroke-dasharray="6 4"/>
<line x1="297.4" y1="158.5" x2="296.0" y2="108.0" stroke="#d97400" stroke-width="2.15" stroke-linecap="round" stroke-opacity="0.88" stroke-dasharray="6 4"/>
<line x1="224.7" y1="119.1" x2="223.3" y2="68.6" stroke="#d97400" stroke-width="2.15" stroke-linecap="round" stroke-opacity="0.88" stroke-dasharray="6 4"/>
<line x1="23.9" y1="119.1" x2="22.4" y2="68.6" stroke="#d97400" stroke-width="2.15" stroke-linecap="round" stroke-opacity="0.88" stroke-dasharray="6 4"/>
<line x1="160.7" y1="138.8" x2="96.6" y2="158.5" stroke="#2f9e44" stroke-width="2.15" stroke-linecap="round" stroke-opacity="0.78" stroke-dasharray="6 4"/>
<line x1="159.2" y1="88.3" x2="95.2" y2="108.0" stroke="#2f9e44" stroke-width="2.15" stroke-linecap="round" stroke-opacity="0.78" stroke-dasharray="6 4"/>
<circle cx="25.5" cy="169.6" r="3.4" fill="#111111"/>
<text x="31.0" y="164.1" font-family="Arial, sans-serif" font-size="10.5" font-weight="700" paint-order="stroke" stroke="#fff" stroke-width="3" fill="#111111">A</text>
<text x="31.0" y="164.1" font-family="Arial, sans-serif" font-size="10.5" font-weight="700" fill="#111111">A</text>
<circle cx="21.0" cy="21.0" r="3.4" fill="#111111"/>
<text x="26.5" y="15.5" font-family="Arial, sans-serif" font-size="10.5" font-weight="700" paint-order="stroke" stroke="#fff" stroke-width="3" fill="#111111">A1</text>
<text x="26.5" y="15.5" font-family="Arial, sans-serif" font-size="10.5" font-weight="700" fill="#111111">A1</text>
<circle cx="226.3" cy="169.6" r="3.4" fill="#111111"/>
<text x="231.8" y="164.1" font-family="Arial, sans-serif" font-size="10.5" font-weight="700" paint-order="stroke" stroke="#fff" stroke-width="3" fill="#111111">B</text>
<text x="231.8" y="164.1" font-family="Arial, sans-serif" font-size="10.5" font-weight="700" fill="#111111">B</text>
<circle cx="221.8" cy="21.0" r="3.4" fill="#111111"/>
<text x="227.3" y="15.5" font-family="Arial, sans-serif" font-size="10.5" font-weight="700" paint-order="stroke" stroke="#fff" stroke-width="3" fill="#111111">B1</text>
<text x="227.3" y="15.5" font-family="Arial, sans-serif" font-size="10.5" font-weight="700" fill="#111111">B1</text>
<circle cx="299.0" cy="209.0" r="3.4" fill="#111111"/>
<text x="304.5" y="203.5" font-family="Arial, sans-serif" font-size="10.5" font-weight="700" paint-order="stroke" stroke="#fff" stroke-width="3" fill="#111111">C</text>
<text x="304.5" y="203.5" font-family="Arial, sans-serif" font-size="10.5" font-weight="700" fill="#111111">C</text>
<circle cx="294.5" cy="60.4" r="3.4" fill="#111111"/>
<text x="300.0" y="54.9" font-family="Arial, sans-serif" font-size="10.5" font-weight="700" paint-order="stroke" stroke="#fff" stroke-width="3" fill="#111111">C1</text>
<text x="300.0" y="54.9" font-family="Arial, sans-serif" font-size="10.5" font-weight="700" fill="#111111">C1</text>
<circle cx="98.2" cy="209.0" r="3.4" fill="#111111"/>
<text x="103.7" y="203.5" font-family="Arial, sans-serif" font-size="10.5" font-weight="700" paint-order="stroke" stroke="#fff" stroke-width="3" fill="#111111">D</text>
<text x="103.7" y="203.5" font-family="Arial, sans-serif" font-size="10.5" font-weight="700" fill="#111111">D</text>
<circle cx="93.7" cy="60.4" r="3.4" fill="#111111"/>
<text x="99.2" y="54.9" font-family="Arial, sans-serif" font-size="10.5" font-weight="700" paint-order="stroke" stroke="#fff" stroke-width="3" fill="#111111">D1</text>
<text x="99.2" y="54.9" font-family="Arial, sans-serif" font-size="10.5" font-weight="700" fill="#111111">D1</text>
<circle cx="96.6" cy="158.5" r="3.4" fill="#d97400"/>
<text x="102.1" y="153.0" font-family="Arial, sans-serif" font-size="10.5" font-weight="700" paint-order="stroke" stroke="#fff" stroke-width="3" fill="#d97400">P</text>
<text x="102.1" y="153.0" font-family="Arial, sans-serif" font-size="10.5" font-weight="700" fill="#d97400">P</text>
<circle cx="297.4" cy="158.5" r="3.4" fill="#d97400"/>
<text x="302.9" y="153.0" font-family="Arial, sans-serif" font-size="10.5" font-weight="700" paint-order="stroke" stroke="#fff" stroke-width="3" fill="#d97400">Q</text>
<text x="302.9" y="153.0" font-family="Arial, sans-serif" font-size="10.5" font-weight="700" fill="#d97400">Q</text>
<circle cx="224.7" cy="119.1" r="3.4" fill="#d97400"/>
<text x="230.2" y="113.6" font-family="Arial, sans-serif" font-size="10.5" font-weight="700" paint-order="stroke" stroke="#fff" stroke-width="3" fill="#d97400">R</text>
<text x="230.2" y="113.6" font-family="Arial, sans-serif" font-size="10.5" font-weight="700" fill="#d97400">R</text>
<circle cx="23.9" cy="119.1" r="3.4" fill="#d97400"/>
<text x="29.4" y="113.6" font-family="Arial, sans-serif" font-size="10.5" font-weight="700" paint-order="stroke" stroke="#fff" stroke-width="3" fill="#d97400">T</text>
<text x="29.4" y="113.6" font-family="Arial, sans-serif" font-size="10.5" font-weight="700" fill="#d97400">T</text>
<circle cx="95.2" cy="108.0" r="3.4" fill="#d97400"/>
<text x="100.7" y="102.5" font-family="Arial, sans-serif" font-size="10.5" font-weight="700" paint-order="stroke" stroke="#fff" stroke-width="3" fill="#d97400">U</text>
<text x="100.7" y="102.5" font-family="Arial, sans-serif" font-size="10.5" font-weight="700" fill="#d97400">U</text>
<circle cx="296.0" cy="108.0" r="3.4" fill="#d97400"/>
<text x="301.5" y="102.5" font-family="Arial, sans-serif" font-size="10.5" font-weight="700" paint-order="stroke" stroke="#fff" stroke-width="3" fill="#d97400">V</text>
<text x="301.5" y="102.5" font-family="Arial, sans-serif" font-size="10.5" font-weight="700" fill="#d97400">V</text>
<circle cx="223.3" cy="68.6" r="3.4" fill="#d97400"/>
<text x="228.8" y="63.1" font-family="Arial, sans-serif" font-size="10.5" font-weight="700" paint-order="stroke" stroke="#fff" stroke-width="3" fill="#d97400">W</text>
<text x="228.8" y="63.1" font-family="Arial, sans-serif" font-size="10.5" font-weight="700" fill="#d97400">W</text>
<circle cx="160.7" cy="138.8" r="3.4" fill="#d97400"/>
<text x="166.2" y="133.3" font-family="Arial, sans-serif" font-size="10.5" font-weight="700" paint-order="stroke" stroke="#fff" stroke-width="3" fill="#d97400">X</text>
<text x="166.2" y="133.3" font-family="Arial, sans-serif" font-size="10.5" font-weight="700" fill="#d97400">X</text>
<circle cx="159.2" cy="88.3" r="3.4" fill="#d97400"/>
<text x="164.7" y="82.8" font-family="Arial, sans-serif" font-size="10.5" font-weight="700" paint-order="stroke" stroke="#fff" stroke-width="3" fill="#d97400">Y</text>
<text x="164.7" y="82.8" font-family="Arial, sans-serif" font-size="10.5" font-weight="700" fill="#d97400">Y</text>
<circle cx="22.4" cy="68.6" r="3.4" fill="#d97400"/>
<text x="27.9" y="63.1" font-family="Arial, sans-serif" font-size="10.5" font-weight="700" paint-order="stroke" stroke="#fff" stroke-width="3" fill="#d97400">Z</text>
<text x="27.9" y="63.1" font-family="Arial, sans-serif" font-size="10.5" font-weight="700" fill="#d97400">Z</text>
<text x="10" y="20" font-family="Arial, sans-serif" font-size="12" font-weight="700" paint-order="stroke" stroke="#fff" stroke-width="4" fill="#0b7285">B+++ · 10P/11L/5F</text>
</svg>
