<svg xmlns="http://www.w3.org/2000/svg" width="320" height="230" viewBox="0 0 320 230" role="img" aria-label="B+03 · 三角中截面">
<rect width="320" height="230" fill="#fff"/>
<polygon points="21.0,149.9 225.5,149.9 299.0,189.8 94.5,189.8" fill="#e9f0f4" fill-opacity="0.45" stroke="none"/>
<polygon points="21.0,149.9 225.5,149.9 252.7,40.2 48.3,40.2" fill="#edf4ee" fill-opacity="0.45" stroke="none"/>
<polygon points="94.5,189.8 299.0,189.8 252.7,40.2 48.3,40.2" fill="#f6eee5" fill-opacity="0.45" stroke="none"/>
<polygon points="21.0,149.9 94.5,189.8 48.3,40.2" fill="#f0ecf8" fill-opacity="0.45" stroke="none"/>
<polygon points="225.5,149.9 299.0,189.8 252.7,40.2" fill="#eef0f3" fill-opacity="0.45" stroke="none"/>
<polygon points="123.2,149.9 150.5,40.2 196.8,189.8" fill="#2f9e44" fill-opacity="0.29" stroke="#2f9e44" stroke-width="1.4"/>
<polygon points="21.0,149.9 48.3,40.2 94.5,189.8" fill="#1971c2" fill-opacity="0.11" stroke="#1971c2" stroke-width="1.4"/>
<line x1="21.0" y1="149.9" x2="225.5" y2="149.9" stroke="#111" stroke-width="1.45" stroke-linecap="round"/>
<line x1="225.5" y1="149.9" x2="299.0" y2="189.8" stroke="#111" stroke-width="1.45" stroke-linecap="round"/>
<line x1="299.0" y1="189.8" x2="94.5" y2="189.8" stroke="#111" stroke-width="1.45" stroke-linecap="round"/>
<line x1="94.5" y1="189.8" x2="21.0" y2="149.9" stroke="#111" stroke-width="1.45" stroke-linecap="round"/>
<line x1="21.0" y1="149.9" x2="48.3" y2="40.2" stroke="#111" stroke-width="1.45" stroke-linecap="round"/>
<line x1="225.5" y1="149.9" x2="252.7" y2="40.2" stroke="#111" stroke-width="1.45" stroke-linecap="round"/>
<line x1="48.3" y1="40.2" x2="252.7" y2="40.2" stroke="#111" stroke-width="1.45" stroke-linecap="round"/>
<line x1="94.5" y1="189.8" x2="48.3" y2="40.2" stroke="#111" stroke-width="1.45" stroke-linecap="round"/>
<line x1="299.0" y1="189.8" x2="252.7" y2="40.2" stroke="#111" stroke-width="1.45" stroke-linecap="round"/>
<line x1="123.2" y1="149.9" x2="150.5" y2="40.2" stroke="#c2255c" stroke-width="2.15" stroke-linecap="round" stroke-opacity="0.88"/>
<line x1="150.5" y1="40.2" x2="196.8" y2="189.8" stroke="#c2255c" stroke-width="2.15" stroke-linecap="round" stroke-opacity="0.88"/>
<line x1="196.8" y1="189.8" x2="123.2" y2="149.9" stroke="#c2255c" stroke-width="2.15" stroke-linecap="round" stroke-opacity="0.88"/>
<line x1="21.0" y1="149.9" x2="225.5" y2="149.9" stroke="#111111" stroke-width="1.45" stroke-linecap="round" stroke-opacity="0.32" stroke-dasharray="6 4"/>
<line x1="48.3" y1="40.2" x2="252.7" y2="40.2" stroke="#111111" stroke-width="1.45" stroke-linecap="round" stroke-opacity="0.32" stroke-dasharray="6 4"/>
<line x1="94.5" y1="189.8" x2="299.0" y2="189.8" stroke="#111111" stroke-width="1.45" stroke-linecap="round" stroke-opacity="0.32" stroke-dasharray="6 4"/>
<circle cx="21.0" cy="149.9" r="3.4" fill="#111111"/>
<text x="26.5" y="144.4" font-family="Arial, sans-serif" font-size="10.5" font-weight="700" paint-order="stroke" stroke="#fff" stroke-width="3" fill="#111111">A</text>
<text x="26.5" y="144.4" font-family="Arial, sans-serif" font-size="10.5" font-weight="700" fill="#111111">A</text>
<circle cx="48.3" cy="40.2" r="3.4" fill="#111111"/>
<text x="53.8" y="34.7" font-family="Arial, sans-serif" font-size="10.5" font-weight="700" paint-order="stroke" stroke="#fff" stroke-width="3" fill="#111111">A1</text>
<text x="53.8" y="34.7" font-family="Arial, sans-serif" font-size="10.5" font-weight="700" fill="#111111">A1</text>
<circle cx="225.5" cy="149.9" r="3.4" fill="#111111"/>
<text x="231.0" y="144.4" font-family="Arial, sans-serif" font-size="10.5" font-weight="700" paint-order="stroke" stroke="#fff" stroke-width="3" fill="#111111">B</text>
<text x="231.0" y="144.4" font-family="Arial, sans-serif" font-size="10.5" font-weight="700" fill="#111111">B</text>
<circle cx="252.7" cy="40.2" r="3.4" fill="#111111"/>
<text x="258.2" y="34.7" font-family="Arial, sans-serif" font-size="10.5" font-weight="700" paint-order="stroke" stroke="#fff" stroke-width="3" fill="#111111">B1</text>
<text x="258.2" y="34.7" font-family="Arial, sans-serif" font-size="10.5" font-weight="700" fill="#111111">B1</text>
<circle cx="299.0" cy="189.8" r="3.4" fill="#111111"/>
<text x="304.5" y="184.3" font-family="Arial, sans-serif" font-size="10.5" font-weight="700" paint-order="stroke" stroke="#fff" stroke-width="3" fill="#111111">C</text>
<text x="304.5" y="184.3" font-family="Arial, sans-serif" font-size="10.5" font-weight="700" fill="#111111">C</text>
<circle cx="94.5" cy="189.8" r="3.4" fill="#111111"/>
<text x="100.0" y="184.3" font-family="Arial, sans-serif" font-size="10.5" font-weight="700" paint-order="stroke" stroke="#fff" stroke-width="3" fill="#111111">D</text>
<text x="100.0" y="184.3" font-family="Arial, sans-serif" font-size="10.5" font-weight="700" fill="#111111">D</text>
<circle cx="123.2" cy="149.9" r="3.4" fill="#d97400"/>
<text x="128.7" y="144.4" font-family="Arial, sans-serif" font-size="10.5" font-weight="700" paint-order="stroke" stroke="#fff" stroke-width="3" fill="#d97400">P</text>
<text x="128.7" y="144.4" font-family="Arial, sans-serif" font-size="10.5" font-weight="700" fill="#d97400">P</text>
<circle cx="150.5" cy="40.2" r="3.4" fill="#d97400"/>
<text x="156.0" y="34.7" font-family="Arial, sans-serif" font-size="10.5" font-weight="700" paint-order="stroke" stroke="#fff" stroke-width="3" fill="#d97400">Q</text>
<text x="156.0" y="34.7" font-family="Arial, sans-serif" font-size="10.5" font-weight="700" fill="#d97400">Q</text>
<circle cx="196.8" cy="189.8" r="3.4" fill="#d97400"/>
<text x="202.3" y="184.3" font-family="Arial, sans-serif" font-size="10.5" font-weight="700" paint-order="stroke" stroke="#fff" stroke-width="3" fill="#d97400">R</text>
<text x="202.3" y="184.3" font-family="Arial, sans-serif" font-size="10.5" font-weight="700" fill="#d97400">R</text>
<text x="10" y="20" font-family="Arial, sans-serif" font-size="12" font-weight="700" paint-order="stroke" stroke="#fff" stroke-width="4" fill="#0b7285">B+ · 3P/6L/2F</text>
</svg>
