<svg xmlns="http://www.w3.org/2000/svg" width="320" height="230" viewBox="0 0 320 230" role="img" aria-label="B+++01 · 双三角截面格">
<rect width="320" height="230" fill="#fff"/>
<polygon points="21.0,149.9 225.5,149.9 299.0,189.8 94.5,189.8" fill="#e9f0f4" fill-opacity="0.45" stroke="none"/>
<polygon points="21.0,149.9 225.5,149.9 252.7,40.2 48.3,40.2" fill="#edf4ee" fill-opacity="0.45" stroke="none"/>
<polygon points="94.5,189.8 299.0,189.8 252.7,40.2 48.3,40.2" fill="#f6eee5" fill-opacity="0.45" stroke="none"/>
<polygon points="21.0,149.9 94.5,189.8 48.3,40.2" fill="#f0ecf8" fill-opacity="0.45" stroke="none"/>
<polygon points="225.5,149.9 299.0,189.8 252.7,40.2" fill="#eef0f3" fill-opacity="0.45" stroke="none"/>
<polygon points="90.5,149.9 117.8,40.2 164.1,189.8" fill="#2f9e44" fill-opacity="0.26" stroke="#2f9e44" stroke-width="1.4"/>
<polygon points="160.0,149.9 187.3,40.2 233.6,189.8" fill="#7048e8" fill-opacity="0.24" stroke="#7048e8" stroke-width="1.4"/>
<polygon points="90.5,149.9 117.8,40.2 187.3,40.2 160.0,149.9" fill="#c2255c" fill-opacity="0.15" stroke="#c2255c" stroke-width="1.4" stroke-dasharray="5 4"/>
<polygon points="117.8,40.2 164.1,189.8 233.6,189.8 187.3,40.2" fill="#d9480f" fill-opacity="0.15" stroke="#d9480f" stroke-width="1.4" stroke-dasharray="5 4"/>
<polygon points="164.1,189.8 90.5,149.9 160.0,149.9 233.6,189.8" fill="#1971c2" fill-opacity="0.13" stroke="#1971c2" stroke-width="1.4" stroke-dasharray="5 4"/>
<line x1="21.0" y1="149.9" x2="225.5" y2="149.9" stroke="#111" stroke-width="1.45" stroke-linecap="round"/>
<line x1="225.5" y1="149.9" x2="299.0" y2="189.8" stroke="#111" stroke-width="1.45" stroke-linecap="round"/>
<line x1="299.0" y1="189.8" x2="94.5" y2="189.8" stroke="#111" stroke-width="1.45" stroke-linecap="round"/>
<line x1="94.5" y1="189.8" x2="21.0" y2="149.9" stroke="#111" stroke-width="1.45" stroke-linecap="round"/>
<line x1="21.0" y1="149.9" x2="48.3" y2="40.2" stroke="#111" stroke-width="1.45" stroke-linecap="round"/>
<line x1="225.5" y1="149.9" x2="252.7" y2="40.2" stroke="#111" stroke-width="1.45" stroke-linecap="round"/>
<line x1="48.3" y1="40.2" x2="252.7" y2="40.2" stroke="#111" stroke-width="1.45" stroke-linecap="round"/>
<line x1="94.5" y1="189.8" x2="48.3" y2="40.2" stroke="#111" stroke-width="1.45" stroke-linecap="round"/>
<line x1="299.0" y1="189.8" x2="252.7" y2="40.2" stroke="#111" stroke-width="1.45" stroke-linecap="round"/>
<line x1="90.5" y1="149.9" x2="117.8" y2="40.2" stroke="#c2255c" stroke-width="2.15" stroke-linecap="round" stroke-opacity="0.88"/>
<line x1="117.8" y1="40.2" x2="164.1" y2="189.8" stroke="#c2255c" stroke-width="2.15" stroke-linecap="round" stroke-opacity="0.88"/>
<line x1="164.1" y1="189.8" x2="90.5" y2="149.9" stroke="#c2255c" stroke-width="2.15" stroke-linecap="round" stroke-opacity="0.88"/>
<line x1="160.0" y1="149.9" x2="187.3" y2="40.2" stroke="#7048e8" stroke-width="2.15" stroke-linecap="round" stroke-opacity="0.88"/>
<line x1="187.3" y1="40.2" x2="233.6" y2="189.8" stroke="#7048e8" stroke-width="2.15" stroke-linecap="round" stroke-opacity="0.88"/>
<line x1="233.6" y1="189.8" x2="160.0" y2="149.9" stroke="#7048e8" stroke-width="2.15" stroke-linecap="round" stroke-opacity="0.88"/>
<line x1="90.5" y1="149.9" x2="160.0" y2="149.9" stroke="#d97400" stroke-width="2.15" stroke-linecap="round" stroke-opacity="0.88" stroke-dasharray="6 4"/>
<line x1="117.8" y1="40.2" x2="187.3" y2="40.2" stroke="#d97400" stroke-width="2.15" stroke-linecap="round" stroke-opacity="0.88" stroke-dasharray="6 4"/>
<line x1="164.1" y1="189.8" x2="233.6" y2="189.8" stroke="#d97400" stroke-width="2.15" stroke-linecap="round" stroke-opacity="0.88" stroke-dasharray="6 4"/>
<line x1="124.1" y1="126.6" x2="193.6" y2="126.6" stroke="#d9480f" stroke-width="2.15" stroke-linecap="round" stroke-opacity="0.88"/>
<line x1="124.1" y1="126.6" x2="90.5" y2="149.9" stroke="#2f9e44" stroke-width="2.15" stroke-linecap="round" stroke-opacity="0.78" stroke-dasharray="6 4"/>
<line x1="193.6" y1="126.6" x2="160.0" y2="149.9" stroke="#2f9e44" stroke-width="2.15" stroke-linecap="round" stroke-opacity="0.78" stroke-dasharray="6 4"/>
<circle cx="21.0" cy="149.9" r="3.4" fill="#111111"/>
<text x="26.5" y="144.4" font-family="Arial, sans-serif" font-size="10.5" font-weight="700" paint-order="stroke" stroke="#fff" stroke-width="3" fill="#111111">A</text>
<text x="26.5" y="144.4" font-family="Arial, sans-serif" font-size="10.5" font-weight="700" fill="#111111">A</text>
<circle cx="48.3" cy="40.2" r="3.4" fill="#111111"/>
<text x="53.8" y="34.7" font-family="Arial, sans-serif" font-size="10.5" font-weight="700" paint-order="stroke" stroke="#fff" stroke-width="3" fill="#111111">A1</text>
<text x="53.8" y="34.7" font-family="Arial, sans-serif" font-size="10.5" font-weight="700" fill="#111111">A1</text>
<circle cx="225.5" cy="149.9" r="3.4" fill="#111111"/>
<text x="231.0" y="144.4" font-family="Arial, sans-serif" font-size="10.5" font-weight="700" paint-order="stroke" stroke="#fff" stroke-width="3" fill="#111111">B</text>
<text x="231.0" y="144.4" font-family="Arial, sans-serif" font-size="10.5" font-weight="700" fill="#111111">B</text>
<circle cx="252.7" cy="40.2" r="3.4" fill="#111111"/>
<text x="258.2" y="34.7" font-family="Arial, sans-serif" font-size="10.5" font-weight="700" paint-order="stroke" stroke="#fff" stroke-width="3" fill="#111111">B1</text>
<text x="258.2" y="34.7" font-family="Arial, sans-serif" font-size="10.5" font-weight="700" fill="#111111">B1</text>
<circle cx="299.0" cy="189.8" r="3.4" fill="#111111"/>
<text x="304.5" y="184.3" font-family="Arial, sans-serif" font-size="10.5" font-weight="700" paint-order="stroke" stroke="#fff" stroke-width="3" fill="#111111">C</text>
<text x="304.5" y="184.3" font-family="Arial, sans-serif" font-size="10.5" font-weight="700" fill="#111111">C</text>
<circle cx="94.5" cy="189.8" r="3.4" fill="#111111"/>
<text x="100.0" y="184.3" font-family="Arial, sans-serif" font-size="10.5" font-weight="700" paint-order="stroke" stroke="#fff" stroke-width="3" fill="#111111">D</text>
<text x="100.0" y="184.3" font-family="Arial, sans-serif" font-size="10.5" font-weight="700" fill="#111111">D</text>
<circle cx="90.5" cy="149.9" r="3.4" fill="#d97400"/>
<text x="96.0" y="144.4" font-family="Arial, sans-serif" font-size="10.5" font-weight="700" paint-order="stroke" stroke="#fff" stroke-width="3" fill="#d97400">P</text>
<text x="96.0" y="144.4" font-family="Arial, sans-serif" font-size="10.5" font-weight="700" fill="#d97400">P</text>
<circle cx="117.8" cy="40.2" r="3.4" fill="#d97400"/>
<text x="123.3" y="34.7" font-family="Arial, sans-serif" font-size="10.5" font-weight="700" paint-order="stroke" stroke="#fff" stroke-width="3" fill="#d97400">Q</text>
<text x="123.3" y="34.7" font-family="Arial, sans-serif" font-size="10.5" font-weight="700" fill="#d97400">Q</text>
<circle cx="164.1" cy="189.8" r="3.4" fill="#d97400"/>
<text x="169.6" y="184.3" font-family="Arial, sans-serif" font-size="10.5" font-weight="700" paint-order="stroke" stroke="#fff" stroke-width="3" fill="#d97400">R</text>
<text x="169.6" y="184.3" font-family="Arial, sans-serif" font-size="10.5" font-weight="700" fill="#d97400">R</text>
<circle cx="160.0" cy="149.9" r="3.4" fill="#d97400"/>
<text x="165.5" y="144.4" font-family="Arial, sans-serif" font-size="10.5" font-weight="700" paint-order="stroke" stroke="#fff" stroke-width="3" fill="#d97400">U</text>
<text x="165.5" y="144.4" font-family="Arial, sans-serif" font-size="10.5" font-weight="700" fill="#d97400">U</text>
<circle cx="187.3" cy="40.2" r="3.4" fill="#d97400"/>
<text x="192.8" y="34.7" font-family="Arial, sans-serif" font-size="10.5" font-weight="700" paint-order="stroke" stroke="#fff" stroke-width="3" fill="#d97400">V</text>
<text x="192.8" y="34.7" font-family="Arial, sans-serif" font-size="10.5" font-weight="700" fill="#d97400">V</text>
<circle cx="233.6" cy="189.8" r="3.4" fill="#d97400"/>
<text x="239.1" y="184.3" font-family="Arial, sans-serif" font-size="10.5" font-weight="700" paint-order="stroke" stroke="#fff" stroke-width="3" fill="#d97400">W</text>
<text x="239.1" y="184.3" font-family="Arial, sans-serif" font-size="10.5" font-weight="700" fill="#d97400">W</text>
<circle cx="124.1" cy="126.6" r="3.4" fill="#d97400"/>
<text x="129.6" y="121.1" font-family="Arial, sans-serif" font-size="10.5" font-weight="700" paint-order="stroke" stroke="#fff" stroke-width="3" fill="#d97400">X</text>
<text x="129.6" y="121.1" font-family="Arial, sans-serif" font-size="10.5" font-weight="700" fill="#d97400">X</text>
<circle cx="193.6" cy="126.6" r="3.4" fill="#d97400"/>
<text x="199.1" y="121.1" font-family="Arial, sans-serif" font-size="10.5" font-weight="700" paint-order="stroke" stroke="#fff" stroke-width="3" fill="#d97400">Y</text>
<text x="199.1" y="121.1" font-family="Arial, sans-serif" font-size="10.5" font-weight="700" fill="#d97400">Y</text>
<text x="10" y="20" font-family="Arial, sans-serif" font-size="12" font-weight="700" paint-order="stroke" stroke="#fff" stroke-width="4" fill="#0b7285">B+++ · 8P/12L/5F</text>
</svg>
