<svg xmlns="http://www.w3.org/2000/svg" width="320" height="230" viewBox="0 0 320 230" role="img" aria-label="B+01 · 中位截面">
<rect width="320" height="230" fill="#fff"/>
<polygon points="21.0,167.0 224.7,167.0 299.0,207.2 95.3,207.2" fill="#e9f0f4" fill-opacity="0.45" stroke="none"/>
<polygon points="159.8,22.8 21.0,167.0 224.7,167.0" fill="#edf4ee" fill-opacity="0.45" stroke="none"/>
<polygon points="159.8,22.8 224.7,167.0 299.0,207.2" fill="#f6eee5" fill-opacity="0.45" stroke="none"/>
<polygon points="159.8,22.8 299.0,207.2 95.3,207.2" fill="#f0ecf8" fill-opacity="0.45" stroke="none"/>
<polygon points="159.8,22.8 95.3,207.2 21.0,167.0" fill="#eef0f3" fill-opacity="0.45" stroke="none"/>
<polygon points="192.3,94.9 229.4,115.0 127.6,115.0 90.4,94.9" fill="#2f9e44" fill-opacity="0.29" stroke="#2f9e44" stroke-width="1.4"/>
<polygon points="224.7,167.0 299.0,207.2 95.3,207.2 21.0,167.0" fill="#1971c2" fill-opacity="0.11" stroke="#1971c2" stroke-width="1.4"/>
<line x1="21.0" y1="167.0" x2="224.7" y2="167.0" stroke="#111" stroke-width="1.45" stroke-linecap="round"/>
<line x1="224.7" y1="167.0" x2="299.0" y2="207.2" stroke="#111" stroke-width="1.45" stroke-linecap="round"/>
<line x1="299.0" y1="207.2" x2="95.3" y2="207.2" stroke="#111" stroke-width="1.45" stroke-linecap="round"/>
<line x1="95.3" y1="207.2" x2="21.0" y2="167.0" stroke="#111" stroke-width="1.45" stroke-linecap="round"/>
<line x1="159.8" y1="22.8" x2="21.0" y2="167.0" stroke="#111" stroke-width="1.45" stroke-linecap="round"/>
<line x1="159.8" y1="22.8" x2="224.7" y2="167.0" stroke="#111" stroke-width="1.45" stroke-linecap="round"/>
<line x1="159.8" y1="22.8" x2="299.0" y2="207.2" stroke="#111" stroke-width="1.45" stroke-linecap="round"/>
<line x1="159.8" y1="22.8" x2="95.3" y2="207.2" stroke="#111" stroke-width="1.45" stroke-linecap="round"/>
<line x1="192.3" y1="94.9" x2="127.6" y2="115.0" stroke="#c2255c" stroke-width="2.15" stroke-linecap="round" stroke-opacity="0.88"/>
<line x1="229.4" y1="115.0" x2="90.4" y2="94.9" stroke="#c2255c" stroke-width="2.15" stroke-linecap="round" stroke-opacity="0.88"/>
<line x1="159.8" y1="22.8" x2="159.9" y2="104.9" stroke="#d9480f" stroke-width="2.15" stroke-linecap="round" stroke-opacity="0.88"/>
<line x1="159.8" y1="22.8" x2="224.7" y2="167.0" stroke="#111111" stroke-width="1.45" stroke-linecap="round" stroke-opacity="0.32" stroke-dasharray="6 4"/>
<line x1="159.8" y1="22.8" x2="95.3" y2="207.2" stroke="#111111" stroke-width="1.45" stroke-linecap="round" stroke-opacity="0.32" stroke-dasharray="6 4"/>
<line x1="159.9" y1="104.9" x2="127.6" y2="115.0" stroke="#2f9e44" stroke-width="2.15" stroke-linecap="round" stroke-opacity="0.78" stroke-dasharray="6 4"/>
<circle cx="21.0" cy="167.0" r="3.4" fill="#111111"/>
<text x="26.5" y="161.5" font-family="Arial, sans-serif" font-size="10.5" font-weight="700" paint-order="stroke" stroke="#fff" stroke-width="3" fill="#111111">A</text>
<text x="26.5" y="161.5" font-family="Arial, sans-serif" font-size="10.5" font-weight="700" fill="#111111">A</text>
<circle cx="224.7" cy="167.0" r="3.4" fill="#111111"/>
<text x="230.2" y="161.5" font-family="Arial, sans-serif" font-size="10.5" font-weight="700" paint-order="stroke" stroke="#fff" stroke-width="3" fill="#111111">B</text>
<text x="230.2" y="161.5" font-family="Arial, sans-serif" font-size="10.5" font-weight="700" fill="#111111">B</text>
<circle cx="299.0" cy="207.2" r="3.4" fill="#111111"/>
<text x="304.5" y="201.7" font-family="Arial, sans-serif" font-size="10.5" font-weight="700" paint-order="stroke" stroke="#fff" stroke-width="3" fill="#111111">C</text>
<text x="304.5" y="201.7" font-family="Arial, sans-serif" font-size="10.5" font-weight="700" fill="#111111">C</text>
<circle cx="95.3" cy="207.2" r="3.4" fill="#111111"/>
<text x="100.8" y="201.7" font-family="Arial, sans-serif" font-size="10.5" font-weight="700" paint-order="stroke" stroke="#fff" stroke-width="3" fill="#111111">D</text>
<text x="100.8" y="201.7" font-family="Arial, sans-serif" font-size="10.5" font-weight="700" fill="#111111">D</text>
<circle cx="159.8" cy="22.8" r="3.4" fill="#111111"/>
<text x="165.3" y="17.3" font-family="Arial, sans-serif" font-size="10.5" font-weight="700" paint-order="stroke" stroke="#fff" stroke-width="3" fill="#111111">S</text>
<text x="165.3" y="17.3" font-family="Arial, sans-serif" font-size="10.5" font-weight="700" fill="#111111">S</text>
<circle cx="192.3" cy="94.9" r="3.4" fill="#d97400"/>
<text x="197.8" y="89.4" font-family="Arial, sans-serif" font-size="10.5" font-weight="700" paint-order="stroke" stroke="#fff" stroke-width="3" fill="#d97400">P</text>
<text x="197.8" y="89.4" font-family="Arial, sans-serif" font-size="10.5" font-weight="700" fill="#d97400">P</text>
<circle cx="229.4" cy="115.0" r="3.4" fill="#d97400"/>
<text x="234.9" y="109.5" font-family="Arial, sans-serif" font-size="10.5" font-weight="700" paint-order="stroke" stroke="#fff" stroke-width="3" fill="#d97400">Q</text>
<text x="234.9" y="109.5" font-family="Arial, sans-serif" font-size="10.5" font-weight="700" fill="#d97400">Q</text>
<circle cx="127.6" cy="115.0" r="3.4" fill="#d97400"/>
<text x="133.1" y="109.5" font-family="Arial, sans-serif" font-size="10.5" font-weight="700" paint-order="stroke" stroke="#fff" stroke-width="3" fill="#d97400">R</text>
<text x="133.1" y="109.5" font-family="Arial, sans-serif" font-size="10.5" font-weight="700" fill="#d97400">R</text>
<circle cx="90.4" cy="94.9" r="3.4" fill="#d97400"/>
<text x="95.9" y="89.4" font-family="Arial, sans-serif" font-size="10.5" font-weight="700" paint-order="stroke" stroke="#fff" stroke-width="3" fill="#d97400">T</text>
<text x="95.9" y="89.4" font-family="Arial, sans-serif" font-size="10.5" font-weight="700" fill="#d97400">T</text>
<circle cx="159.9" cy="104.9" r="3.4" fill="#d97400"/>
<text x="165.4" y="99.4" font-family="Arial, sans-serif" font-size="10.5" font-weight="700" paint-order="stroke" stroke="#fff" stroke-width="3" fill="#d97400">X</text>
<text x="165.4" y="99.4" font-family="Arial, sans-serif" font-size="10.5" font-weight="700" fill="#d97400">X</text>
<text x="10" y="20" font-family="Arial, sans-serif" font-size="12" font-weight="700" paint-order="stroke" stroke="#fff" stroke-width="4" fill="#0b7285">B+ · 5P/6L/2F</text>
</svg>
