<svg xmlns="http://www.w3.org/2000/svg" width="320" height="230" viewBox="0 0 320 230" role="img" aria-label="B++05 · 底座中截面 + 屋顶棱">
<rect width="320" height="230" fill="#fff"/>
<polygon points="39.8,179.6 226.0,179.6 280.2,209.0 94.0,209.0" fill="#e9f0f4" fill-opacity="0.45" stroke="none"/>
<polygon points="39.8,179.6 226.0,179.6 226.0,102.1 39.8,102.1" fill="#edf4ee" fill-opacity="0.45" stroke="none"/>
<polygon points="226.0,179.6 280.2,209.0 280.2,131.5 226.0,102.1" fill="#f6eee5" fill-opacity="0.45" stroke="none"/>
<polygon points="280.2,209.0 94.0,209.0 94.0,131.5 280.2,131.5" fill="#f0ecf8" fill-opacity="0.45" stroke="none"/>
<polygon points="94.0,209.0 39.8,179.6 39.8,102.1 94.0,131.5" fill="#eef0f3" fill-opacity="0.45" stroke="none"/>
<polygon points="160.5,21.0 39.8,102.1 226.0,102.1" fill="#e9f0f4" fill-opacity="0.45" stroke="none"/>
<polygon points="160.5,21.0 226.0,102.1 280.2,131.5" fill="#edf4ee" fill-opacity="0.45" stroke="none"/>
<polygon points="160.5,21.0 280.2,131.5 94.0,131.5" fill="#f6eee5" fill-opacity="0.45" stroke="none"/>
<polygon points="160.5,21.0 94.0,131.5 39.8,102.1" fill="#f0ecf8" fill-opacity="0.45" stroke="none"/>
<polygon points="280.2,170.2 226.0,140.9 39.8,140.9 94.0,170.2" fill="#7048e8" fill-opacity="0.22" stroke="#7048e8" stroke-width="1.4"/>
<polygon points="160.5,21.0 280.2,131.5 226.0,102.1" fill="#d9480f" fill-opacity="0.22" stroke="#d9480f" stroke-width="1.4"/>
<polygon points="280.2,131.5 226.0,102.1 39.8,102.1 94.0,131.5" fill="#1971c2" fill-opacity="0.13" stroke="#1971c2" stroke-width="1.4"/>
<line x1="39.8" y1="179.6" x2="226.0" y2="179.6" stroke="#111" stroke-width="1.45" stroke-linecap="round"/>
<line x1="226.0" y1="179.6" x2="280.2" y2="209.0" stroke="#111" stroke-width="1.45" stroke-linecap="round"/>
<line x1="280.2" y1="209.0" x2="94.0" y2="209.0" stroke="#111" stroke-width="1.45" stroke-linecap="round"/>
<line x1="94.0" y1="209.0" x2="39.8" y2="179.6" stroke="#111" stroke-width="1.45" stroke-linecap="round"/>
<line x1="39.8" y1="102.1" x2="226.0" y2="102.1" stroke="#111" stroke-width="1.45" stroke-linecap="round"/>
<line x1="226.0" y1="102.1" x2="280.2" y2="131.5" stroke="#111" stroke-width="1.45" stroke-linecap="round"/>
<line x1="280.2" y1="131.5" x2="94.0" y2="131.5" stroke="#111" stroke-width="1.45" stroke-linecap="round"/>
<line x1="94.0" y1="131.5" x2="39.8" y2="102.1" stroke="#111" stroke-width="1.45" stroke-linecap="round"/>
<line x1="39.8" y1="179.6" x2="39.8" y2="102.1" stroke="#111" stroke-width="1.45" stroke-linecap="round"/>
<line x1="226.0" y1="179.6" x2="226.0" y2="102.1" stroke="#111" stroke-width="1.45" stroke-linecap="round"/>
<line x1="280.2" y1="209.0" x2="280.2" y2="131.5" stroke="#111" stroke-width="1.45" stroke-linecap="round"/>
<line x1="94.0" y1="209.0" x2="94.0" y2="131.5" stroke="#111" stroke-width="1.45" stroke-linecap="round"/>
<line x1="160.5" y1="21.0" x2="39.8" y2="102.1" stroke="#111" stroke-width="1.45" stroke-linecap="round"/>
<line x1="160.5" y1="21.0" x2="226.0" y2="102.1" stroke="#111" stroke-width="1.45" stroke-linecap="round"/>
<line x1="160.5" y1="21.0" x2="280.2" y2="131.5" stroke="#111" stroke-width="1.45" stroke-linecap="round"/>
<line x1="160.5" y1="21.0" x2="94.0" y2="131.5" stroke="#111" stroke-width="1.45" stroke-linecap="round"/>
<line x1="280.2" y1="170.2" x2="39.8" y2="140.9" stroke="#c2255c" stroke-width="2.15" stroke-linecap="round" stroke-opacity="0.88"/>
<line x1="226.0" y1="140.9" x2="94.0" y2="170.2" stroke="#c2255c" stroke-width="2.15" stroke-linecap="round" stroke-opacity="0.88"/>
<line x1="280.2" y1="131.5" x2="226.0" y2="102.1" stroke="#111111" stroke-width="1.45" stroke-linecap="round" stroke-opacity="0.72"/>
<line x1="160.5" y1="21.0" x2="253.1" y2="116.8" stroke="#d9480f" stroke-width="2.15" stroke-linecap="round" stroke-opacity="0.88"/>
<line x1="253.1" y1="116.8" x2="160.0" y2="116.8" stroke="#d9480f" stroke-width="2.15" stroke-linecap="round" stroke-opacity="0.88"/>
<line x1="160.5" y1="21.0" x2="160.0" y2="116.8" stroke="#d97400" stroke-width="2.15" stroke-linecap="round" stroke-opacity="0.88" stroke-dasharray="6 4"/>
<line x1="280.2" y1="170.2" x2="226.0" y2="140.9" stroke="#2f9e44" stroke-width="2.15" stroke-linecap="round" stroke-opacity="0.88"/>
<line x1="39.8" y1="140.9" x2="94.0" y2="170.2" stroke="#2f9e44" stroke-width="2.15" stroke-linecap="round" stroke-opacity="0.88"/>
<circle cx="39.8" cy="179.6" r="3.4" fill="#111111"/>
<text x="45.3" y="174.1" font-family="Arial, sans-serif" font-size="10.5" font-weight="700" paint-order="stroke" stroke="#fff" stroke-width="3" fill="#111111">A</text>
<text x="45.3" y="174.1" font-family="Arial, sans-serif" font-size="10.5" font-weight="700" fill="#111111">A</text>
<circle cx="39.8" cy="102.1" r="3.4" fill="#111111"/>
<text x="45.3" y="96.6" font-family="Arial, sans-serif" font-size="10.5" font-weight="700" paint-order="stroke" stroke="#fff" stroke-width="3" fill="#111111">A1</text>
<text x="45.3" y="96.6" font-family="Arial, sans-serif" font-size="10.5" font-weight="700" fill="#111111">A1</text>
<circle cx="226.0" cy="179.6" r="3.4" fill="#111111"/>
<text x="231.5" y="174.1" font-family="Arial, sans-serif" font-size="10.5" font-weight="700" paint-order="stroke" stroke="#fff" stroke-width="3" fill="#111111">B</text>
<text x="231.5" y="174.1" font-family="Arial, sans-serif" font-size="10.5" font-weight="700" fill="#111111">B</text>
<circle cx="226.0" cy="102.1" r="3.4" fill="#111111"/>
<text x="231.5" y="96.6" font-family="Arial, sans-serif" font-size="10.5" font-weight="700" paint-order="stroke" stroke="#fff" stroke-width="3" fill="#111111">B1</text>
<text x="231.5" y="96.6" font-family="Arial, sans-serif" font-size="10.5" font-weight="700" fill="#111111">B1</text>
<circle cx="280.2" cy="209.0" r="3.4" fill="#111111"/>
<text x="285.7" y="203.5" font-family="Arial, sans-serif" font-size="10.5" font-weight="700" paint-order="stroke" stroke="#fff" stroke-width="3" fill="#111111">C</text>
<text x="285.7" y="203.5" font-family="Arial, sans-serif" font-size="10.5" font-weight="700" fill="#111111">C</text>
<circle cx="280.2" cy="131.5" r="3.4" fill="#111111"/>
<text x="285.7" y="126.0" font-family="Arial, sans-serif" font-size="10.5" font-weight="700" paint-order="stroke" stroke="#fff" stroke-width="3" fill="#111111">C1</text>
<text x="285.7" y="126.0" font-family="Arial, sans-serif" font-size="10.5" font-weight="700" fill="#111111">C1</text>
<circle cx="94.0" cy="209.0" r="3.4" fill="#111111"/>
<text x="99.5" y="203.5" font-family="Arial, sans-serif" font-size="10.5" font-weight="700" paint-order="stroke" stroke="#fff" stroke-width="3" fill="#111111">D</text>
<text x="99.5" y="203.5" font-family="Arial, sans-serif" font-size="10.5" font-weight="700" fill="#111111">D</text>
<circle cx="94.0" cy="131.5" r="3.4" fill="#111111"/>
<text x="99.5" y="126.0" font-family="Arial, sans-serif" font-size="10.5" font-weight="700" paint-order="stroke" stroke="#fff" stroke-width="3" fill="#111111">D1</text>
<text x="99.5" y="126.0" font-family="Arial, sans-serif" font-size="10.5" font-weight="700" fill="#111111">D1</text>
<circle cx="160.5" cy="21.0" r="3.4" fill="#111111"/>
<text x="166.0" y="15.5" font-family="Arial, sans-serif" font-size="10.5" font-weight="700" paint-order="stroke" stroke="#fff" stroke-width="3" fill="#111111">S</text>
<text x="166.0" y="15.5" font-family="Arial, sans-serif" font-size="10.5" font-weight="700" fill="#111111">S</text>
<circle cx="280.2" cy="170.2" r="3.4" fill="#d97400"/>
<text x="285.7" y="164.7" font-family="Arial, sans-serif" font-size="10.5" font-weight="700" paint-order="stroke" stroke="#fff" stroke-width="3" fill="#d97400">E</text>
<text x="285.7" y="164.7" font-family="Arial, sans-serif" font-size="10.5" font-weight="700" fill="#d97400">E</text>
<circle cx="226.0" cy="140.9" r="3.4" fill="#d97400"/>
<text x="231.5" y="135.4" font-family="Arial, sans-serif" font-size="10.5" font-weight="700" paint-order="stroke" stroke="#fff" stroke-width="3" fill="#d97400">F</text>
<text x="231.5" y="135.4" font-family="Arial, sans-serif" font-size="10.5" font-weight="700" fill="#d97400">F</text>
<circle cx="39.8" cy="140.9" r="3.4" fill="#d97400"/>
<text x="45.3" y="135.4" font-family="Arial, sans-serif" font-size="10.5" font-weight="700" paint-order="stroke" stroke="#fff" stroke-width="3" fill="#d97400">G</text>
<text x="45.3" y="135.4" font-family="Arial, sans-serif" font-size="10.5" font-weight="700" fill="#d97400">G</text>
<circle cx="94.0" cy="170.2" r="3.4" fill="#d97400"/>
<text x="99.5" y="164.7" font-family="Arial, sans-serif" font-size="10.5" font-weight="700" paint-order="stroke" stroke="#fff" stroke-width="3" fill="#d97400">H</text>
<text x="99.5" y="164.7" font-family="Arial, sans-serif" font-size="10.5" font-weight="700" fill="#d97400">H</text>
<circle cx="253.1" cy="116.8" r="3.4" fill="#d97400"/>
<text x="258.6" y="111.3" font-family="Arial, sans-serif" font-size="10.5" font-weight="700" paint-order="stroke" stroke="#fff" stroke-width="3" fill="#d97400">M</text>
<text x="258.6" y="111.3" font-family="Arial, sans-serif" font-size="10.5" font-weight="700" fill="#d97400">M</text>
<circle cx="160.0" cy="116.8" r="3.4" fill="#d97400"/>
<text x="165.5" y="111.3" font-family="Arial, sans-serif" font-size="10.5" font-weight="700" paint-order="stroke" stroke="#fff" stroke-width="3" fill="#d97400">O1</text>
<text x="165.5" y="111.3" font-family="Arial, sans-serif" font-size="10.5" font-weight="700" fill="#d97400">O1</text>
<text x="10" y="20" font-family="Arial, sans-serif" font-size="12" font-weight="700" paint-order="stroke" stroke="#fff" stroke-width="4" fill="#0b7285">B++ · 6P/8L/3F</text>
</svg>
