<svg xmlns="http://www.w3.org/2000/svg" width="360" height="260" viewBox="0 0 360 260" role="img" aria-label="family_003 · 三棱锥">
<rect width="360" height="260" fill="#ffffff"/>
<polygon points="60.6,194.3 299.4,194.3 254.5,239.0" fill="#dcecf2" fill-opacity="0.62" stroke="none"/>
<polygon points="223.5,21.0 60.6,194.3 299.4,194.3" fill="#e8f3eb" fill-opacity="0.62" stroke="none"/>
<polygon points="223.5,21.0 299.4,194.3 254.5,239.0" fill="#f6eadf" fill-opacity="0.62" stroke="none"/>
<polygon points="223.5,21.0 254.5,239.0 60.6,194.3" fill="#eee8f6" fill-opacity="0.62" stroke="none"/>
<line x1="60.6" y1="194.3" x2="299.4" y2="194.3" stroke="#111" stroke-width="1.7" stroke-linecap="round"/>
<line x1="299.4" y1="194.3" x2="254.5" y2="239.0" stroke="#111" stroke-width="1.7" stroke-linecap="round"/>
<line x1="254.5" y1="239.0" x2="60.6" y2="194.3" stroke="#111" stroke-width="1.7" stroke-linecap="round"/>
<line x1="223.5" y1="21.0" x2="60.6" y2="194.3" stroke="#111" stroke-width="1.7" stroke-linecap="round"/>
<line x1="223.5" y1="21.0" x2="299.4" y2="194.3" stroke="#111" stroke-width="1.7" stroke-linecap="round"/>
<line x1="223.5" y1="21.0" x2="254.5" y2="239.0" stroke="#111" stroke-width="1.7" stroke-linecap="round"/>
<circle cx="60.6" cy="194.3" r="3.2" fill="#d97400"/>
<text x="65.6" y="189.3" font-family="Arial, sans-serif" font-size="11" font-weight="700" fill="#111">A</text>
<circle cx="299.4" cy="194.3" r="3.2" fill="#d97400"/>
<text x="304.4" y="189.3" font-family="Arial, sans-serif" font-size="11" font-weight="700" fill="#111">B</text>
<circle cx="254.5" cy="239.0" r="3.2" fill="#d97400"/>
<text x="259.5" y="234.0" font-family="Arial, sans-serif" font-size="11" font-weight="700" fill="#111">C</text>
<circle cx="223.5" cy="21.0" r="3.2" fill="#d97400"/>
<text x="228.5" y="16.0" font-family="Arial, sans-serif" font-size="11" font-weight="700" fill="#111">S</text>
</svg>
