<svg xmlns="http://www.w3.org/2000/svg" width="360" height="260" viewBox="0 0 360 260" role="img" aria-label="family_009 · 楔形体">
<rect width="360" height="260" fill="#ffffff"/>
<polygon points="21.0,170.0 254.9,170.0 339.0,215.5 105.1,215.5" fill="#dcecf2" fill-opacity="0.62" stroke="none"/>
<polygon points="21.0,170.0 254.9,170.0 286.1,44.5 52.2,44.5" fill="#e8f3eb" fill-opacity="0.62" stroke="none"/>
<polygon points="105.1,215.5 339.0,215.5 286.1,44.5 52.2,44.5" fill="#f6eadf" fill-opacity="0.62" stroke="none"/>
<polygon points="21.0,170.0 105.1,215.5 52.2,44.5" fill="#eee8f6" fill-opacity="0.62" stroke="none"/>
<polygon points="254.9,170.0 339.0,215.5 286.1,44.5" fill="#eef0f3" fill-opacity="0.62" stroke="none"/>
<line x1="21.0" y1="170.0" x2="254.9" y2="170.0" stroke="#111" stroke-width="1.7" stroke-linecap="round"/>
<line x1="254.9" y1="170.0" x2="339.0" y2="215.5" stroke="#111" stroke-width="1.7" stroke-linecap="round"/>
<line x1="339.0" y1="215.5" x2="105.1" y2="215.5" stroke="#111" stroke-width="1.7" stroke-linecap="round"/>
<line x1="105.1" y1="215.5" x2="21.0" y2="170.0" stroke="#111" stroke-width="1.7" stroke-linecap="round"/>
<line x1="21.0" y1="170.0" x2="52.2" y2="44.5" stroke="#111" stroke-width="1.7" stroke-linecap="round"/>
<line x1="254.9" y1="170.0" x2="286.1" y2="44.5" stroke="#111" stroke-width="1.7" stroke-linecap="round"/>
<line x1="52.2" y1="44.5" x2="286.1" y2="44.5" stroke="#111" stroke-width="1.7" stroke-linecap="round"/>
<line x1="105.1" y1="215.5" x2="52.2" y2="44.5" stroke="#111" stroke-width="1.7" stroke-linecap="round"/>
<line x1="339.0" y1="215.5" x2="286.1" y2="44.5" stroke="#111" stroke-width="1.7" stroke-linecap="round"/>
<circle cx="21.0" cy="170.0" r="3.2" fill="#d97400"/>
<text x="26.0" y="165.0" font-family="Arial, sans-serif" font-size="11" font-weight="700" fill="#111">A</text>
<circle cx="254.9" cy="170.0" r="3.2" fill="#d97400"/>
<text x="259.9" y="165.0" font-family="Arial, sans-serif" font-size="11" font-weight="700" fill="#111">B</text>
<circle cx="339.0" cy="215.5" r="3.2" fill="#d97400"/>
<text x="344.0" y="210.5" font-family="Arial, sans-serif" font-size="11" font-weight="700" fill="#111">C</text>
<circle cx="105.1" cy="215.5" r="3.2" fill="#d97400"/>
<text x="110.1" y="210.5" font-family="Arial, sans-serif" font-size="11" font-weight="700" fill="#111">D</text>
<circle cx="52.2" cy="44.5" r="3.2" fill="#d97400"/>
<text x="57.2" y="39.5" font-family="Arial, sans-serif" font-size="11" font-weight="700" fill="#111">A1</text>
<circle cx="286.1" cy="44.5" r="3.2" fill="#d97400"/>
<text x="291.1" y="39.5" font-family="Arial, sans-serif" font-size="11" font-weight="700" fill="#111">B1</text>
</svg>
