<svg xmlns="http://www.w3.org/2000/svg" width="360" height="260" viewBox="0 0 360 260" role="img" aria-label="family_010 · 长方体叠四棱锥">
<rect width="360" height="260" fill="#ffffff"/>
<polygon points="40.6,205.0 256.5,205.0 319.4,239.0 103.5,239.0" fill="#dcecf2" fill-opacity="0.62" stroke="none"/>
<polygon points="40.6,205.0 256.5,205.0 256.5,115.1 40.6,115.1" fill="#e8f3eb" fill-opacity="0.62" stroke="none"/>
<polygon points="256.5,205.0 319.4,239.0 319.4,149.1 256.5,115.1" fill="#f6eadf" fill-opacity="0.62" stroke="none"/>
<polygon points="319.4,239.0 103.5,239.0 103.5,149.1 319.4,149.1" fill="#eee8f6" fill-opacity="0.62" stroke="none"/>
<polygon points="103.5,239.0 40.6,205.0 40.6,115.1 103.5,149.1" fill="#eef0f3" fill-opacity="0.62" stroke="none"/>
<polygon points="180.6,21.0 40.6,115.1 256.5,115.1" fill="#dcecf2" fill-opacity="0.62" stroke="none"/>
<polygon points="180.6,21.0 256.5,115.1 319.4,149.1" fill="#e8f3eb" fill-opacity="0.62" stroke="none"/>
<polygon points="180.6,21.0 319.4,149.1 103.5,149.1" fill="#f6eadf" fill-opacity="0.62" stroke="none"/>
<polygon points="180.6,21.0 103.5,149.1 40.6,115.1" fill="#eee8f6" fill-opacity="0.62" stroke="none"/>
<line x1="40.6" y1="205.0" x2="256.5" y2="205.0" stroke="#111" stroke-width="1.7" stroke-linecap="round"/>
<line x1="256.5" y1="205.0" x2="319.4" y2="239.0" stroke="#111" stroke-width="1.7" stroke-linecap="round"/>
<line x1="319.4" y1="239.0" x2="103.5" y2="239.0" stroke="#111" stroke-width="1.7" stroke-linecap="round"/>
<line x1="103.5" y1="239.0" x2="40.6" y2="205.0" stroke="#111" stroke-width="1.7" stroke-linecap="round"/>
<line x1="40.6" y1="115.1" x2="256.5" y2="115.1" stroke="#111" stroke-width="1.7" stroke-linecap="round"/>
<line x1="256.5" y1="115.1" x2="319.4" y2="149.1" stroke="#111" stroke-width="1.7" stroke-linecap="round"/>
<line x1="319.4" y1="149.1" x2="103.5" y2="149.1" stroke="#111" stroke-width="1.7" stroke-linecap="round"/>
<line x1="103.5" y1="149.1" x2="40.6" y2="115.1" stroke="#111" stroke-width="1.7" stroke-linecap="round"/>
<line x1="40.6" y1="205.0" x2="40.6" y2="115.1" stroke="#111" stroke-width="1.7" stroke-linecap="round"/>
<line x1="256.5" y1="205.0" x2="256.5" y2="115.1" stroke="#111" stroke-width="1.7" stroke-linecap="round"/>
<line x1="319.4" y1="239.0" x2="319.4" y2="149.1" stroke="#111" stroke-width="1.7" stroke-linecap="round"/>
<line x1="103.5" y1="239.0" x2="103.5" y2="149.1" stroke="#111" stroke-width="1.7" stroke-linecap="round"/>
<line x1="180.6" y1="21.0" x2="40.6" y2="115.1" stroke="#111" stroke-width="1.7" stroke-linecap="round"/>
<line x1="180.6" y1="21.0" x2="256.5" y2="115.1" stroke="#111" stroke-width="1.7" stroke-linecap="round"/>
<line x1="180.6" y1="21.0" x2="319.4" y2="149.1" stroke="#111" stroke-width="1.7" stroke-linecap="round"/>
<line x1="180.6" y1="21.0" x2="103.5" y2="149.1" stroke="#111" stroke-width="1.7" stroke-linecap="round"/>
<circle cx="40.6" cy="205.0" r="3.2" fill="#d97400"/>
<text x="45.6" y="200.0" font-family="Arial, sans-serif" font-size="11" font-weight="700" fill="#111">A</text>
<circle cx="256.5" cy="205.0" r="3.2" fill="#d97400"/>
<text x="261.5" y="200.0" font-family="Arial, sans-serif" font-size="11" font-weight="700" fill="#111">B</text>
<circle cx="319.4" cy="239.0" r="3.2" fill="#d97400"/>
<text x="324.4" y="234.0" font-family="Arial, sans-serif" font-size="11" font-weight="700" fill="#111">C</text>
<circle cx="103.5" cy="239.0" r="3.2" fill="#d97400"/>
<text x="108.5" y="234.0" font-family="Arial, sans-serif" font-size="11" font-weight="700" fill="#111">D</text>
<circle cx="40.6" cy="115.1" r="3.2" fill="#d97400"/>
<text x="45.6" y="110.1" font-family="Arial, sans-serif" font-size="11" font-weight="700" fill="#111">A1</text>
<circle cx="256.5" cy="115.1" r="3.2" fill="#d97400"/>
<text x="261.5" y="110.1" font-family="Arial, sans-serif" font-size="11" font-weight="700" fill="#111">B1</text>
<circle cx="319.4" cy="149.1" r="3.2" fill="#d97400"/>
<text x="324.4" y="144.1" font-family="Arial, sans-serif" font-size="11" font-weight="700" fill="#111">C1</text>
<circle cx="103.5" cy="149.1" r="3.2" fill="#d97400"/>
<text x="108.5" y="144.1" font-family="Arial, sans-serif" font-size="11" font-weight="700" fill="#111">D1</text>
<circle cx="180.6" cy="21.0" r="3.2" fill="#d97400"/>
<text x="185.6" y="16.0" font-family="Arial, sans-serif" font-size="11" font-weight="700" fill="#111">S</text>
</svg>
