<svg xmlns="http://www.w3.org/2000/svg" width="360" height="260" viewBox="0 0 360 260" role="img" aria-label="family_007 · 三棱柱">
<rect width="360" height="260" fill="#ffffff"/>
<polygon points="57.8,193.3 306.4,193.3 260.9,239.0" fill="#dcecf2" fill-opacity="0.62" stroke="none"/>
<polygon points="53.6,21.0 302.2,21.0 256.7,66.7" fill="#e8f3eb" fill-opacity="0.62" stroke="none"/>
<polygon points="57.8,193.3 306.4,193.3 302.2,21.0 53.6,21.0" fill="#f6eadf" fill-opacity="0.62" stroke="none"/>
<polygon points="306.4,193.3 260.9,239.0 256.7,66.7 302.2,21.0" fill="#eee8f6" fill-opacity="0.62" stroke="none"/>
<polygon points="260.9,239.0 57.8,193.3 53.6,21.0 256.7,66.7" fill="#eef0f3" fill-opacity="0.62" stroke="none"/>
<line x1="57.8" y1="193.3" x2="306.4" y2="193.3" stroke="#111" stroke-width="1.7" stroke-linecap="round"/>
<line x1="306.4" y1="193.3" x2="260.9" y2="239.0" stroke="#111" stroke-width="1.7" stroke-linecap="round"/>
<line x1="260.9" y1="239.0" x2="57.8" y2="193.3" stroke="#111" stroke-width="1.7" stroke-linecap="round"/>
<line x1="53.6" y1="21.0" x2="302.2" y2="21.0" stroke="#111" stroke-width="1.7" stroke-linecap="round"/>
<line x1="302.2" y1="21.0" x2="256.7" y2="66.7" stroke="#111" stroke-width="1.7" stroke-linecap="round"/>
<line x1="256.7" y1="66.7" x2="53.6" y2="21.0" stroke="#111" stroke-width="1.7" stroke-linecap="round"/>
<line x1="57.8" y1="193.3" x2="53.6" y2="21.0" stroke="#111" stroke-width="1.7" stroke-linecap="round"/>
<line x1="306.4" y1="193.3" x2="302.2" y2="21.0" stroke="#111" stroke-width="1.7" stroke-linecap="round"/>
<line x1="260.9" y1="239.0" x2="256.7" y2="66.7" stroke="#111" stroke-width="1.7" stroke-linecap="round"/>
<circle cx="57.8" cy="193.3" r="3.2" fill="#d97400"/>
<text x="62.8" y="188.3" font-family="Arial, sans-serif" font-size="11" font-weight="700" fill="#111">A</text>
<circle cx="306.4" cy="193.3" r="3.2" fill="#d97400"/>
<text x="311.4" y="188.3" font-family="Arial, sans-serif" font-size="11" font-weight="700" fill="#111">B</text>
<circle cx="260.9" cy="239.0" r="3.2" fill="#d97400"/>
<text x="265.9" y="234.0" font-family="Arial, sans-serif" font-size="11" font-weight="700" fill="#111">C</text>
<circle cx="53.6" cy="21.0" r="3.2" fill="#d97400"/>
<text x="58.6" y="16.0" font-family="Arial, sans-serif" font-size="11" font-weight="700" fill="#111">A1</text>
<circle cx="302.2" cy="21.0" r="3.2" fill="#d97400"/>
<text x="307.2" y="16.0" font-family="Arial, sans-serif" font-size="11" font-weight="700" fill="#111">B1</text>
<circle cx="256.7" cy="66.7" r="3.2" fill="#d97400"/>
<text x="261.7" y="61.7" font-family="Arial, sans-serif" font-size="11" font-weight="700" fill="#111">C1</text>
</svg>
