<svg xmlns="http://www.w3.org/2000/svg" width="360" height="260" viewBox="0 0 360 260" role="img" aria-label="family_004 · 长方体">
<rect width="360" height="260" fill="#ffffff"/>
<polygon points="21.0,197.8 267.8,197.8 339.0,236.4 92.2,236.4" fill="#dcecf2" fill-opacity="0.62" stroke="none"/>
<polygon points="21.0,23.6 267.8,23.6 339.0,62.2 92.2,62.2" fill="#e8f3eb" fill-opacity="0.62" stroke="none"/>
<polygon points="21.0,197.8 267.8,197.8 267.8,23.6 21.0,23.6" fill="#f6eadf" fill-opacity="0.62" stroke="none"/>
<polygon points="267.8,197.8 339.0,236.4 339.0,62.2 267.8,23.6" fill="#eee8f6" fill-opacity="0.62" stroke="none"/>
<polygon points="339.0,236.4 92.2,236.4 92.2,62.2 339.0,62.2" fill="#eef0f3" fill-opacity="0.62" stroke="none"/>
<polygon points="92.2,236.4 21.0,197.8 21.0,23.6 92.2,62.2" fill="#dcecf2" fill-opacity="0.62" stroke="none"/>
<line x1="21.0" y1="197.8" x2="267.8" y2="197.8" stroke="#111" stroke-width="1.7" stroke-linecap="round"/>
<line x1="267.8" y1="197.8" x2="339.0" y2="236.4" stroke="#111" stroke-width="1.7" stroke-linecap="round"/>
<line x1="339.0" y1="236.4" x2="92.2" y2="236.4" stroke="#111" stroke-width="1.7" stroke-linecap="round"/>
<line x1="92.2" y1="236.4" x2="21.0" y2="197.8" stroke="#111" stroke-width="1.7" stroke-linecap="round"/>
<line x1="21.0" y1="23.6" x2="267.8" y2="23.6" stroke="#111" stroke-width="1.7" stroke-linecap="round"/>
<line x1="267.8" y1="23.6" x2="339.0" y2="62.2" stroke="#111" stroke-width="1.7" stroke-linecap="round"/>
<line x1="339.0" y1="62.2" x2="92.2" y2="62.2" stroke="#111" stroke-width="1.7" stroke-linecap="round"/>
<line x1="92.2" y1="62.2" x2="21.0" y2="23.6" stroke="#111" stroke-width="1.7" stroke-linecap="round"/>
<line x1="21.0" y1="197.8" x2="21.0" y2="23.6" stroke="#111" stroke-width="1.7" stroke-linecap="round"/>
<line x1="267.8" y1="197.8" x2="267.8" y2="23.6" stroke="#111" stroke-width="1.7" stroke-linecap="round"/>
<line x1="339.0" y1="236.4" x2="339.0" y2="62.2" stroke="#111" stroke-width="1.7" stroke-linecap="round"/>
<line x1="92.2" y1="236.4" x2="92.2" y2="62.2" stroke="#111" stroke-width="1.7" stroke-linecap="round"/>
<circle cx="21.0" cy="197.8" r="3.2" fill="#d97400"/>
<text x="26.0" y="192.8" font-family="Arial, sans-serif" font-size="11" font-weight="700" fill="#111">A</text>
<circle cx="267.8" cy="197.8" r="3.2" fill="#d97400"/>
<text x="272.8" y="192.8" font-family="Arial, sans-serif" font-size="11" font-weight="700" fill="#111">B</text>
<circle cx="339.0" cy="236.4" r="3.2" fill="#d97400"/>
<text x="344.0" y="231.4" font-family="Arial, sans-serif" font-size="11" font-weight="700" fill="#111">C</text>
<circle cx="92.2" cy="236.4" r="3.2" fill="#d97400"/>
<text x="97.2" y="231.4" font-family="Arial, sans-serif" font-size="11" font-weight="700" fill="#111">D</text>
<circle cx="21.0" cy="23.6" r="3.2" fill="#d97400"/>
<text x="26.0" y="18.6" font-family="Arial, sans-serif" font-size="11" font-weight="700" fill="#111">A1</text>
<circle cx="267.8" cy="23.6" r="3.2" fill="#d97400"/>
<text x="272.8" y="18.6" font-family="Arial, sans-serif" font-size="11" font-weight="700" fill="#111">B1</text>
<circle cx="339.0" cy="62.2" r="3.2" fill="#d97400"/>
<text x="344.0" y="57.2" font-family="Arial, sans-serif" font-size="11" font-weight="700" fill="#111">C1</text>
<circle cx="92.2" cy="62.2" r="3.2" fill="#d97400"/>
<text x="97.2" y="57.2" font-family="Arial, sans-serif" font-size="11" font-weight="700" fill="#111">D1</text>
</svg>
