<svg xmlns="http://www.w3.org/2000/svg" width="320" height="230" viewBox="0 0 320 230" role="img" aria-label="B+06 · 三角中截面">
<rect width="320" height="230" fill="#fff"/>
<polygon points="57.0,170.5 263.0,170.5 224.2,209.0" fill="#e9f0f4" fill-opacity="0.45" stroke="none"/>
<polygon points="197.5,21.0 57.0,170.5 263.0,170.5" fill="#edf4ee" fill-opacity="0.45" stroke="none"/>
<polygon points="197.5,21.0 263.0,170.5 224.2,209.0" fill="#f6eee5" fill-opacity="0.45" stroke="none"/>
<polygon points="197.5,21.0 224.2,209.0 57.0,170.5" fill="#f0ecf8" fill-opacity="0.45" stroke="none"/>
<polygon points="127.2,95.7 230.2,95.7 210.9,115.0" fill="#2f9e44" fill-opacity="0.29" stroke="#2f9e44" stroke-width="1.4"/>
<polygon points="57.0,170.5 263.0,170.5 224.2,209.0" fill="#1971c2" fill-opacity="0.11" stroke="#1971c2" stroke-width="1.4"/>
<line x1="57.0" y1="170.5" x2="263.0" y2="170.5" stroke="#111" stroke-width="1.45" stroke-linecap="round"/>
<line x1="263.0" y1="170.5" x2="224.2" y2="209.0" stroke="#111" stroke-width="1.45" stroke-linecap="round"/>
<line x1="224.2" y1="209.0" x2="57.0" y2="170.5" stroke="#111" stroke-width="1.45" stroke-linecap="round"/>
<line x1="197.5" y1="21.0" x2="57.0" y2="170.5" stroke="#111" stroke-width="1.45" stroke-linecap="round"/>
<line x1="197.5" y1="21.0" x2="263.0" y2="170.5" stroke="#111" stroke-width="1.45" stroke-linecap="round"/>
<line x1="197.5" y1="21.0" x2="224.2" y2="209.0" stroke="#111" stroke-width="1.45" stroke-linecap="round"/>
<line x1="127.2" y1="95.7" x2="230.2" y2="95.7" stroke="#c2255c" stroke-width="2.15" stroke-linecap="round" stroke-opacity="0.88"/>
<line x1="230.2" y1="95.7" x2="210.9" y2="115.0" stroke="#c2255c" stroke-width="2.15" stroke-linecap="round" stroke-opacity="0.88"/>
<line x1="210.9" y1="115.0" x2="127.2" y2="95.7" stroke="#c2255c" stroke-width="2.15" stroke-linecap="round" stroke-opacity="0.88"/>
<line x1="197.5" y1="21.0" x2="189.4" y2="102.2" stroke="#d9480f" stroke-width="2.15" stroke-linecap="round" stroke-opacity="0.88"/>
<line x1="189.4" y1="102.2" x2="127.2" y2="95.7" stroke="#2f9e44" stroke-width="2.15" stroke-linecap="round" stroke-opacity="0.78" stroke-dasharray="6 4"/>
<circle cx="57.0" cy="170.5" r="3.4" fill="#111111"/>
<text x="62.5" y="165.0" font-family="Arial, sans-serif" font-size="10.5" font-weight="700" paint-order="stroke" stroke="#fff" stroke-width="3" fill="#111111">A</text>
<text x="62.5" y="165.0" font-family="Arial, sans-serif" font-size="10.5" font-weight="700" fill="#111111">A</text>
<circle cx="263.0" cy="170.5" r="3.4" fill="#111111"/>
<text x="268.5" y="165.0" font-family="Arial, sans-serif" font-size="10.5" font-weight="700" paint-order="stroke" stroke="#fff" stroke-width="3" fill="#111111">B</text>
<text x="268.5" y="165.0" font-family="Arial, sans-serif" font-size="10.5" font-weight="700" fill="#111111">B</text>
<circle cx="224.2" cy="209.0" r="3.4" fill="#111111"/>
<text x="229.7" y="203.5" font-family="Arial, sans-serif" font-size="10.5" font-weight="700" paint-order="stroke" stroke="#fff" stroke-width="3" fill="#111111">C</text>
<text x="229.7" y="203.5" font-family="Arial, sans-serif" font-size="10.5" font-weight="700" fill="#111111">C</text>
<circle cx="197.5" cy="21.0" r="3.4" fill="#111111"/>
<text x="203.0" y="15.5" font-family="Arial, sans-serif" font-size="10.5" font-weight="700" paint-order="stroke" stroke="#fff" stroke-width="3" fill="#111111">S</text>
<text x="203.0" y="15.5" font-family="Arial, sans-serif" font-size="10.5" font-weight="700" fill="#111111">S</text>
<circle cx="127.2" cy="95.7" r="3.4" fill="#d97400"/>
<text x="132.7" y="90.2" font-family="Arial, sans-serif" font-size="10.5" font-weight="700" paint-order="stroke" stroke="#fff" stroke-width="3" fill="#d97400">P</text>
<text x="132.7" y="90.2" font-family="Arial, sans-serif" font-size="10.5" font-weight="700" fill="#d97400">P</text>
<circle cx="230.2" cy="95.7" r="3.4" fill="#d97400"/>
<text x="235.7" y="90.2" font-family="Arial, sans-serif" font-size="10.5" font-weight="700" paint-order="stroke" stroke="#fff" stroke-width="3" fill="#d97400">Q</text>
<text x="235.7" y="90.2" font-family="Arial, sans-serif" font-size="10.5" font-weight="700" fill="#d97400">Q</text>
<circle cx="210.9" cy="115.0" r="3.4" fill="#d97400"/>
<text x="216.4" y="109.5" font-family="Arial, sans-serif" font-size="10.5" font-weight="700" paint-order="stroke" stroke="#fff" stroke-width="3" fill="#d97400">R</text>
<text x="216.4" y="109.5" font-family="Arial, sans-serif" font-size="10.5" font-weight="700" fill="#d97400">R</text>
<circle cx="189.4" cy="102.2" r="3.4" fill="#d97400"/>
<text x="194.9" y="96.7" font-family="Arial, sans-serif" font-size="10.5" font-weight="700" paint-order="stroke" stroke="#fff" stroke-width="3" fill="#d97400">X</text>
<text x="194.9" y="96.7" font-family="Arial, sans-serif" font-size="10.5" font-weight="700" fill="#d97400">X</text>
<text x="10" y="20" font-family="Arial, sans-serif" font-size="12" font-weight="700" paint-order="stroke" stroke="#fff" stroke-width="4" fill="#0b7285">B+ · 4P/5L/2F</text>
</svg>
