<svg xmlns="http://www.w3.org/2000/svg" width="320" height="230" viewBox="0 0 320 230" role="img" aria-label="B+++03 · 双三角截面">
<rect width="320" height="230" fill="#fff"/>
<polygon points="57.0,170.5 263.0,170.5 224.2,209.0" fill="#e9f0f4" fill-opacity="0.45" stroke="none"/>
<polygon points="197.5,21.0 57.0,170.5 263.0,170.5" fill="#edf4ee" fill-opacity="0.45" stroke="none"/>
<polygon points="197.5,21.0 263.0,170.5 224.2,209.0" fill="#f6eee5" fill-opacity="0.45" stroke="none"/>
<polygon points="197.5,21.0 224.2,209.0 57.0,170.5" fill="#f0ecf8" fill-opacity="0.45" stroke="none"/>
<polygon points="207.1,88.7 221.1,74.8 146.9,74.8" fill="#2f9e44" fill-opacity="0.26" stroke="#2f9e44" stroke-width="1.4"/>
<polygon points="216.2,152.6 243.4,125.6 99.2,125.6" fill="#7048e8" fill-opacity="0.24" stroke="#7048e8" stroke-width="1.4"/>
<polygon points="207.1,88.7 221.1,74.8 243.4,125.6 216.2,152.6" fill="#c2255c" fill-opacity="0.15" stroke="#c2255c" stroke-width="1.4" stroke-dasharray="5 4"/>
<polygon points="221.1,74.8 146.9,74.8 99.2,125.6 243.4,125.6" fill="#d9480f" fill-opacity="0.15" stroke="#d9480f" stroke-width="1.4" stroke-dasharray="5 4"/>
<polygon points="146.9,74.8 207.1,88.7 216.2,152.6 99.2,125.6" fill="#1971c2" fill-opacity="0.13" stroke="#1971c2" stroke-width="1.4" stroke-dasharray="5 4"/>
<line x1="57.0" y1="170.5" x2="263.0" y2="170.5" stroke="#111" stroke-width="1.45" stroke-linecap="round"/>
<line x1="263.0" y1="170.5" x2="224.2" y2="209.0" stroke="#111" stroke-width="1.45" stroke-linecap="round"/>
<line x1="224.2" y1="209.0" x2="57.0" y2="170.5" stroke="#111" stroke-width="1.45" stroke-linecap="round"/>
<line x1="197.5" y1="21.0" x2="57.0" y2="170.5" stroke="#111" stroke-width="1.45" stroke-linecap="round"/>
<line x1="197.5" y1="21.0" x2="263.0" y2="170.5" stroke="#111" stroke-width="1.45" stroke-linecap="round"/>
<line x1="197.5" y1="21.0" x2="224.2" y2="209.0" stroke="#111" stroke-width="1.45" stroke-linecap="round"/>
<line x1="207.1" y1="88.7" x2="221.1" y2="74.8" stroke="#c2255c" stroke-width="2.15" stroke-linecap="round" stroke-opacity="0.88"/>
<line x1="221.1" y1="74.8" x2="146.9" y2="74.8" stroke="#c2255c" stroke-width="2.15" stroke-linecap="round" stroke-opacity="0.88"/>
<line x1="146.9" y1="74.8" x2="207.1" y2="88.7" stroke="#c2255c" stroke-width="2.15" stroke-linecap="round" stroke-opacity="0.88"/>
<line x1="216.2" y1="152.6" x2="243.4" y2="125.6" stroke="#7048e8" stroke-width="2.15" stroke-linecap="round" stroke-opacity="0.88"/>
<line x1="243.4" y1="125.6" x2="99.2" y2="125.6" stroke="#7048e8" stroke-width="2.15" stroke-linecap="round" stroke-opacity="0.88"/>
<line x1="99.2" y1="125.6" x2="216.2" y2="152.6" stroke="#7048e8" stroke-width="2.15" stroke-linecap="round" stroke-opacity="0.88"/>
<line x1="207.1" y1="88.7" x2="216.2" y2="152.6" stroke="#d97400" stroke-width="2.15" stroke-linecap="round" stroke-opacity="0.88" stroke-dasharray="6 4"/>
<line x1="221.1" y1="74.8" x2="243.4" y2="125.6" stroke="#d97400" stroke-width="2.15" stroke-linecap="round" stroke-opacity="0.88" stroke-dasharray="6 4"/>
<line x1="146.9" y1="74.8" x2="99.2" y2="125.6" stroke="#d97400" stroke-width="2.15" stroke-linecap="round" stroke-opacity="0.88" stroke-dasharray="6 4"/>
<line x1="191.7" y1="79.5" x2="186.2" y2="134.6" stroke="#d9480f" stroke-width="2.15" stroke-linecap="round" stroke-opacity="0.88"/>
<line x1="197.5" y1="21.0" x2="191.7" y2="79.5" stroke="#c2255c" stroke-width="2.15" stroke-linecap="round" stroke-opacity="0.75" stroke-dasharray="6 4"/>
<circle cx="57.0" cy="170.5" r="3.4" fill="#111111"/>
<text x="62.5" y="165.0" font-family="Arial, sans-serif" font-size="10.5" font-weight="700" paint-order="stroke" stroke="#fff" stroke-width="3" fill="#111111">A</text>
<text x="62.5" y="165.0" font-family="Arial, sans-serif" font-size="10.5" font-weight="700" fill="#111111">A</text>
<circle cx="263.0" cy="170.5" r="3.4" fill="#111111"/>
<text x="268.5" y="165.0" font-family="Arial, sans-serif" font-size="10.5" font-weight="700" paint-order="stroke" stroke="#fff" stroke-width="3" fill="#111111">B</text>
<text x="268.5" y="165.0" font-family="Arial, sans-serif" font-size="10.5" font-weight="700" fill="#111111">B</text>
<circle cx="224.2" cy="209.0" r="3.4" fill="#111111"/>
<text x="229.7" y="203.5" font-family="Arial, sans-serif" font-size="10.5" font-weight="700" paint-order="stroke" stroke="#fff" stroke-width="3" fill="#111111">C</text>
<text x="229.7" y="203.5" font-family="Arial, sans-serif" font-size="10.5" font-weight="700" fill="#111111">C</text>
<circle cx="197.5" cy="21.0" r="3.4" fill="#111111"/>
<text x="203.0" y="15.5" font-family="Arial, sans-serif" font-size="10.5" font-weight="700" paint-order="stroke" stroke="#fff" stroke-width="3" fill="#111111">S</text>
<text x="203.0" y="15.5" font-family="Arial, sans-serif" font-size="10.5" font-weight="700" fill="#111111">S</text>
<circle cx="207.1" cy="88.7" r="3.4" fill="#d97400"/>
<text x="212.6" y="83.2" font-family="Arial, sans-serif" font-size="10.5" font-weight="700" paint-order="stroke" stroke="#fff" stroke-width="3" fill="#d97400">P</text>
<text x="212.6" y="83.2" font-family="Arial, sans-serif" font-size="10.5" font-weight="700" fill="#d97400">P</text>
<circle cx="221.1" cy="74.8" r="3.4" fill="#d97400"/>
<text x="226.6" y="69.3" font-family="Arial, sans-serif" font-size="10.5" font-weight="700" paint-order="stroke" stroke="#fff" stroke-width="3" fill="#d97400">Q</text>
<text x="226.6" y="69.3" font-family="Arial, sans-serif" font-size="10.5" font-weight="700" fill="#d97400">Q</text>
<circle cx="146.9" cy="74.8" r="3.4" fill="#d97400"/>
<text x="152.4" y="69.3" font-family="Arial, sans-serif" font-size="10.5" font-weight="700" paint-order="stroke" stroke="#fff" stroke-width="3" fill="#d97400">R</text>
<text x="152.4" y="69.3" font-family="Arial, sans-serif" font-size="10.5" font-weight="700" fill="#d97400">R</text>
<circle cx="216.2" cy="152.6" r="3.4" fill="#d97400"/>
<text x="221.7" y="147.1" font-family="Arial, sans-serif" font-size="10.5" font-weight="700" paint-order="stroke" stroke="#fff" stroke-width="3" fill="#d97400">U</text>
<text x="221.7" y="147.1" font-family="Arial, sans-serif" font-size="10.5" font-weight="700" fill="#d97400">U</text>
<circle cx="243.4" cy="125.6" r="3.4" fill="#d97400"/>
<text x="248.9" y="120.1" font-family="Arial, sans-serif" font-size="10.5" font-weight="700" paint-order="stroke" stroke="#fff" stroke-width="3" fill="#d97400">V</text>
<text x="248.9" y="120.1" font-family="Arial, sans-serif" font-size="10.5" font-weight="700" fill="#d97400">V</text>
<circle cx="99.2" cy="125.6" r="3.4" fill="#d97400"/>
<text x="104.7" y="120.1" font-family="Arial, sans-serif" font-size="10.5" font-weight="700" paint-order="stroke" stroke="#fff" stroke-width="3" fill="#d97400">W</text>
<text x="104.7" y="120.1" font-family="Arial, sans-serif" font-size="10.5" font-weight="700" fill="#d97400">W</text>
<circle cx="191.7" cy="79.5" r="3.4" fill="#d97400"/>
<text x="197.2" y="74.0" font-family="Arial, sans-serif" font-size="10.5" font-weight="700" paint-order="stroke" stroke="#fff" stroke-width="3" fill="#d97400">X</text>
<text x="197.2" y="74.0" font-family="Arial, sans-serif" font-size="10.5" font-weight="700" fill="#d97400">X</text>
<circle cx="186.2" cy="134.6" r="3.4" fill="#d97400"/>
<text x="191.7" y="129.1" font-family="Arial, sans-serif" font-size="10.5" font-weight="700" paint-order="stroke" stroke="#fff" stroke-width="3" fill="#d97400">Y</text>
<text x="191.7" y="129.1" font-family="Arial, sans-serif" font-size="10.5" font-weight="700" fill="#d97400">Y</text>
<text x="10" y="20" font-family="Arial, sans-serif" font-size="12" font-weight="700" paint-order="stroke" stroke="#fff" stroke-width="4" fill="#0b7285">B+++ · 8P/11L/5F</text>
</svg>
