<svg xmlns="http://www.w3.org/2000/svg" width="320" height="230" viewBox="0 0 320 230" role="img" aria-label="B02 · 高线到底心">
<rect width="320" height="230" fill="#fff"/>
<polygon points="34.5,173.1 219.2,173.1 285.5,209.0 100.8,209.0" fill="#e9f0f4" fill-opacity="0.45" stroke="none"/>
<polygon points="145.8,21.0 34.5,173.1 219.2,173.1" fill="#edf4ee" fill-opacity="0.45" stroke="none"/>
<polygon points="145.8,21.0 219.2,173.1 285.5,209.0" fill="#f6eee5" fill-opacity="0.45" stroke="none"/>
<polygon points="145.8,21.0 285.5,209.0 100.8,209.0" fill="#f0ecf8" fill-opacity="0.45" stroke="none"/>
<polygon points="145.8,21.0 100.8,209.0 34.5,173.1" fill="#eef0f3" fill-opacity="0.45" stroke="none"/>
<polygon points="219.2,173.1 285.5,209.0 100.8,209.0 34.5,173.1" fill="#1971c2" fill-opacity="0.18" stroke="#1971c2" stroke-width="1.4"/>
<line x1="34.5" y1="173.1" x2="219.2" y2="173.1" stroke="#111" stroke-width="1.45" stroke-linecap="round"/>
<line x1="219.2" y1="173.1" x2="285.5" y2="209.0" stroke="#111" stroke-width="1.45" stroke-linecap="round"/>
<line x1="285.5" y1="209.0" x2="100.8" y2="209.0" stroke="#111" stroke-width="1.45" stroke-linecap="round"/>
<line x1="100.8" y1="209.0" x2="34.5" y2="173.1" stroke="#111" stroke-width="1.45" stroke-linecap="round"/>
<line x1="145.8" y1="21.0" x2="34.5" y2="173.1" stroke="#111" stroke-width="1.45" stroke-linecap="round"/>
<line x1="145.8" y1="21.0" x2="219.2" y2="173.1" stroke="#111" stroke-width="1.45" stroke-linecap="round"/>
<line x1="145.8" y1="21.0" x2="285.5" y2="209.0" stroke="#111" stroke-width="1.45" stroke-linecap="round"/>
<line x1="145.8" y1="21.0" x2="100.8" y2="209.0" stroke="#111" stroke-width="1.45" stroke-linecap="round"/>
<line x1="145.8" y1="21.0" x2="160.0" y2="191.0" stroke="#c2255c" stroke-width="2.15" stroke-linecap="round" stroke-opacity="0.88"/>
<line x1="219.2" y1="173.1" x2="100.8" y2="209.0" stroke="#d97400" stroke-width="2.15" stroke-linecap="round" stroke-opacity="0.88" stroke-dasharray="6 4"/>
<line x1="285.5" y1="209.0" x2="34.5" y2="173.1" stroke="#d97400" stroke-width="2.15" stroke-linecap="round" stroke-opacity="0.88" stroke-dasharray="6 4"/>
<line x1="160.0" y1="191.0" x2="219.2" y2="173.1" stroke="#d97400" stroke-width="2.15" stroke-linecap="round" stroke-opacity="0.76"/>
<circle cx="34.5" cy="173.1" r="3.4" fill="#111111"/>
<text x="40.0" y="167.6" font-family="Arial, sans-serif" font-size="10.5" font-weight="700" paint-order="stroke" stroke="#fff" stroke-width="3" fill="#111111">A</text>
<text x="40.0" y="167.6" font-family="Arial, sans-serif" font-size="10.5" font-weight="700" fill="#111111">A</text>
<circle cx="219.2" cy="173.1" r="3.4" fill="#111111"/>
<text x="224.7" y="167.6" font-family="Arial, sans-serif" font-size="10.5" font-weight="700" paint-order="stroke" stroke="#fff" stroke-width="3" fill="#111111">B</text>
<text x="224.7" y="167.6" font-family="Arial, sans-serif" font-size="10.5" font-weight="700" fill="#111111">B</text>
<circle cx="285.5" cy="209.0" r="3.4" fill="#111111"/>
<text x="291.0" y="203.5" font-family="Arial, sans-serif" font-size="10.5" font-weight="700" paint-order="stroke" stroke="#fff" stroke-width="3" fill="#111111">C</text>
<text x="291.0" y="203.5" font-family="Arial, sans-serif" font-size="10.5" font-weight="700" fill="#111111">C</text>
<circle cx="100.8" cy="209.0" r="3.4" fill="#111111"/>
<text x="106.3" y="203.5" font-family="Arial, sans-serif" font-size="10.5" font-weight="700" paint-order="stroke" stroke="#fff" stroke-width="3" fill="#111111">D</text>
<text x="106.3" y="203.5" font-family="Arial, sans-serif" font-size="10.5" font-weight="700" fill="#111111">D</text>
<circle cx="145.8" cy="21.0" r="3.4" fill="#111111"/>
<text x="151.3" y="15.5" font-family="Arial, sans-serif" font-size="10.5" font-weight="700" paint-order="stroke" stroke="#fff" stroke-width="3" fill="#111111">S</text>
<text x="151.3" y="15.5" font-family="Arial, sans-serif" font-size="10.5" font-weight="700" fill="#111111">S</text>
<circle cx="160.0" cy="191.0" r="3.4" fill="#d97400"/>
<text x="165.5" y="185.5" font-family="Arial, sans-serif" font-size="10.5" font-weight="700" paint-order="stroke" stroke="#fff" stroke-width="3" fill="#d97400">O</text>
<text x="165.5" y="185.5" font-family="Arial, sans-serif" font-size="10.5" font-weight="700" fill="#d97400">O</text>
<text x="10" y="20" font-family="Arial, sans-serif" font-size="12" font-weight="700" paint-order="stroke" stroke="#fff" stroke-width="4" fill="#0b7285">B · 1P/4L/1F</text>
</svg>
