<svg xmlns="http://www.w3.org/2000/svg" width="320" height="230" viewBox="0 0 320 230" role="img" aria-label="B+04 · 中位截面">
<rect width="320" height="230" fill="#fff"/>
<polygon points="34.5,173.1 219.2,173.1 285.5,209.0 100.8,209.0" fill="#e9f0f4" fill-opacity="0.45" stroke="none"/>
<polygon points="145.8,21.0 34.5,173.1 219.2,173.1" fill="#edf4ee" fill-opacity="0.45" stroke="none"/>
<polygon points="145.8,21.0 219.2,173.1 285.5,209.0" fill="#f6eee5" fill-opacity="0.45" stroke="none"/>
<polygon points="145.8,21.0 285.5,209.0 100.8,209.0" fill="#f0ecf8" fill-opacity="0.45" stroke="none"/>
<polygon points="145.8,21.0 100.8,209.0 34.5,173.1" fill="#eef0f3" fill-opacity="0.45" stroke="none"/>
<polygon points="90.2,97.0 123.3,115.0 215.7,115.0 182.5,97.0" fill="#2f9e44" fill-opacity="0.29" stroke="#2f9e44" stroke-width="1.4"/>
<polygon points="34.5,173.1 100.8,209.0 285.5,209.0 219.2,173.1" fill="#1971c2" fill-opacity="0.11" stroke="#1971c2" stroke-width="1.4"/>
<line x1="34.5" y1="173.1" x2="219.2" y2="173.1" stroke="#111" stroke-width="1.45" stroke-linecap="round"/>
<line x1="219.2" y1="173.1" x2="285.5" y2="209.0" stroke="#111" stroke-width="1.45" stroke-linecap="round"/>
<line x1="285.5" y1="209.0" x2="100.8" y2="209.0" stroke="#111" stroke-width="1.45" stroke-linecap="round"/>
<line x1="100.8" y1="209.0" x2="34.5" y2="173.1" stroke="#111" stroke-width="1.45" stroke-linecap="round"/>
<line x1="145.8" y1="21.0" x2="34.5" y2="173.1" stroke="#111" stroke-width="1.45" stroke-linecap="round"/>
<line x1="145.8" y1="21.0" x2="219.2" y2="173.1" stroke="#111" stroke-width="1.45" stroke-linecap="round"/>
<line x1="145.8" y1="21.0" x2="285.5" y2="209.0" stroke="#111" stroke-width="1.45" stroke-linecap="round"/>
<line x1="145.8" y1="21.0" x2="100.8" y2="209.0" stroke="#111" stroke-width="1.45" stroke-linecap="round"/>
<line x1="90.2" y1="97.0" x2="215.7" y2="115.0" stroke="#c2255c" stroke-width="2.15" stroke-linecap="round" stroke-opacity="0.88"/>
<line x1="123.3" y1="115.0" x2="182.5" y2="97.0" stroke="#c2255c" stroke-width="2.15" stroke-linecap="round" stroke-opacity="0.88"/>
<line x1="145.8" y1="21.0" x2="152.9" y2="106.0" stroke="#d9480f" stroke-width="2.15" stroke-linecap="round" stroke-opacity="0.88"/>
<line x1="145.8" y1="21.0" x2="34.5" y2="173.1" stroke="#111111" stroke-width="1.45" stroke-linecap="round" stroke-opacity="0.32" stroke-dasharray="6 4"/>
<line x1="145.8" y1="21.0" x2="285.5" y2="209.0" stroke="#111111" stroke-width="1.45" stroke-linecap="round" stroke-opacity="0.32" stroke-dasharray="6 4"/>
<line x1="152.9" y1="106.0" x2="215.7" y2="115.0" stroke="#2f9e44" stroke-width="2.15" stroke-linecap="round" stroke-opacity="0.78" stroke-dasharray="6 4"/>
<circle cx="34.5" cy="173.1" r="3.4" fill="#111111"/>
<text x="40.0" y="167.6" font-family="Arial, sans-serif" font-size="10.5" font-weight="700" paint-order="stroke" stroke="#fff" stroke-width="3" fill="#111111">A</text>
<text x="40.0" y="167.6" font-family="Arial, sans-serif" font-size="10.5" font-weight="700" fill="#111111">A</text>
<circle cx="219.2" cy="173.1" r="3.4" fill="#111111"/>
<text x="224.7" y="167.6" font-family="Arial, sans-serif" font-size="10.5" font-weight="700" paint-order="stroke" stroke="#fff" stroke-width="3" fill="#111111">B</text>
<text x="224.7" y="167.6" font-family="Arial, sans-serif" font-size="10.5" font-weight="700" fill="#111111">B</text>
<circle cx="285.5" cy="209.0" r="3.4" fill="#111111"/>
<text x="291.0" y="203.5" font-family="Arial, sans-serif" font-size="10.5" font-weight="700" paint-order="stroke" stroke="#fff" stroke-width="3" fill="#111111">C</text>
<text x="291.0" y="203.5" font-family="Arial, sans-serif" font-size="10.5" font-weight="700" fill="#111111">C</text>
<circle cx="100.8" cy="209.0" r="3.4" fill="#111111"/>
<text x="106.3" y="203.5" font-family="Arial, sans-serif" font-size="10.5" font-weight="700" paint-order="stroke" stroke="#fff" stroke-width="3" fill="#111111">D</text>
<text x="106.3" y="203.5" font-family="Arial, sans-serif" font-size="10.5" font-weight="700" fill="#111111">D</text>
<circle cx="145.8" cy="21.0" r="3.4" fill="#111111"/>
<text x="151.3" y="15.5" font-family="Arial, sans-serif" font-size="10.5" font-weight="700" paint-order="stroke" stroke="#fff" stroke-width="3" fill="#111111">S</text>
<text x="151.3" y="15.5" font-family="Arial, sans-serif" font-size="10.5" font-weight="700" fill="#111111">S</text>
<circle cx="90.2" cy="97.0" r="3.4" fill="#d97400"/>
<text x="95.7" y="91.5" font-family="Arial, sans-serif" font-size="10.5" font-weight="700" paint-order="stroke" stroke="#fff" stroke-width="3" fill="#d97400">P</text>
<text x="95.7" y="91.5" font-family="Arial, sans-serif" font-size="10.5" font-weight="700" fill="#d97400">P</text>
<circle cx="123.3" cy="115.0" r="3.4" fill="#d97400"/>
<text x="128.8" y="109.5" font-family="Arial, sans-serif" font-size="10.5" font-weight="700" paint-order="stroke" stroke="#fff" stroke-width="3" fill="#d97400">Q</text>
<text x="128.8" y="109.5" font-family="Arial, sans-serif" font-size="10.5" font-weight="700" fill="#d97400">Q</text>
<circle cx="215.7" cy="115.0" r="3.4" fill="#d97400"/>
<text x="221.2" y="109.5" font-family="Arial, sans-serif" font-size="10.5" font-weight="700" paint-order="stroke" stroke="#fff" stroke-width="3" fill="#d97400">R</text>
<text x="221.2" y="109.5" font-family="Arial, sans-serif" font-size="10.5" font-weight="700" fill="#d97400">R</text>
<circle cx="182.5" cy="97.0" r="3.4" fill="#d97400"/>
<text x="188.0" y="91.5" font-family="Arial, sans-serif" font-size="10.5" font-weight="700" paint-order="stroke" stroke="#fff" stroke-width="3" fill="#d97400">T</text>
<text x="188.0" y="91.5" font-family="Arial, sans-serif" font-size="10.5" font-weight="700" fill="#d97400">T</text>
<circle cx="152.9" cy="106.0" r="3.4" fill="#d97400"/>
<text x="158.4" y="100.5" font-family="Arial, sans-serif" font-size="10.5" font-weight="700" paint-order="stroke" stroke="#fff" stroke-width="3" fill="#d97400">X</text>
<text x="158.4" y="100.5" font-family="Arial, sans-serif" font-size="10.5" font-weight="700" fill="#d97400">X</text>
<text x="10" y="20" font-family="Arial, sans-serif" font-size="12" font-weight="700" paint-order="stroke" stroke="#fff" stroke-width="4" fill="#0b7285">B+ · 5P/6L/2F</text>
</svg>
