<svg xmlns="http://www.w3.org/2000/svg" width="320" height="230" viewBox="0 0 320 230" role="img" aria-label="B+++06 · 双截面轴格">
<rect width="320" height="230" fill="#fff"/>
<polygon points="34.5,173.1 219.2,173.1 285.5,209.0 100.8,209.0" fill="#e9f0f4" fill-opacity="0.45" stroke="none"/>
<polygon points="145.8,21.0 34.5,173.1 219.2,173.1" fill="#edf4ee" fill-opacity="0.45" stroke="none"/>
<polygon points="145.8,21.0 219.2,173.1 285.5,209.0" fill="#f6eee5" fill-opacity="0.45" stroke="none"/>
<polygon points="145.8,21.0 285.5,209.0 100.8,209.0" fill="#f0ecf8" fill-opacity="0.45" stroke="none"/>
<polygon points="145.8,21.0 100.8,209.0 34.5,173.1" fill="#eef0f3" fill-opacity="0.45" stroke="none"/>
<polygon points="108.0,72.7 170.8,72.7 193.3,84.9 130.6,84.9" fill="#2f9e44" fill-opacity="0.26" stroke="#2f9e44" stroke-width="1.4"/>
<polygon points="70.1,124.4 195.7,124.4 240.8,148.8 115.2,148.8" fill="#7048e8" fill-opacity="0.24" stroke="#7048e8" stroke-width="1.4"/>
<polygon points="108.0,72.7 193.3,84.9 240.8,148.8 70.1,124.4" fill="#c2255c" fill-opacity="0.15" stroke="#c2255c" stroke-width="1.4" stroke-dasharray="5 4"/>
<polygon points="170.8,72.7 130.6,84.9 115.2,148.8 195.7,124.4" fill="#d9480f" fill-opacity="0.15" stroke="#d9480f" stroke-width="1.4" stroke-dasharray="5 4"/>
<polygon points="34.5,173.1 219.2,173.1 285.5,209.0 100.8,209.0" fill="#1971c2" fill-opacity="0.09" stroke="#1971c2" stroke-width="1.4"/>
<line x1="34.5" y1="173.1" x2="219.2" y2="173.1" stroke="#111" stroke-width="1.45" stroke-linecap="round"/>
<line x1="219.2" y1="173.1" x2="285.5" y2="209.0" stroke="#111" stroke-width="1.45" stroke-linecap="round"/>
<line x1="285.5" y1="209.0" x2="100.8" y2="209.0" stroke="#111" stroke-width="1.45" stroke-linecap="round"/>
<line x1="100.8" y1="209.0" x2="34.5" y2="173.1" stroke="#111" stroke-width="1.45" stroke-linecap="round"/>
<line x1="145.8" y1="21.0" x2="34.5" y2="173.1" stroke="#111" stroke-width="1.45" stroke-linecap="round"/>
<line x1="145.8" y1="21.0" x2="219.2" y2="173.1" stroke="#111" stroke-width="1.45" stroke-linecap="round"/>
<line x1="145.8" y1="21.0" x2="285.5" y2="209.0" stroke="#111" stroke-width="1.45" stroke-linecap="round"/>
<line x1="145.8" y1="21.0" x2="100.8" y2="209.0" stroke="#111" stroke-width="1.45" stroke-linecap="round"/>
<line x1="108.0" y1="72.7" x2="193.3" y2="84.9" stroke="#c2255c" stroke-width="2.15" stroke-linecap="round" stroke-opacity="0.88"/>
<line x1="170.8" y1="72.7" x2="130.6" y2="84.9" stroke="#c2255c" stroke-width="2.15" stroke-linecap="round" stroke-opacity="0.88"/>
<line x1="70.1" y1="124.4" x2="240.8" y2="148.8" stroke="#7048e8" stroke-width="2.15" stroke-linecap="round" stroke-opacity="0.88"/>
<line x1="195.7" y1="124.4" x2="115.2" y2="148.8" stroke="#7048e8" stroke-width="2.15" stroke-linecap="round" stroke-opacity="0.88"/>
<line x1="150.7" y1="78.8" x2="155.4" y2="136.6" stroke="#d9480f" stroke-width="2.15" stroke-linecap="round" stroke-opacity="0.88"/>
<line x1="108.0" y1="72.7" x2="70.1" y2="124.4" stroke="#d97400" stroke-width="2.15" stroke-linecap="round" stroke-opacity="0.88" stroke-dasharray="6 4"/>
<line x1="170.8" y1="72.7" x2="195.7" y2="124.4" stroke="#d97400" stroke-width="2.15" stroke-linecap="round" stroke-opacity="0.88" stroke-dasharray="6 4"/>
<line x1="193.3" y1="84.9" x2="240.8" y2="148.8" stroke="#d97400" stroke-width="2.15" stroke-linecap="round" stroke-opacity="0.88" stroke-dasharray="6 4"/>
<line x1="130.6" y1="84.9" x2="115.2" y2="148.8" stroke="#d97400" stroke-width="2.15" stroke-linecap="round" stroke-opacity="0.88" stroke-dasharray="6 4"/>
<line x1="145.8" y1="21.0" x2="150.7" y2="78.8" stroke="#c2255c" stroke-width="2.15" stroke-linecap="round" stroke-opacity="0.75" stroke-dasharray="6 4"/>
<line x1="155.4" y1="136.6" x2="70.1" y2="124.4" stroke="#2f9e44" stroke-width="2.15" stroke-linecap="round" stroke-opacity="0.75" stroke-dasharray="6 4"/>
<circle cx="34.5" cy="173.1" r="3.4" fill="#111111"/>
<text x="40.0" y="167.6" font-family="Arial, sans-serif" font-size="10.5" font-weight="700" paint-order="stroke" stroke="#fff" stroke-width="3" fill="#111111">A</text>
<text x="40.0" y="167.6" font-family="Arial, sans-serif" font-size="10.5" font-weight="700" fill="#111111">A</text>
<circle cx="219.2" cy="173.1" r="3.4" fill="#111111"/>
<text x="224.7" y="167.6" font-family="Arial, sans-serif" font-size="10.5" font-weight="700" paint-order="stroke" stroke="#fff" stroke-width="3" fill="#111111">B</text>
<text x="224.7" y="167.6" font-family="Arial, sans-serif" font-size="10.5" font-weight="700" fill="#111111">B</text>
<circle cx="285.5" cy="209.0" r="3.4" fill="#111111"/>
<text x="291.0" y="203.5" font-family="Arial, sans-serif" font-size="10.5" font-weight="700" paint-order="stroke" stroke="#fff" stroke-width="3" fill="#111111">C</text>
<text x="291.0" y="203.5" font-family="Arial, sans-serif" font-size="10.5" font-weight="700" fill="#111111">C</text>
<circle cx="100.8" cy="209.0" r="3.4" fill="#111111"/>
<text x="106.3" y="203.5" font-family="Arial, sans-serif" font-size="10.5" font-weight="700" paint-order="stroke" stroke="#fff" stroke-width="3" fill="#111111">D</text>
<text x="106.3" y="203.5" font-family="Arial, sans-serif" font-size="10.5" font-weight="700" fill="#111111">D</text>
<circle cx="145.8" cy="21.0" r="3.4" fill="#111111"/>
<text x="151.3" y="15.5" font-family="Arial, sans-serif" font-size="10.5" font-weight="700" paint-order="stroke" stroke="#fff" stroke-width="3" fill="#111111">S</text>
<text x="151.3" y="15.5" font-family="Arial, sans-serif" font-size="10.5" font-weight="700" fill="#111111">S</text>
<circle cx="108.0" cy="72.7" r="3.4" fill="#d97400"/>
<text x="113.5" y="67.2" font-family="Arial, sans-serif" font-size="10.5" font-weight="700" paint-order="stroke" stroke="#fff" stroke-width="3" fill="#d97400">P</text>
<text x="113.5" y="67.2" font-family="Arial, sans-serif" font-size="10.5" font-weight="700" fill="#d97400">P</text>
<circle cx="170.8" cy="72.7" r="3.4" fill="#d97400"/>
<text x="176.3" y="67.2" font-family="Arial, sans-serif" font-size="10.5" font-weight="700" paint-order="stroke" stroke="#fff" stroke-width="3" fill="#d97400">Q</text>
<text x="176.3" y="67.2" font-family="Arial, sans-serif" font-size="10.5" font-weight="700" fill="#d97400">Q</text>
<circle cx="193.3" cy="84.9" r="3.4" fill="#d97400"/>
<text x="198.8" y="79.4" font-family="Arial, sans-serif" font-size="10.5" font-weight="700" paint-order="stroke" stroke="#fff" stroke-width="3" fill="#d97400">R</text>
<text x="198.8" y="79.4" font-family="Arial, sans-serif" font-size="10.5" font-weight="700" fill="#d97400">R</text>
<circle cx="130.6" cy="84.9" r="3.4" fill="#d97400"/>
<text x="136.1" y="79.4" font-family="Arial, sans-serif" font-size="10.5" font-weight="700" paint-order="stroke" stroke="#fff" stroke-width="3" fill="#d97400">T</text>
<text x="136.1" y="79.4" font-family="Arial, sans-serif" font-size="10.5" font-weight="700" fill="#d97400">T</text>
<circle cx="70.1" cy="124.4" r="3.4" fill="#d97400"/>
<text x="75.6" y="118.9" font-family="Arial, sans-serif" font-size="10.5" font-weight="700" paint-order="stroke" stroke="#fff" stroke-width="3" fill="#d97400">U</text>
<text x="75.6" y="118.9" font-family="Arial, sans-serif" font-size="10.5" font-weight="700" fill="#d97400">U</text>
<circle cx="195.7" cy="124.4" r="3.4" fill="#d97400"/>
<text x="201.2" y="118.9" font-family="Arial, sans-serif" font-size="10.5" font-weight="700" paint-order="stroke" stroke="#fff" stroke-width="3" fill="#d97400">V</text>
<text x="201.2" y="118.9" font-family="Arial, sans-serif" font-size="10.5" font-weight="700" fill="#d97400">V</text>
<circle cx="240.8" cy="148.8" r="3.4" fill="#d97400"/>
<text x="246.3" y="143.3" font-family="Arial, sans-serif" font-size="10.5" font-weight="700" paint-order="stroke" stroke="#fff" stroke-width="3" fill="#d97400">W</text>
<text x="246.3" y="143.3" font-family="Arial, sans-serif" font-size="10.5" font-weight="700" fill="#d97400">W</text>
<circle cx="150.7" cy="78.8" r="3.4" fill="#d97400"/>
<text x="156.2" y="73.3" font-family="Arial, sans-serif" font-size="10.5" font-weight="700" paint-order="stroke" stroke="#fff" stroke-width="3" fill="#d97400">X</text>
<text x="156.2" y="73.3" font-family="Arial, sans-serif" font-size="10.5" font-weight="700" fill="#d97400">X</text>
<circle cx="155.4" cy="136.6" r="3.4" fill="#d97400"/>
<text x="160.9" y="131.1" font-family="Arial, sans-serif" font-size="10.5" font-weight="700" paint-order="stroke" stroke="#fff" stroke-width="3" fill="#d97400">Y</text>
<text x="160.9" y="131.1" font-family="Arial, sans-serif" font-size="10.5" font-weight="700" fill="#d97400">Y</text>
<circle cx="115.2" cy="148.8" r="3.4" fill="#d97400"/>
<text x="120.7" y="143.3" font-family="Arial, sans-serif" font-size="10.5" font-weight="700" paint-order="stroke" stroke="#fff" stroke-width="3" fill="#d97400">Z</text>
<text x="120.7" y="143.3" font-family="Arial, sans-serif" font-size="10.5" font-weight="700" fill="#d97400">Z</text>
<text x="10" y="20" font-family="Arial, sans-serif" font-size="12" font-weight="700" paint-order="stroke" stroke="#fff" stroke-width="4" fill="#0b7285">B+++ · 10P/11L/5F</text>
</svg>
