<svg xmlns="http://www.w3.org/2000/svg" width="360" height="260" viewBox="0 0 360 260" role="img" aria-label="base_070 · 三棱柱 #10">
<rect width="360" height="260" fill="#ffffff"/>
<polygon points="77.7,199.3 285.7,199.3 262.1,239.0" fill="#dcecf2" fill-opacity="0.62" stroke="none"/>
<polygon points="74.3,21.0 282.3,21.0 258.8,60.7" fill="#e8f3eb" fill-opacity="0.62" stroke="none"/>
<polygon points="77.7,199.3 285.7,199.3 282.3,21.0 74.3,21.0" fill="#f6eadf" fill-opacity="0.62" stroke="none"/>
<polygon points="285.7,199.3 262.1,239.0 258.8,60.7 282.3,21.0" fill="#eee8f6" fill-opacity="0.62" stroke="none"/>
<polygon points="262.1,239.0 77.7,199.3 74.3,21.0 258.8,60.7" fill="#eef0f3" fill-opacity="0.62" stroke="none"/>
<line x1="77.7" y1="199.3" x2="285.7" y2="199.3" stroke="#111" stroke-width="1.7" stroke-linecap="round"/>
<line x1="285.7" y1="199.3" x2="262.1" y2="239.0" stroke="#111" stroke-width="1.7" stroke-linecap="round"/>
<line x1="262.1" y1="239.0" x2="77.7" y2="199.3" stroke="#111" stroke-width="1.7" stroke-linecap="round"/>
<line x1="74.3" y1="21.0" x2="282.3" y2="21.0" stroke="#111" stroke-width="1.7" stroke-linecap="round"/>
<line x1="282.3" y1="21.0" x2="258.8" y2="60.7" stroke="#111" stroke-width="1.7" stroke-linecap="round"/>
<line x1="258.8" y1="60.7" x2="74.3" y2="21.0" stroke="#111" stroke-width="1.7" stroke-linecap="round"/>
<line x1="77.7" y1="199.3" x2="74.3" y2="21.0" stroke="#111" stroke-width="1.7" stroke-linecap="round"/>
<line x1="285.7" y1="199.3" x2="282.3" y2="21.0" stroke="#111" stroke-width="1.7" stroke-linecap="round"/>
<line x1="262.1" y1="239.0" x2="258.8" y2="60.7" stroke="#111" stroke-width="1.7" stroke-linecap="round"/>
<circle cx="77.7" cy="199.3" r="3.2" fill="#d97400"/>
<text x="82.7" y="194.3" font-family="Arial, sans-serif" font-size="11" font-weight="700" fill="#111">A</text>
<circle cx="285.7" cy="199.3" r="3.2" fill="#d97400"/>
<text x="290.7" y="194.3" font-family="Arial, sans-serif" font-size="11" font-weight="700" fill="#111">B</text>
<circle cx="262.1" cy="239.0" r="3.2" fill="#d97400"/>
<text x="267.1" y="234.0" font-family="Arial, sans-serif" font-size="11" font-weight="700" fill="#111">C</text>
<circle cx="74.3" cy="21.0" r="3.2" fill="#d97400"/>
<text x="79.3" y="16.0" font-family="Arial, sans-serif" font-size="11" font-weight="700" fill="#111">A1</text>
<circle cx="282.3" cy="21.0" r="3.2" fill="#d97400"/>
<text x="287.3" y="16.0" font-family="Arial, sans-serif" font-size="11" font-weight="700" fill="#111">B1</text>
<circle cx="258.8" cy="60.7" r="3.2" fill="#d97400"/>
<text x="263.8" y="55.7" font-family="Arial, sans-serif" font-size="11" font-weight="700" fill="#111">C1</text>
</svg>
