<svg xmlns="http://www.w3.org/2000/svg" width="360" height="260" viewBox="0 0 360 260" role="img" aria-label="base_009 · 四棱锥 #09">
<rect width="360" height="260" fill="#ffffff"/>
<polygon points="55.6,199.7 231.9,199.7 304.4,239.0 128.1,239.0" fill="#dcecf2" fill-opacity="0.62" stroke="none"/>
<polygon points="186.4,21.0 55.6,199.7 231.9,199.7" fill="#e8f3eb" fill-opacity="0.62" stroke="none"/>
<polygon points="186.4,21.0 231.9,199.7 304.4,239.0" fill="#f6eadf" fill-opacity="0.62" stroke="none"/>
<polygon points="186.4,21.0 304.4,239.0 128.1,239.0" fill="#eee8f6" fill-opacity="0.62" stroke="none"/>
<polygon points="186.4,21.0 128.1,239.0 55.6,199.7" fill="#eef0f3" fill-opacity="0.62" stroke="none"/>
<line x1="55.6" y1="199.7" x2="231.9" y2="199.7" stroke="#111" stroke-width="1.7" stroke-linecap="round"/>
<line x1="231.9" y1="199.7" x2="304.4" y2="239.0" stroke="#111" stroke-width="1.7" stroke-linecap="round"/>
<line x1="304.4" y1="239.0" x2="128.1" y2="239.0" stroke="#111" stroke-width="1.7" stroke-linecap="round"/>
<line x1="128.1" y1="239.0" x2="55.6" y2="199.7" stroke="#111" stroke-width="1.7" stroke-linecap="round"/>
<line x1="186.4" y1="21.0" x2="55.6" y2="199.7" stroke="#111" stroke-width="1.7" stroke-linecap="round"/>
<line x1="186.4" y1="21.0" x2="231.9" y2="199.7" stroke="#111" stroke-width="1.7" stroke-linecap="round"/>
<line x1="186.4" y1="21.0" x2="304.4" y2="239.0" stroke="#111" stroke-width="1.7" stroke-linecap="round"/>
<line x1="186.4" y1="21.0" x2="128.1" y2="239.0" stroke="#111" stroke-width="1.7" stroke-linecap="round"/>
<circle cx="55.6" cy="199.7" r="3.2" fill="#d97400"/>
<text x="60.6" y="194.7" font-family="Arial, sans-serif" font-size="11" font-weight="700" fill="#111">A</text>
<circle cx="231.9" cy="199.7" r="3.2" fill="#d97400"/>
<text x="236.9" y="194.7" font-family="Arial, sans-serif" font-size="11" font-weight="700" fill="#111">B</text>
<circle cx="304.4" cy="239.0" r="3.2" fill="#d97400"/>
<text x="309.4" y="234.0" font-family="Arial, sans-serif" font-size="11" font-weight="700" fill="#111">C</text>
<circle cx="128.1" cy="239.0" r="3.2" fill="#d97400"/>
<text x="133.1" y="234.0" font-family="Arial, sans-serif" font-size="11" font-weight="700" fill="#111">D</text>
<circle cx="186.4" cy="21.0" r="3.2" fill="#d97400"/>
<text x="191.4" y="16.0" font-family="Arial, sans-serif" font-size="11" font-weight="700" fill="#111">S</text>
</svg>
