<svg xmlns="http://www.w3.org/2000/svg" width="360" height="260" viewBox="0 0 360 260" role="img" aria-label="base_050 · 斜四棱柱 #10">
<rect width="360" height="260" fill="#ffffff"/>
<polygon points="47.5,207.6 230.1,207.6 288.0,239.0 105.3,239.0" fill="#dcecf2" fill-opacity="0.62" stroke="none"/>
<polygon points="72.0,21.0 254.7,21.0 312.5,52.4 129.9,52.4" fill="#e8f3eb" fill-opacity="0.62" stroke="none"/>
<polygon points="47.5,207.6 230.1,207.6 254.7,21.0 72.0,21.0" fill="#f6eadf" fill-opacity="0.62" stroke="none"/>
<polygon points="230.1,207.6 288.0,239.0 312.5,52.4 254.7,21.0" fill="#eee8f6" fill-opacity="0.62" stroke="none"/>
<polygon points="288.0,239.0 105.3,239.0 129.9,52.4 312.5,52.4" fill="#eef0f3" fill-opacity="0.62" stroke="none"/>
<polygon points="105.3,239.0 47.5,207.6 72.0,21.0 129.9,52.4" fill="#dcecf2" fill-opacity="0.62" stroke="none"/>
<line x1="47.5" y1="207.6" x2="230.1" y2="207.6" stroke="#111" stroke-width="1.7" stroke-linecap="round"/>
<line x1="230.1" y1="207.6" x2="288.0" y2="239.0" stroke="#111" stroke-width="1.7" stroke-linecap="round"/>
<line x1="288.0" y1="239.0" x2="105.3" y2="239.0" stroke="#111" stroke-width="1.7" stroke-linecap="round"/>
<line x1="105.3" y1="239.0" x2="47.5" y2="207.6" stroke="#111" stroke-width="1.7" stroke-linecap="round"/>
<line x1="72.0" y1="21.0" x2="254.7" y2="21.0" stroke="#111" stroke-width="1.7" stroke-linecap="round"/>
<line x1="254.7" y1="21.0" x2="312.5" y2="52.4" stroke="#111" stroke-width="1.7" stroke-linecap="round"/>
<line x1="312.5" y1="52.4" x2="129.9" y2="52.4" stroke="#111" stroke-width="1.7" stroke-linecap="round"/>
<line x1="129.9" y1="52.4" x2="72.0" y2="21.0" stroke="#111" stroke-width="1.7" stroke-linecap="round"/>
<line x1="47.5" y1="207.6" x2="72.0" y2="21.0" stroke="#111" stroke-width="1.7" stroke-linecap="round"/>
<line x1="230.1" y1="207.6" x2="254.7" y2="21.0" stroke="#111" stroke-width="1.7" stroke-linecap="round"/>
<line x1="288.0" y1="239.0" x2="312.5" y2="52.4" stroke="#111" stroke-width="1.7" stroke-linecap="round"/>
<line x1="105.3" y1="239.0" x2="129.9" y2="52.4" stroke="#111" stroke-width="1.7" stroke-linecap="round"/>
<circle cx="47.5" cy="207.6" r="3.2" fill="#d97400"/>
<text x="52.5" y="202.6" font-family="Arial, sans-serif" font-size="11" font-weight="700" fill="#111">A</text>
<circle cx="230.1" cy="207.6" r="3.2" fill="#d97400"/>
<text x="235.1" y="202.6" font-family="Arial, sans-serif" font-size="11" font-weight="700" fill="#111">B</text>
<circle cx="288.0" cy="239.0" r="3.2" fill="#d97400"/>
<text x="293.0" y="234.0" font-family="Arial, sans-serif" font-size="11" font-weight="700" fill="#111">C</text>
<circle cx="105.3" cy="239.0" r="3.2" fill="#d97400"/>
<text x="110.3" y="234.0" font-family="Arial, sans-serif" font-size="11" font-weight="700" fill="#111">D</text>
<circle cx="72.0" cy="21.0" r="3.2" fill="#d97400"/>
<text x="77.0" y="16.0" font-family="Arial, sans-serif" font-size="11" font-weight="700" fill="#111">A1</text>
<circle cx="254.7" cy="21.0" r="3.2" fill="#d97400"/>
<text x="259.7" y="16.0" font-family="Arial, sans-serif" font-size="11" font-weight="700" fill="#111">B1</text>
<circle cx="312.5" cy="52.4" r="3.2" fill="#d97400"/>
<text x="317.5" y="47.4" font-family="Arial, sans-serif" font-size="11" font-weight="700" fill="#111">C1</text>
<circle cx="129.9" cy="52.4" r="3.2" fill="#d97400"/>
<text x="134.9" y="47.4" font-family="Arial, sans-serif" font-size="11" font-weight="700" fill="#111">D1</text>
</svg>
