<svg xmlns="http://www.w3.org/2000/svg" width="360" height="260" viewBox="0 0 360 260" role="img" aria-label="base_071 · 三棱台 #01">
<rect width="360" height="260" fill="#ffffff"/>
<polygon points="42.2,181.4 317.8,181.4 277.1,239.0" fill="#dcecf2" fill-opacity="0.62" stroke="none"/>
<polygon points="128.0,21.0 254.8,21.0 236.0,47.5" fill="#e8f3eb" fill-opacity="0.62" stroke="none"/>
<polygon points="42.2,181.4 317.8,181.4 254.8,21.0 128.0,21.0" fill="#f6eadf" fill-opacity="0.62" stroke="none"/>
<polygon points="317.8,181.4 277.1,239.0 236.0,47.5 254.8,21.0" fill="#eee8f6" fill-opacity="0.62" stroke="none"/>
<polygon points="277.1,239.0 42.2,181.4 128.0,21.0 236.0,47.5" fill="#eef0f3" fill-opacity="0.62" stroke="none"/>
<line x1="42.2" y1="181.4" x2="317.8" y2="181.4" stroke="#111" stroke-width="1.7" stroke-linecap="round"/>
<line x1="317.8" y1="181.4" x2="277.1" y2="239.0" stroke="#111" stroke-width="1.7" stroke-linecap="round"/>
<line x1="277.1" y1="239.0" x2="42.2" y2="181.4" stroke="#111" stroke-width="1.7" stroke-linecap="round"/>
<line x1="128.0" y1="21.0" x2="254.8" y2="21.0" stroke="#111" stroke-width="1.7" stroke-linecap="round"/>
<line x1="254.8" y1="21.0" x2="236.0" y2="47.5" stroke="#111" stroke-width="1.7" stroke-linecap="round"/>
<line x1="236.0" y1="47.5" x2="128.0" y2="21.0" stroke="#111" stroke-width="1.7" stroke-linecap="round"/>
<line x1="42.2" y1="181.4" x2="128.0" y2="21.0" stroke="#111" stroke-width="1.7" stroke-linecap="round"/>
<line x1="317.8" y1="181.4" x2="254.8" y2="21.0" stroke="#111" stroke-width="1.7" stroke-linecap="round"/>
<line x1="277.1" y1="239.0" x2="236.0" y2="47.5" stroke="#111" stroke-width="1.7" stroke-linecap="round"/>
<circle cx="42.2" cy="181.4" r="3.2" fill="#d97400"/>
<text x="47.2" y="176.4" font-family="Arial, sans-serif" font-size="11" font-weight="700" fill="#111">A</text>
<circle cx="317.8" cy="181.4" r="3.2" fill="#d97400"/>
<text x="322.8" y="176.4" font-family="Arial, sans-serif" font-size="11" font-weight="700" fill="#111">B</text>
<circle cx="277.1" cy="239.0" r="3.2" fill="#d97400"/>
<text x="282.1" y="234.0" font-family="Arial, sans-serif" font-size="11" font-weight="700" fill="#111">C</text>
<circle cx="128.0" cy="21.0" r="3.2" fill="#d97400"/>
<text x="133.0" y="16.0" font-family="Arial, sans-serif" font-size="11" font-weight="700" fill="#111">A1</text>
<circle cx="254.8" cy="21.0" r="3.2" fill="#d97400"/>
<text x="259.8" y="16.0" font-family="Arial, sans-serif" font-size="11" font-weight="700" fill="#111">B1</text>
<circle cx="236.0" cy="47.5" r="3.2" fill="#d97400"/>
<text x="241.0" y="42.5" font-family="Arial, sans-serif" font-size="11" font-weight="700" fill="#111">C1</text>
</svg>
