<svg xmlns="http://www.w3.org/2000/svg" width="360" height="260" viewBox="0 0 360 260" role="img" aria-label="base_033 · 长方体 #03">
<rect width="360" height="260" fill="#ffffff"/>
<polygon points="21.0,197.3 268.6,197.3 339.0,235.4 91.4,235.4" fill="#dcecf2" fill-opacity="0.62" stroke="none"/>
<polygon points="21.0,24.6 268.6,24.6 339.0,62.7 91.4,62.7" fill="#e8f3eb" fill-opacity="0.62" stroke="none"/>
<polygon points="21.0,197.3 268.6,197.3 268.6,24.6 21.0,24.6" fill="#f6eadf" fill-opacity="0.62" stroke="none"/>
<polygon points="268.6,197.3 339.0,235.4 339.0,62.7 268.6,24.6" fill="#eee8f6" fill-opacity="0.62" stroke="none"/>
<polygon points="339.0,235.4 91.4,235.4 91.4,62.7 339.0,62.7" fill="#eef0f3" fill-opacity="0.62" stroke="none"/>
<polygon points="91.4,235.4 21.0,197.3 21.0,24.6 91.4,62.7" fill="#dcecf2" fill-opacity="0.62" stroke="none"/>
<line x1="21.0" y1="197.3" x2="268.6" y2="197.3" stroke="#111" stroke-width="1.7" stroke-linecap="round"/>
<line x1="268.6" y1="197.3" x2="339.0" y2="235.4" stroke="#111" stroke-width="1.7" stroke-linecap="round"/>
<line x1="339.0" y1="235.4" x2="91.4" y2="235.4" stroke="#111" stroke-width="1.7" stroke-linecap="round"/>
<line x1="91.4" y1="235.4" x2="21.0" y2="197.3" stroke="#111" stroke-width="1.7" stroke-linecap="round"/>
<line x1="21.0" y1="24.6" x2="268.6" y2="24.6" stroke="#111" stroke-width="1.7" stroke-linecap="round"/>
<line x1="268.6" y1="24.6" x2="339.0" y2="62.7" stroke="#111" stroke-width="1.7" stroke-linecap="round"/>
<line x1="339.0" y1="62.7" x2="91.4" y2="62.7" stroke="#111" stroke-width="1.7" stroke-linecap="round"/>
<line x1="91.4" y1="62.7" x2="21.0" y2="24.6" stroke="#111" stroke-width="1.7" stroke-linecap="round"/>
<line x1="21.0" y1="197.3" x2="21.0" y2="24.6" stroke="#111" stroke-width="1.7" stroke-linecap="round"/>
<line x1="268.6" y1="197.3" x2="268.6" y2="24.6" stroke="#111" stroke-width="1.7" stroke-linecap="round"/>
<line x1="339.0" y1="235.4" x2="339.0" y2="62.7" stroke="#111" stroke-width="1.7" stroke-linecap="round"/>
<line x1="91.4" y1="235.4" x2="91.4" y2="62.7" stroke="#111" stroke-width="1.7" stroke-linecap="round"/>
<circle cx="21.0" cy="197.3" r="3.2" fill="#d97400"/>
<text x="26.0" y="192.3" font-family="Arial, sans-serif" font-size="11" font-weight="700" fill="#111">A</text>
<circle cx="268.6" cy="197.3" r="3.2" fill="#d97400"/>
<text x="273.6" y="192.3" font-family="Arial, sans-serif" font-size="11" font-weight="700" fill="#111">B</text>
<circle cx="339.0" cy="235.4" r="3.2" fill="#d97400"/>
<text x="344.0" y="230.4" font-family="Arial, sans-serif" font-size="11" font-weight="700" fill="#111">C</text>
<circle cx="91.4" cy="235.4" r="3.2" fill="#d97400"/>
<text x="96.4" y="230.4" font-family="Arial, sans-serif" font-size="11" font-weight="700" fill="#111">D</text>
<circle cx="21.0" cy="24.6" r="3.2" fill="#d97400"/>
<text x="26.0" y="19.6" font-family="Arial, sans-serif" font-size="11" font-weight="700" fill="#111">A1</text>
<circle cx="268.6" cy="24.6" r="3.2" fill="#d97400"/>
<text x="273.6" y="19.6" font-family="Arial, sans-serif" font-size="11" font-weight="700" fill="#111">B1</text>
<circle cx="339.0" cy="62.7" r="3.2" fill="#d97400"/>
<text x="344.0" y="57.7" font-family="Arial, sans-serif" font-size="11" font-weight="700" fill="#111">C1</text>
<circle cx="91.4" cy="62.7" r="3.2" fill="#d97400"/>
<text x="96.4" y="57.7" font-family="Arial, sans-serif" font-size="11" font-weight="700" fill="#111">D1</text>
</svg>
