<svg xmlns="http://www.w3.org/2000/svg" width="360" height="260" viewBox="0 0 360 260" role="img" aria-label="base_077 · 三棱台 #07">
<rect width="360" height="260" fill="#ffffff"/>
<polygon points="61.3,191.0 298.7,191.0 261.2,239.0" fill="#dcecf2" fill-opacity="0.62" stroke="none"/>
<polygon points="147.5,21.0 264.9,21.0 246.3,44.8" fill="#e8f3eb" fill-opacity="0.62" stroke="none"/>
<polygon points="61.3,191.0 298.7,191.0 264.9,21.0 147.5,21.0" fill="#f6eadf" fill-opacity="0.62" stroke="none"/>
<polygon points="298.7,191.0 261.2,239.0 246.3,44.8 264.9,21.0" fill="#eee8f6" fill-opacity="0.62" stroke="none"/>
<polygon points="261.2,239.0 61.3,191.0 147.5,21.0 246.3,44.8" fill="#eef0f3" fill-opacity="0.62" stroke="none"/>
<line x1="61.3" y1="191.0" x2="298.7" y2="191.0" stroke="#111" stroke-width="1.7" stroke-linecap="round"/>
<line x1="298.7" y1="191.0" x2="261.2" y2="239.0" stroke="#111" stroke-width="1.7" stroke-linecap="round"/>
<line x1="261.2" y1="239.0" x2="61.3" y2="191.0" stroke="#111" stroke-width="1.7" stroke-linecap="round"/>
<line x1="147.5" y1="21.0" x2="264.9" y2="21.0" stroke="#111" stroke-width="1.7" stroke-linecap="round"/>
<line x1="264.9" y1="21.0" x2="246.3" y2="44.8" stroke="#111" stroke-width="1.7" stroke-linecap="round"/>
<line x1="246.3" y1="44.8" x2="147.5" y2="21.0" stroke="#111" stroke-width="1.7" stroke-linecap="round"/>
<line x1="61.3" y1="191.0" x2="147.5" y2="21.0" stroke="#111" stroke-width="1.7" stroke-linecap="round"/>
<line x1="298.7" y1="191.0" x2="264.9" y2="21.0" stroke="#111" stroke-width="1.7" stroke-linecap="round"/>
<line x1="261.2" y1="239.0" x2="246.3" y2="44.8" stroke="#111" stroke-width="1.7" stroke-linecap="round"/>
<circle cx="61.3" cy="191.0" r="3.2" fill="#d97400"/>
<text x="66.3" y="186.0" font-family="Arial, sans-serif" font-size="11" font-weight="700" fill="#111">A</text>
<circle cx="298.7" cy="191.0" r="3.2" fill="#d97400"/>
<text x="303.7" y="186.0" font-family="Arial, sans-serif" font-size="11" font-weight="700" fill="#111">B</text>
<circle cx="261.2" cy="239.0" r="3.2" fill="#d97400"/>
<text x="266.2" y="234.0" font-family="Arial, sans-serif" font-size="11" font-weight="700" fill="#111">C</text>
<circle cx="147.5" cy="21.0" r="3.2" fill="#d97400"/>
<text x="152.5" y="16.0" font-family="Arial, sans-serif" font-size="11" font-weight="700" fill="#111">A1</text>
<circle cx="264.9" cy="21.0" r="3.2" fill="#d97400"/>
<text x="269.9" y="16.0" font-family="Arial, sans-serif" font-size="11" font-weight="700" fill="#111">B1</text>
<circle cx="246.3" cy="44.8" r="3.2" fill="#d97400"/>
<text x="251.3" y="39.8" font-family="Arial, sans-serif" font-size="11" font-weight="700" fill="#111">C1</text>
</svg>
