<svg xmlns="http://www.w3.org/2000/svg" width="360" height="260" viewBox="0 0 360 260" role="img" aria-label="base_067 · 三棱柱 #07">
<rect width="360" height="260" fill="#ffffff"/>
<polygon points="80.2,199.4 287.4,199.4 258.2,239.0" fill="#dcecf2" fill-opacity="0.62" stroke="none"/>
<polygon points="72.6,21.0 279.8,21.0 250.7,60.6" fill="#e8f3eb" fill-opacity="0.62" stroke="none"/>
<polygon points="80.2,199.4 287.4,199.4 279.8,21.0 72.6,21.0" fill="#f6eadf" fill-opacity="0.62" stroke="none"/>
<polygon points="287.4,199.4 258.2,239.0 250.7,60.6 279.8,21.0" fill="#eee8f6" fill-opacity="0.62" stroke="none"/>
<polygon points="258.2,239.0 80.2,199.4 72.6,21.0 250.7,60.6" fill="#eef0f3" fill-opacity="0.62" stroke="none"/>
<line x1="80.2" y1="199.4" x2="287.4" y2="199.4" stroke="#111" stroke-width="1.7" stroke-linecap="round"/>
<line x1="287.4" y1="199.4" x2="258.2" y2="239.0" stroke="#111" stroke-width="1.7" stroke-linecap="round"/>
<line x1="258.2" y1="239.0" x2="80.2" y2="199.4" stroke="#111" stroke-width="1.7" stroke-linecap="round"/>
<line x1="72.6" y1="21.0" x2="279.8" y2="21.0" stroke="#111" stroke-width="1.7" stroke-linecap="round"/>
<line x1="279.8" y1="21.0" x2="250.7" y2="60.6" stroke="#111" stroke-width="1.7" stroke-linecap="round"/>
<line x1="250.7" y1="60.6" x2="72.6" y2="21.0" stroke="#111" stroke-width="1.7" stroke-linecap="round"/>
<line x1="80.2" y1="199.4" x2="72.6" y2="21.0" stroke="#111" stroke-width="1.7" stroke-linecap="round"/>
<line x1="287.4" y1="199.4" x2="279.8" y2="21.0" stroke="#111" stroke-width="1.7" stroke-linecap="round"/>
<line x1="258.2" y1="239.0" x2="250.7" y2="60.6" stroke="#111" stroke-width="1.7" stroke-linecap="round"/>
<circle cx="80.2" cy="199.4" r="3.2" fill="#d97400"/>
<text x="85.2" y="194.4" font-family="Arial, sans-serif" font-size="11" font-weight="700" fill="#111">A</text>
<circle cx="287.4" cy="199.4" r="3.2" fill="#d97400"/>
<text x="292.4" y="194.4" font-family="Arial, sans-serif" font-size="11" font-weight="700" fill="#111">B</text>
<circle cx="258.2" cy="239.0" r="3.2" fill="#d97400"/>
<text x="263.2" y="234.0" font-family="Arial, sans-serif" font-size="11" font-weight="700" fill="#111">C</text>
<circle cx="72.6" cy="21.0" r="3.2" fill="#d97400"/>
<text x="77.6" y="16.0" font-family="Arial, sans-serif" font-size="11" font-weight="700" fill="#111">A1</text>
<circle cx="279.8" cy="21.0" r="3.2" fill="#d97400"/>
<text x="284.8" y="16.0" font-family="Arial, sans-serif" font-size="11" font-weight="700" fill="#111">B1</text>
<circle cx="250.7" cy="60.6" r="3.2" fill="#d97400"/>
<text x="255.7" y="55.6" font-family="Arial, sans-serif" font-size="11" font-weight="700" fill="#111">C1</text>
</svg>
