<svg xmlns="http://www.w3.org/2000/svg" width="360" height="260" viewBox="0 0 360 260" role="img" aria-label="base_040 · 长方体 #10">
<rect width="360" height="260" fill="#ffffff"/>
<polygon points="44.0,204.4 252.1,204.4 316.0,239.0 107.9,239.0" fill="#dcecf2" fill-opacity="0.62" stroke="none"/>
<polygon points="44.0,21.0 252.1,21.0 316.0,55.6 107.9,55.6" fill="#e8f3eb" fill-opacity="0.62" stroke="none"/>
<polygon points="44.0,204.4 252.1,204.4 252.1,21.0 44.0,21.0" fill="#f6eadf" fill-opacity="0.62" stroke="none"/>
<polygon points="252.1,204.4 316.0,239.0 316.0,55.6 252.1,21.0" fill="#eee8f6" fill-opacity="0.62" stroke="none"/>
<polygon points="316.0,239.0 107.9,239.0 107.9,55.6 316.0,55.6" fill="#eef0f3" fill-opacity="0.62" stroke="none"/>
<polygon points="107.9,239.0 44.0,204.4 44.0,21.0 107.9,55.6" fill="#dcecf2" fill-opacity="0.62" stroke="none"/>
<line x1="44.0" y1="204.4" x2="252.1" y2="204.4" stroke="#111" stroke-width="1.7" stroke-linecap="round"/>
<line x1="252.1" y1="204.4" x2="316.0" y2="239.0" stroke="#111" stroke-width="1.7" stroke-linecap="round"/>
<line x1="316.0" y1="239.0" x2="107.9" y2="239.0" stroke="#111" stroke-width="1.7" stroke-linecap="round"/>
<line x1="107.9" y1="239.0" x2="44.0" y2="204.4" stroke="#111" stroke-width="1.7" stroke-linecap="round"/>
<line x1="44.0" y1="21.0" x2="252.1" y2="21.0" stroke="#111" stroke-width="1.7" stroke-linecap="round"/>
<line x1="252.1" y1="21.0" x2="316.0" y2="55.6" stroke="#111" stroke-width="1.7" stroke-linecap="round"/>
<line x1="316.0" y1="55.6" x2="107.9" y2="55.6" stroke="#111" stroke-width="1.7" stroke-linecap="round"/>
<line x1="107.9" y1="55.6" x2="44.0" y2="21.0" stroke="#111" stroke-width="1.7" stroke-linecap="round"/>
<line x1="44.0" y1="204.4" x2="44.0" y2="21.0" stroke="#111" stroke-width="1.7" stroke-linecap="round"/>
<line x1="252.1" y1="204.4" x2="252.1" y2="21.0" stroke="#111" stroke-width="1.7" stroke-linecap="round"/>
<line x1="316.0" y1="239.0" x2="316.0" y2="55.6" stroke="#111" stroke-width="1.7" stroke-linecap="round"/>
<line x1="107.9" y1="239.0" x2="107.9" y2="55.6" stroke="#111" stroke-width="1.7" stroke-linecap="round"/>
<circle cx="44.0" cy="204.4" r="3.2" fill="#d97400"/>
<text x="49.0" y="199.4" font-family="Arial, sans-serif" font-size="11" font-weight="700" fill="#111">A</text>
<circle cx="252.1" cy="204.4" r="3.2" fill="#d97400"/>
<text x="257.1" y="199.4" font-family="Arial, sans-serif" font-size="11" font-weight="700" fill="#111">B</text>
<circle cx="316.0" cy="239.0" r="3.2" fill="#d97400"/>
<text x="321.0" y="234.0" font-family="Arial, sans-serif" font-size="11" font-weight="700" fill="#111">C</text>
<circle cx="107.9" cy="239.0" r="3.2" fill="#d97400"/>
<text x="112.9" y="234.0" font-family="Arial, sans-serif" font-size="11" font-weight="700" fill="#111">D</text>
<circle cx="44.0" cy="21.0" r="3.2" fill="#d97400"/>
<text x="49.0" y="16.0" font-family="Arial, sans-serif" font-size="11" font-weight="700" fill="#111">A1</text>
<circle cx="252.1" cy="21.0" r="3.2" fill="#d97400"/>
<text x="257.1" y="16.0" font-family="Arial, sans-serif" font-size="11" font-weight="700" fill="#111">B1</text>
<circle cx="316.0" cy="55.6" r="3.2" fill="#d97400"/>
<text x="321.0" y="50.6" font-family="Arial, sans-serif" font-size="11" font-weight="700" fill="#111">C1</text>
<circle cx="107.9" cy="55.6" r="3.2" fill="#d97400"/>
<text x="112.9" y="50.6" font-family="Arial, sans-serif" font-size="11" font-weight="700" fill="#111">D1</text>
</svg>
