<svg xmlns="http://www.w3.org/2000/svg" width="360" height="260" viewBox="0 0 360 260" role="img" aria-label="base_001 · 四棱锥 #01">
<rect width="360" height="260" fill="#ffffff"/>
<polygon points="21.0,190.6 254.8,190.6 339.0,236.2 105.2,236.2" fill="#dcecf2" fill-opacity="0.62" stroke="none"/>
<polygon points="161.8,23.8 21.0,190.6 254.8,190.6" fill="#e8f3eb" fill-opacity="0.62" stroke="none"/>
<polygon points="161.8,23.8 254.8,190.6 339.0,236.2" fill="#f6eadf" fill-opacity="0.62" stroke="none"/>
<polygon points="161.8,23.8 339.0,236.2 105.2,236.2" fill="#eee8f6" fill-opacity="0.62" stroke="none"/>
<polygon points="161.8,23.8 105.2,236.2 21.0,190.6" fill="#eef0f3" fill-opacity="0.62" stroke="none"/>
<line x1="21.0" y1="190.6" x2="254.8" y2="190.6" stroke="#111" stroke-width="1.7" stroke-linecap="round"/>
<line x1="254.8" y1="190.6" x2="339.0" y2="236.2" stroke="#111" stroke-width="1.7" stroke-linecap="round"/>
<line x1="339.0" y1="236.2" x2="105.2" y2="236.2" stroke="#111" stroke-width="1.7" stroke-linecap="round"/>
<line x1="105.2" y1="236.2" x2="21.0" y2="190.6" stroke="#111" stroke-width="1.7" stroke-linecap="round"/>
<line x1="161.8" y1="23.8" x2="21.0" y2="190.6" stroke="#111" stroke-width="1.7" stroke-linecap="round"/>
<line x1="161.8" y1="23.8" x2="254.8" y2="190.6" stroke="#111" stroke-width="1.7" stroke-linecap="round"/>
<line x1="161.8" y1="23.8" x2="339.0" y2="236.2" stroke="#111" stroke-width="1.7" stroke-linecap="round"/>
<line x1="161.8" y1="23.8" x2="105.2" y2="236.2" stroke="#111" stroke-width="1.7" stroke-linecap="round"/>
<circle cx="21.0" cy="190.6" r="3.2" fill="#d97400"/>
<text x="26.0" y="185.6" font-family="Arial, sans-serif" font-size="11" font-weight="700" fill="#111">A</text>
<circle cx="254.8" cy="190.6" r="3.2" fill="#d97400"/>
<text x="259.8" y="185.6" font-family="Arial, sans-serif" font-size="11" font-weight="700" fill="#111">B</text>
<circle cx="339.0" cy="236.2" r="3.2" fill="#d97400"/>
<text x="344.0" y="231.2" font-family="Arial, sans-serif" font-size="11" font-weight="700" fill="#111">C</text>
<circle cx="105.2" cy="236.2" r="3.2" fill="#d97400"/>
<text x="110.2" y="231.2" font-family="Arial, sans-serif" font-size="11" font-weight="700" fill="#111">D</text>
<circle cx="161.8" cy="23.8" r="3.2" fill="#d97400"/>
<text x="166.8" y="18.8" font-family="Arial, sans-serif" font-size="11" font-weight="700" fill="#111">S</text>
</svg>
