<svg xmlns="http://www.w3.org/2000/svg" width="360" height="260" viewBox="0 0 360 260" role="img" aria-label="base_025 · 三棱锥 #05">
<rect width="360" height="260" fill="#ffffff"/>
<polygon points="60.1,195.0 299.9,196.6 256.0,239.0" fill="#dcecf2" fill-opacity="0.62" stroke="none"/>
<polygon points="227.1,21.0 60.1,195.0 299.9,196.6" fill="#e8f3eb" fill-opacity="0.62" stroke="none"/>
<polygon points="227.1,21.0 299.9,196.6 256.0,239.0" fill="#f6eadf" fill-opacity="0.62" stroke="none"/>
<polygon points="227.1,21.0 256.0,239.0 60.1,195.0" fill="#eee8f6" fill-opacity="0.62" stroke="none"/>
<line x1="60.1" y1="195.0" x2="299.9" y2="196.6" stroke="#111" stroke-width="1.7" stroke-linecap="round"/>
<line x1="299.9" y1="196.6" x2="256.0" y2="239.0" stroke="#111" stroke-width="1.7" stroke-linecap="round"/>
<line x1="256.0" y1="239.0" x2="60.1" y2="195.0" stroke="#111" stroke-width="1.7" stroke-linecap="round"/>
<line x1="227.1" y1="21.0" x2="60.1" y2="195.0" stroke="#111" stroke-width="1.7" stroke-linecap="round"/>
<line x1="227.1" y1="21.0" x2="299.9" y2="196.6" stroke="#111" stroke-width="1.7" stroke-linecap="round"/>
<line x1="227.1" y1="21.0" x2="256.0" y2="239.0" stroke="#111" stroke-width="1.7" stroke-linecap="round"/>
<circle cx="60.1" cy="195.0" r="3.2" fill="#d97400"/>
<text x="65.1" y="190.0" font-family="Arial, sans-serif" font-size="11" font-weight="700" fill="#111">A</text>
<circle cx="299.9" cy="196.6" r="3.2" fill="#d97400"/>
<text x="304.9" y="191.6" font-family="Arial, sans-serif" font-size="11" font-weight="700" fill="#111">B</text>
<circle cx="256.0" cy="239.0" r="3.2" fill="#d97400"/>
<text x="261.0" y="234.0" font-family="Arial, sans-serif" font-size="11" font-weight="700" fill="#111">C</text>
<circle cx="227.1" cy="21.0" r="3.2" fill="#d97400"/>
<text x="232.1" y="16.0" font-family="Arial, sans-serif" font-size="11" font-weight="700" fill="#111">S</text>
</svg>
