<svg xmlns="http://www.w3.org/2000/svg" width="360" height="260" viewBox="0 0 360 260" role="img" aria-label="base_090 · 楔形体 #10">
<rect width="360" height="260" fill="#ffffff"/>
<polygon points="30.8,199.3 255.9,199.3 329.2,239.0 104.1,239.0" fill="#dcecf2" fill-opacity="0.62" stroke="none"/>
<polygon points="30.8,199.3 255.9,199.3 299.7,21.0 74.6,21.0" fill="#e8f3eb" fill-opacity="0.62" stroke="none"/>
<polygon points="104.1,239.0 329.2,239.0 299.7,21.0 74.6,21.0" fill="#f6eadf" fill-opacity="0.62" stroke="none"/>
<polygon points="30.8,199.3 104.1,239.0 74.6,21.0" fill="#eee8f6" fill-opacity="0.62" stroke="none"/>
<polygon points="255.9,199.3 329.2,239.0 299.7,21.0" fill="#eef0f3" fill-opacity="0.62" stroke="none"/>
<line x1="30.8" y1="199.3" x2="255.9" y2="199.3" stroke="#111" stroke-width="1.7" stroke-linecap="round"/>
<line x1="255.9" y1="199.3" x2="329.2" y2="239.0" stroke="#111" stroke-width="1.7" stroke-linecap="round"/>
<line x1="329.2" y1="239.0" x2="104.1" y2="239.0" stroke="#111" stroke-width="1.7" stroke-linecap="round"/>
<line x1="104.1" y1="239.0" x2="30.8" y2="199.3" stroke="#111" stroke-width="1.7" stroke-linecap="round"/>
<line x1="30.8" y1="199.3" x2="74.6" y2="21.0" stroke="#111" stroke-width="1.7" stroke-linecap="round"/>
<line x1="255.9" y1="199.3" x2="299.7" y2="21.0" stroke="#111" stroke-width="1.7" stroke-linecap="round"/>
<line x1="74.6" y1="21.0" x2="299.7" y2="21.0" stroke="#111" stroke-width="1.7" stroke-linecap="round"/>
<line x1="104.1" y1="239.0" x2="74.6" y2="21.0" stroke="#111" stroke-width="1.7" stroke-linecap="round"/>
<line x1="329.2" y1="239.0" x2="299.7" y2="21.0" stroke="#111" stroke-width="1.7" stroke-linecap="round"/>
<circle cx="30.8" cy="199.3" r="3.2" fill="#d97400"/>
<text x="35.8" y="194.3" font-family="Arial, sans-serif" font-size="11" font-weight="700" fill="#111">A</text>
<circle cx="255.9" cy="199.3" r="3.2" fill="#d97400"/>
<text x="260.9" y="194.3" font-family="Arial, sans-serif" font-size="11" font-weight="700" fill="#111">B</text>
<circle cx="329.2" cy="239.0" r="3.2" fill="#d97400"/>
<text x="334.2" y="234.0" font-family="Arial, sans-serif" font-size="11" font-weight="700" fill="#111">C</text>
<circle cx="104.1" cy="239.0" r="3.2" fill="#d97400"/>
<text x="109.1" y="234.0" font-family="Arial, sans-serif" font-size="11" font-weight="700" fill="#111">D</text>
<circle cx="74.6" cy="21.0" r="3.2" fill="#d97400"/>
<text x="79.6" y="16.0" font-family="Arial, sans-serif" font-size="11" font-weight="700" fill="#111">A1</text>
<circle cx="299.7" cy="21.0" r="3.2" fill="#d97400"/>
<text x="304.7" y="16.0" font-family="Arial, sans-serif" font-size="11" font-weight="700" fill="#111">B1</text>
</svg>
