<svg xmlns="http://www.w3.org/2000/svg" width="360" height="260" viewBox="0 0 360 260" role="img" aria-label="base_018 · 偏顶四棱锥 #08">
<rect width="360" height="260" fill="#ffffff"/>
<polygon points="49.6,202.9 243.9,202.9 310.4,239.0 116.1,239.0" fill="#dcecf2" fill-opacity="0.62" stroke="none"/>
<polygon points="184.4,21.0 49.6,202.9 243.9,202.9" fill="#e8f3eb" fill-opacity="0.62" stroke="none"/>
<polygon points="184.4,21.0 243.9,202.9 310.4,239.0" fill="#f6eadf" fill-opacity="0.62" stroke="none"/>
<polygon points="184.4,21.0 310.4,239.0 116.1,239.0" fill="#eee8f6" fill-opacity="0.62" stroke="none"/>
<polygon points="184.4,21.0 116.1,239.0 49.6,202.9" fill="#eef0f3" fill-opacity="0.62" stroke="none"/>
<line x1="49.6" y1="202.9" x2="243.9" y2="202.9" stroke="#111" stroke-width="1.7" stroke-linecap="round"/>
<line x1="243.9" y1="202.9" x2="310.4" y2="239.0" stroke="#111" stroke-width="1.7" stroke-linecap="round"/>
<line x1="310.4" y1="239.0" x2="116.1" y2="239.0" stroke="#111" stroke-width="1.7" stroke-linecap="round"/>
<line x1="116.1" y1="239.0" x2="49.6" y2="202.9" stroke="#111" stroke-width="1.7" stroke-linecap="round"/>
<line x1="184.4" y1="21.0" x2="49.6" y2="202.9" stroke="#111" stroke-width="1.7" stroke-linecap="round"/>
<line x1="184.4" y1="21.0" x2="243.9" y2="202.9" stroke="#111" stroke-width="1.7" stroke-linecap="round"/>
<line x1="184.4" y1="21.0" x2="310.4" y2="239.0" stroke="#111" stroke-width="1.7" stroke-linecap="round"/>
<line x1="184.4" y1="21.0" x2="116.1" y2="239.0" stroke="#111" stroke-width="1.7" stroke-linecap="round"/>
<circle cx="49.6" cy="202.9" r="3.2" fill="#d97400"/>
<text x="54.6" y="197.9" font-family="Arial, sans-serif" font-size="11" font-weight="700" fill="#111">A</text>
<circle cx="243.9" cy="202.9" r="3.2" fill="#d97400"/>
<text x="248.9" y="197.9" font-family="Arial, sans-serif" font-size="11" font-weight="700" fill="#111">B</text>
<circle cx="310.4" cy="239.0" r="3.2" fill="#d97400"/>
<text x="315.4" y="234.0" font-family="Arial, sans-serif" font-size="11" font-weight="700" fill="#111">C</text>
<circle cx="116.1" cy="239.0" r="3.2" fill="#d97400"/>
<text x="121.1" y="234.0" font-family="Arial, sans-serif" font-size="11" font-weight="700" fill="#111">D</text>
<circle cx="184.4" cy="21.0" r="3.2" fill="#d97400"/>
<text x="189.4" y="16.0" font-family="Arial, sans-serif" font-size="11" font-weight="700" fill="#111">S</text>
</svg>
