<svg xmlns="http://www.w3.org/2000/svg" width="360" height="260" viewBox="0 0 360 260" role="img" aria-label="base_048 · 斜四棱柱 #08">
<rect width="360" height="260" fill="#ffffff"/>
<polygon points="34.8,200.8 239.1,200.8 309.6,239.0 105.4,239.0" fill="#dcecf2" fill-opacity="0.62" stroke="none"/>
<polygon points="50.4,21.0 254.6,21.0 325.2,59.2 120.9,59.2" fill="#e8f3eb" fill-opacity="0.62" stroke="none"/>
<polygon points="34.8,200.8 239.1,200.8 254.6,21.0 50.4,21.0" fill="#f6eadf" fill-opacity="0.62" stroke="none"/>
<polygon points="239.1,200.8 309.6,239.0 325.2,59.2 254.6,21.0" fill="#eee8f6" fill-opacity="0.62" stroke="none"/>
<polygon points="309.6,239.0 105.4,239.0 120.9,59.2 325.2,59.2" fill="#eef0f3" fill-opacity="0.62" stroke="none"/>
<polygon points="105.4,239.0 34.8,200.8 50.4,21.0 120.9,59.2" fill="#dcecf2" fill-opacity="0.62" stroke="none"/>
<line x1="34.8" y1="200.8" x2="239.1" y2="200.8" stroke="#111" stroke-width="1.7" stroke-linecap="round"/>
<line x1="239.1" y1="200.8" x2="309.6" y2="239.0" stroke="#111" stroke-width="1.7" stroke-linecap="round"/>
<line x1="309.6" y1="239.0" x2="105.4" y2="239.0" stroke="#111" stroke-width="1.7" stroke-linecap="round"/>
<line x1="105.4" y1="239.0" x2="34.8" y2="200.8" stroke="#111" stroke-width="1.7" stroke-linecap="round"/>
<line x1="50.4" y1="21.0" x2="254.6" y2="21.0" stroke="#111" stroke-width="1.7" stroke-linecap="round"/>
<line x1="254.6" y1="21.0" x2="325.2" y2="59.2" stroke="#111" stroke-width="1.7" stroke-linecap="round"/>
<line x1="325.2" y1="59.2" x2="120.9" y2="59.2" stroke="#111" stroke-width="1.7" stroke-linecap="round"/>
<line x1="120.9" y1="59.2" x2="50.4" y2="21.0" stroke="#111" stroke-width="1.7" stroke-linecap="round"/>
<line x1="34.8" y1="200.8" x2="50.4" y2="21.0" stroke="#111" stroke-width="1.7" stroke-linecap="round"/>
<line x1="239.1" y1="200.8" x2="254.6" y2="21.0" stroke="#111" stroke-width="1.7" stroke-linecap="round"/>
<line x1="309.6" y1="239.0" x2="325.2" y2="59.2" stroke="#111" stroke-width="1.7" stroke-linecap="round"/>
<line x1="105.4" y1="239.0" x2="120.9" y2="59.2" stroke="#111" stroke-width="1.7" stroke-linecap="round"/>
<circle cx="34.8" cy="200.8" r="3.2" fill="#d97400"/>
<text x="39.8" y="195.8" font-family="Arial, sans-serif" font-size="11" font-weight="700" fill="#111">A</text>
<circle cx="239.1" cy="200.8" r="3.2" fill="#d97400"/>
<text x="244.1" y="195.8" font-family="Arial, sans-serif" font-size="11" font-weight="700" fill="#111">B</text>
<circle cx="309.6" cy="239.0" r="3.2" fill="#d97400"/>
<text x="314.6" y="234.0" font-family="Arial, sans-serif" font-size="11" font-weight="700" fill="#111">C</text>
<circle cx="105.4" cy="239.0" r="3.2" fill="#d97400"/>
<text x="110.4" y="234.0" font-family="Arial, sans-serif" font-size="11" font-weight="700" fill="#111">D</text>
<circle cx="50.4" cy="21.0" r="3.2" fill="#d97400"/>
<text x="55.4" y="16.0" font-family="Arial, sans-serif" font-size="11" font-weight="700" fill="#111">A1</text>
<circle cx="254.6" cy="21.0" r="3.2" fill="#d97400"/>
<text x="259.6" y="16.0" font-family="Arial, sans-serif" font-size="11" font-weight="700" fill="#111">B1</text>
<circle cx="325.2" cy="59.2" r="3.2" fill="#d97400"/>
<text x="330.2" y="54.2" font-family="Arial, sans-serif" font-size="11" font-weight="700" fill="#111">C1</text>
<circle cx="120.9" cy="59.2" r="3.2" fill="#d97400"/>
<text x="125.9" y="54.2" font-family="Arial, sans-serif" font-size="11" font-weight="700" fill="#111">D1</text>
</svg>
