<svg xmlns="http://www.w3.org/2000/svg" width="360" height="260" viewBox="0 0 360 260" role="img" aria-label="base_017 · 偏顶四棱锥 #07">
<rect width="360" height="260" fill="#ffffff"/>
<polygon points="49.1,203.2 244.8,203.2 310.9,239.0 115.2,239.0" fill="#dcecf2" fill-opacity="0.62" stroke="none"/>
<polygon points="185.9,21.0 49.1,203.2 244.8,203.2" fill="#e8f3eb" fill-opacity="0.62" stroke="none"/>
<polygon points="185.9,21.0 244.8,203.2 310.9,239.0" fill="#f6eadf" fill-opacity="0.62" stroke="none"/>
<polygon points="185.9,21.0 310.9,239.0 115.2,239.0" fill="#eee8f6" fill-opacity="0.62" stroke="none"/>
<polygon points="185.9,21.0 115.2,239.0 49.1,203.2" fill="#eef0f3" fill-opacity="0.62" stroke="none"/>
<line x1="49.1" y1="203.2" x2="244.8" y2="203.2" stroke="#111" stroke-width="1.7" stroke-linecap="round"/>
<line x1="244.8" y1="203.2" x2="310.9" y2="239.0" stroke="#111" stroke-width="1.7" stroke-linecap="round"/>
<line x1="310.9" y1="239.0" x2="115.2" y2="239.0" stroke="#111" stroke-width="1.7" stroke-linecap="round"/>
<line x1="115.2" y1="239.0" x2="49.1" y2="203.2" stroke="#111" stroke-width="1.7" stroke-linecap="round"/>
<line x1="185.9" y1="21.0" x2="49.1" y2="203.2" stroke="#111" stroke-width="1.7" stroke-linecap="round"/>
<line x1="185.9" y1="21.0" x2="244.8" y2="203.2" stroke="#111" stroke-width="1.7" stroke-linecap="round"/>
<line x1="185.9" y1="21.0" x2="310.9" y2="239.0" stroke="#111" stroke-width="1.7" stroke-linecap="round"/>
<line x1="185.9" y1="21.0" x2="115.2" y2="239.0" stroke="#111" stroke-width="1.7" stroke-linecap="round"/>
<circle cx="49.1" cy="203.2" r="3.2" fill="#d97400"/>
<text x="54.1" y="198.2" font-family="Arial, sans-serif" font-size="11" font-weight="700" fill="#111">A</text>
<circle cx="244.8" cy="203.2" r="3.2" fill="#d97400"/>
<text x="249.8" y="198.2" font-family="Arial, sans-serif" font-size="11" font-weight="700" fill="#111">B</text>
<circle cx="310.9" cy="239.0" r="3.2" fill="#d97400"/>
<text x="315.9" y="234.0" font-family="Arial, sans-serif" font-size="11" font-weight="700" fill="#111">C</text>
<circle cx="115.2" cy="239.0" r="3.2" fill="#d97400"/>
<text x="120.2" y="234.0" font-family="Arial, sans-serif" font-size="11" font-weight="700" fill="#111">D</text>
<circle cx="185.9" cy="21.0" r="3.2" fill="#d97400"/>
<text x="190.9" y="16.0" font-family="Arial, sans-serif" font-size="11" font-weight="700" fill="#111">S</text>
</svg>
