<svg xmlns="http://www.w3.org/2000/svg" width="360" height="260" viewBox="0 0 360 260" role="img" aria-label="base_028 · 三棱锥 #08">
<rect width="360" height="260" fill="#ffffff"/>
<polygon points="83.1,201.6 276.9,203.0 254.4,239.0" fill="#dcecf2" fill-opacity="0.62" stroke="none"/>
<polygon points="202.0,21.0 83.1,201.6 276.9,203.0" fill="#e8f3eb" fill-opacity="0.62" stroke="none"/>
<polygon points="202.0,21.0 276.9,203.0 254.4,239.0" fill="#f6eadf" fill-opacity="0.62" stroke="none"/>
<polygon points="202.0,21.0 254.4,239.0 83.1,201.6" fill="#eee8f6" fill-opacity="0.62" stroke="none"/>
<line x1="83.1" y1="201.6" x2="276.9" y2="203.0" stroke="#111" stroke-width="1.7" stroke-linecap="round"/>
<line x1="276.9" y1="203.0" x2="254.4" y2="239.0" stroke="#111" stroke-width="1.7" stroke-linecap="round"/>
<line x1="254.4" y1="239.0" x2="83.1" y2="201.6" stroke="#111" stroke-width="1.7" stroke-linecap="round"/>
<line x1="202.0" y1="21.0" x2="83.1" y2="201.6" stroke="#111" stroke-width="1.7" stroke-linecap="round"/>
<line x1="202.0" y1="21.0" x2="276.9" y2="203.0" stroke="#111" stroke-width="1.7" stroke-linecap="round"/>
<line x1="202.0" y1="21.0" x2="254.4" y2="239.0" stroke="#111" stroke-width="1.7" stroke-linecap="round"/>
<circle cx="83.1" cy="201.6" r="3.2" fill="#d97400"/>
<text x="88.1" y="196.6" font-family="Arial, sans-serif" font-size="11" font-weight="700" fill="#111">A</text>
<circle cx="276.9" cy="203.0" r="3.2" fill="#d97400"/>
<text x="281.9" y="198.0" font-family="Arial, sans-serif" font-size="11" font-weight="700" fill="#111">B</text>
<circle cx="254.4" cy="239.0" r="3.2" fill="#d97400"/>
<text x="259.4" y="234.0" font-family="Arial, sans-serif" font-size="11" font-weight="700" fill="#111">C</text>
<circle cx="202.0" cy="21.0" r="3.2" fill="#d97400"/>
<text x="207.0" y="16.0" font-family="Arial, sans-serif" font-size="11" font-weight="700" fill="#111">S</text>
</svg>
