<svg xmlns="http://www.w3.org/2000/svg" width="360" height="260" viewBox="0 0 360 260" role="img" aria-label="base_046 · 斜四棱柱 #06">
<rect width="360" height="260" fill="#ffffff"/>
<polygon points="38.7,201.4 245.9,201.4 315.3,239.0 108.1,239.0" fill="#dcecf2" fill-opacity="0.62" stroke="none"/>
<polygon points="44.7,21.0 251.9,21.0 321.3,58.6 114.1,58.6" fill="#e8f3eb" fill-opacity="0.62" stroke="none"/>
<polygon points="38.7,201.4 245.9,201.4 251.9,21.0 44.7,21.0" fill="#f6eadf" fill-opacity="0.62" stroke="none"/>
<polygon points="245.9,201.4 315.3,239.0 321.3,58.6 251.9,21.0" fill="#eee8f6" fill-opacity="0.62" stroke="none"/>
<polygon points="315.3,239.0 108.1,239.0 114.1,58.6 321.3,58.6" fill="#eef0f3" fill-opacity="0.62" stroke="none"/>
<polygon points="108.1,239.0 38.7,201.4 44.7,21.0 114.1,58.6" fill="#dcecf2" fill-opacity="0.62" stroke="none"/>
<line x1="38.7" y1="201.4" x2="245.9" y2="201.4" stroke="#111" stroke-width="1.7" stroke-linecap="round"/>
<line x1="245.9" y1="201.4" x2="315.3" y2="239.0" stroke="#111" stroke-width="1.7" stroke-linecap="round"/>
<line x1="315.3" y1="239.0" x2="108.1" y2="239.0" stroke="#111" stroke-width="1.7" stroke-linecap="round"/>
<line x1="108.1" y1="239.0" x2="38.7" y2="201.4" stroke="#111" stroke-width="1.7" stroke-linecap="round"/>
<line x1="44.7" y1="21.0" x2="251.9" y2="21.0" stroke="#111" stroke-width="1.7" stroke-linecap="round"/>
<line x1="251.9" y1="21.0" x2="321.3" y2="58.6" stroke="#111" stroke-width="1.7" stroke-linecap="round"/>
<line x1="321.3" y1="58.6" x2="114.1" y2="58.6" stroke="#111" stroke-width="1.7" stroke-linecap="round"/>
<line x1="114.1" y1="58.6" x2="44.7" y2="21.0" stroke="#111" stroke-width="1.7" stroke-linecap="round"/>
<line x1="38.7" y1="201.4" x2="44.7" y2="21.0" stroke="#111" stroke-width="1.7" stroke-linecap="round"/>
<line x1="245.9" y1="201.4" x2="251.9" y2="21.0" stroke="#111" stroke-width="1.7" stroke-linecap="round"/>
<line x1="315.3" y1="239.0" x2="321.3" y2="58.6" stroke="#111" stroke-width="1.7" stroke-linecap="round"/>
<line x1="108.1" y1="239.0" x2="114.1" y2="58.6" stroke="#111" stroke-width="1.7" stroke-linecap="round"/>
<circle cx="38.7" cy="201.4" r="3.2" fill="#d97400"/>
<text x="43.7" y="196.4" font-family="Arial, sans-serif" font-size="11" font-weight="700" fill="#111">A</text>
<circle cx="245.9" cy="201.4" r="3.2" fill="#d97400"/>
<text x="250.9" y="196.4" font-family="Arial, sans-serif" font-size="11" font-weight="700" fill="#111">B</text>
<circle cx="315.3" cy="239.0" r="3.2" fill="#d97400"/>
<text x="320.3" y="234.0" font-family="Arial, sans-serif" font-size="11" font-weight="700" fill="#111">C</text>
<circle cx="108.1" cy="239.0" r="3.2" fill="#d97400"/>
<text x="113.1" y="234.0" font-family="Arial, sans-serif" font-size="11" font-weight="700" fill="#111">D</text>
<circle cx="44.7" cy="21.0" r="3.2" fill="#d97400"/>
<text x="49.7" y="16.0" font-family="Arial, sans-serif" font-size="11" font-weight="700" fill="#111">A1</text>
<circle cx="251.9" cy="21.0" r="3.2" fill="#d97400"/>
<text x="256.9" y="16.0" font-family="Arial, sans-serif" font-size="11" font-weight="700" fill="#111">B1</text>
<circle cx="321.3" cy="58.6" r="3.2" fill="#d97400"/>
<text x="326.3" y="53.6" font-family="Arial, sans-serif" font-size="11" font-weight="700" fill="#111">C1</text>
<circle cx="114.1" cy="58.6" r="3.2" fill="#d97400"/>
<text x="119.1" y="53.6" font-family="Arial, sans-serif" font-size="11" font-weight="700" fill="#111">D1</text>
</svg>
