<svg xmlns="http://www.w3.org/2000/svg" width="360" height="260" viewBox="0 0 360 260" role="img" aria-label="base_068 · 三棱柱 #08">
<rect width="360" height="260" fill="#ffffff"/>
<polygon points="74.6,199.2 283.4,199.2 256.1,239.0" fill="#dcecf2" fill-opacity="0.62" stroke="none"/>
<polygon points="76.6,21.0 285.4,21.0 258.1,60.8" fill="#e8f3eb" fill-opacity="0.62" stroke="none"/>
<polygon points="74.6,199.2 283.4,199.2 285.4,21.0 76.6,21.0" fill="#f6eadf" fill-opacity="0.62" stroke="none"/>
<polygon points="283.4,199.2 256.1,239.0 258.1,60.8 285.4,21.0" fill="#eee8f6" fill-opacity="0.62" stroke="none"/>
<polygon points="256.1,239.0 74.6,199.2 76.6,21.0 258.1,60.8" fill="#eef0f3" fill-opacity="0.62" stroke="none"/>
<line x1="74.6" y1="199.2" x2="283.4" y2="199.2" stroke="#111" stroke-width="1.7" stroke-linecap="round"/>
<line x1="283.4" y1="199.2" x2="256.1" y2="239.0" stroke="#111" stroke-width="1.7" stroke-linecap="round"/>
<line x1="256.1" y1="239.0" x2="74.6" y2="199.2" stroke="#111" stroke-width="1.7" stroke-linecap="round"/>
<line x1="76.6" y1="21.0" x2="285.4" y2="21.0" stroke="#111" stroke-width="1.7" stroke-linecap="round"/>
<line x1="285.4" y1="21.0" x2="258.1" y2="60.8" stroke="#111" stroke-width="1.7" stroke-linecap="round"/>
<line x1="258.1" y1="60.8" x2="76.6" y2="21.0" stroke="#111" stroke-width="1.7" stroke-linecap="round"/>
<line x1="74.6" y1="199.2" x2="76.6" y2="21.0" stroke="#111" stroke-width="1.7" stroke-linecap="round"/>
<line x1="283.4" y1="199.2" x2="285.4" y2="21.0" stroke="#111" stroke-width="1.7" stroke-linecap="round"/>
<line x1="256.1" y1="239.0" x2="258.1" y2="60.8" stroke="#111" stroke-width="1.7" stroke-linecap="round"/>
<circle cx="74.6" cy="199.2" r="3.2" fill="#d97400"/>
<text x="79.6" y="194.2" font-family="Arial, sans-serif" font-size="11" font-weight="700" fill="#111">A</text>
<circle cx="283.4" cy="199.2" r="3.2" fill="#d97400"/>
<text x="288.4" y="194.2" font-family="Arial, sans-serif" font-size="11" font-weight="700" fill="#111">B</text>
<circle cx="256.1" cy="239.0" r="3.2" fill="#d97400"/>
<text x="261.1" y="234.0" font-family="Arial, sans-serif" font-size="11" font-weight="700" fill="#111">C</text>
<circle cx="76.6" cy="21.0" r="3.2" fill="#d97400"/>
<text x="81.6" y="16.0" font-family="Arial, sans-serif" font-size="11" font-weight="700" fill="#111">A1</text>
<circle cx="285.4" cy="21.0" r="3.2" fill="#d97400"/>
<text x="290.4" y="16.0" font-family="Arial, sans-serif" font-size="11" font-weight="700" fill="#111">B1</text>
<circle cx="258.1" cy="60.8" r="3.2" fill="#d97400"/>
<text x="263.1" y="55.8" font-family="Arial, sans-serif" font-size="11" font-weight="700" fill="#111">C1</text>
</svg>
