<svg xmlns="http://www.w3.org/2000/svg" width="360" height="260" viewBox="0 0 360 260" role="img" aria-label="base_010 · 四棱锥 #10">
<rect width="360" height="260" fill="#ffffff"/>
<polygon points="58.1,206.3 241.6,206.3 301.9,239.0 118.4,239.0" fill="#dcecf2" fill-opacity="0.62" stroke="none"/>
<polygon points="194.9,21.0 58.1,206.3 241.6,206.3" fill="#e8f3eb" fill-opacity="0.62" stroke="none"/>
<polygon points="194.9,21.0 241.6,206.3 301.9,239.0" fill="#f6eadf" fill-opacity="0.62" stroke="none"/>
<polygon points="194.9,21.0 301.9,239.0 118.4,239.0" fill="#eee8f6" fill-opacity="0.62" stroke="none"/>
<polygon points="194.9,21.0 118.4,239.0 58.1,206.3" fill="#eef0f3" fill-opacity="0.62" stroke="none"/>
<line x1="58.1" y1="206.3" x2="241.6" y2="206.3" stroke="#111" stroke-width="1.7" stroke-linecap="round"/>
<line x1="241.6" y1="206.3" x2="301.9" y2="239.0" stroke="#111" stroke-width="1.7" stroke-linecap="round"/>
<line x1="301.9" y1="239.0" x2="118.4" y2="239.0" stroke="#111" stroke-width="1.7" stroke-linecap="round"/>
<line x1="118.4" y1="239.0" x2="58.1" y2="206.3" stroke="#111" stroke-width="1.7" stroke-linecap="round"/>
<line x1="194.9" y1="21.0" x2="58.1" y2="206.3" stroke="#111" stroke-width="1.7" stroke-linecap="round"/>
<line x1="194.9" y1="21.0" x2="241.6" y2="206.3" stroke="#111" stroke-width="1.7" stroke-linecap="round"/>
<line x1="194.9" y1="21.0" x2="301.9" y2="239.0" stroke="#111" stroke-width="1.7" stroke-linecap="round"/>
<line x1="194.9" y1="21.0" x2="118.4" y2="239.0" stroke="#111" stroke-width="1.7" stroke-linecap="round"/>
<circle cx="58.1" cy="206.3" r="3.2" fill="#d97400"/>
<text x="63.1" y="201.3" font-family="Arial, sans-serif" font-size="11" font-weight="700" fill="#111">A</text>
<circle cx="241.6" cy="206.3" r="3.2" fill="#d97400"/>
<text x="246.6" y="201.3" font-family="Arial, sans-serif" font-size="11" font-weight="700" fill="#111">B</text>
<circle cx="301.9" cy="239.0" r="3.2" fill="#d97400"/>
<text x="306.9" y="234.0" font-family="Arial, sans-serif" font-size="11" font-weight="700" fill="#111">C</text>
<circle cx="118.4" cy="239.0" r="3.2" fill="#d97400"/>
<text x="123.4" y="234.0" font-family="Arial, sans-serif" font-size="11" font-weight="700" fill="#111">D</text>
<circle cx="194.9" cy="21.0" r="3.2" fill="#d97400"/>
<text x="199.9" y="16.0" font-family="Arial, sans-serif" font-size="11" font-weight="700" fill="#111">S</text>
</svg>
