<svg xmlns="http://www.w3.org/2000/svg" width="360" height="260" viewBox="0 0 360 260" role="img" aria-label="base_076 · 三棱台 #06">
<rect width="360" height="260" fill="#ffffff"/>
<polygon points="58.7,190.0 301.3,190.0 262.7,239.0" fill="#dcecf2" fill-opacity="0.62" stroke="none"/>
<polygon points="154.8,21.0 266.4,21.0 248.6,43.5" fill="#e8f3eb" fill-opacity="0.62" stroke="none"/>
<polygon points="58.7,190.0 301.3,190.0 266.4,21.0 154.8,21.0" fill="#f6eadf" fill-opacity="0.62" stroke="none"/>
<polygon points="301.3,190.0 262.7,239.0 248.6,43.5 266.4,21.0" fill="#eee8f6" fill-opacity="0.62" stroke="none"/>
<polygon points="262.7,239.0 58.7,190.0 154.8,21.0 248.6,43.5" fill="#eef0f3" fill-opacity="0.62" stroke="none"/>
<line x1="58.7" y1="190.0" x2="301.3" y2="190.0" stroke="#111" stroke-width="1.7" stroke-linecap="round"/>
<line x1="301.3" y1="190.0" x2="262.7" y2="239.0" stroke="#111" stroke-width="1.7" stroke-linecap="round"/>
<line x1="262.7" y1="239.0" x2="58.7" y2="190.0" stroke="#111" stroke-width="1.7" stroke-linecap="round"/>
<line x1="154.8" y1="21.0" x2="266.4" y2="21.0" stroke="#111" stroke-width="1.7" stroke-linecap="round"/>
<line x1="266.4" y1="21.0" x2="248.6" y2="43.5" stroke="#111" stroke-width="1.7" stroke-linecap="round"/>
<line x1="248.6" y1="43.5" x2="154.8" y2="21.0" stroke="#111" stroke-width="1.7" stroke-linecap="round"/>
<line x1="58.7" y1="190.0" x2="154.8" y2="21.0" stroke="#111" stroke-width="1.7" stroke-linecap="round"/>
<line x1="301.3" y1="190.0" x2="266.4" y2="21.0" stroke="#111" stroke-width="1.7" stroke-linecap="round"/>
<line x1="262.7" y1="239.0" x2="248.6" y2="43.5" stroke="#111" stroke-width="1.7" stroke-linecap="round"/>
<circle cx="58.7" cy="190.0" r="3.2" fill="#d97400"/>
<text x="63.7" y="185.0" font-family="Arial, sans-serif" font-size="11" font-weight="700" fill="#111">A</text>
<circle cx="301.3" cy="190.0" r="3.2" fill="#d97400"/>
<text x="306.3" y="185.0" font-family="Arial, sans-serif" font-size="11" font-weight="700" fill="#111">B</text>
<circle cx="262.7" cy="239.0" r="3.2" fill="#d97400"/>
<text x="267.7" y="234.0" font-family="Arial, sans-serif" font-size="11" font-weight="700" fill="#111">C</text>
<circle cx="154.8" cy="21.0" r="3.2" fill="#d97400"/>
<text x="159.8" y="16.0" font-family="Arial, sans-serif" font-size="11" font-weight="700" fill="#111">A1</text>
<circle cx="266.4" cy="21.0" r="3.2" fill="#d97400"/>
<text x="271.4" y="16.0" font-family="Arial, sans-serif" font-size="11" font-weight="700" fill="#111">B1</text>
<circle cx="248.6" cy="43.5" r="3.2" fill="#d97400"/>
<text x="253.6" y="38.5" font-family="Arial, sans-serif" font-size="11" font-weight="700" fill="#111">C1</text>
</svg>
