<svg xmlns="http://www.w3.org/2000/svg" width="360" height="260" viewBox="0 0 360 260" role="img" aria-label="base_027 · 三棱锥 #07">
<rect width="360" height="260" fill="#ffffff"/>
<polygon points="85.8,196.1 274.2,196.1 262.6,239.0" fill="#dcecf2" fill-opacity="0.62" stroke="none"/>
<polygon points="202.7,21.0 85.8,196.1 274.2,196.1" fill="#e8f3eb" fill-opacity="0.62" stroke="none"/>
<polygon points="202.7,21.0 274.2,196.1 262.6,239.0" fill="#f6eadf" fill-opacity="0.62" stroke="none"/>
<polygon points="202.7,21.0 262.6,239.0 85.8,196.1" fill="#eee8f6" fill-opacity="0.62" stroke="none"/>
<line x1="85.8" y1="196.1" x2="274.2" y2="196.1" stroke="#111" stroke-width="1.7" stroke-linecap="round"/>
<line x1="274.2" y1="196.1" x2="262.6" y2="239.0" stroke="#111" stroke-width="1.7" stroke-linecap="round"/>
<line x1="262.6" y1="239.0" x2="85.8" y2="196.1" stroke="#111" stroke-width="1.7" stroke-linecap="round"/>
<line x1="202.7" y1="21.0" x2="85.8" y2="196.1" stroke="#111" stroke-width="1.7" stroke-linecap="round"/>
<line x1="202.7" y1="21.0" x2="274.2" y2="196.1" stroke="#111" stroke-width="1.7" stroke-linecap="round"/>
<line x1="202.7" y1="21.0" x2="262.6" y2="239.0" stroke="#111" stroke-width="1.7" stroke-linecap="round"/>
<circle cx="85.8" cy="196.1" r="3.2" fill="#d97400"/>
<text x="90.8" y="191.1" font-family="Arial, sans-serif" font-size="11" font-weight="700" fill="#111">A</text>
<circle cx="274.2" cy="196.1" r="3.2" fill="#d97400"/>
<text x="279.2" y="191.1" font-family="Arial, sans-serif" font-size="11" font-weight="700" fill="#111">B</text>
<circle cx="262.6" cy="239.0" r="3.2" fill="#d97400"/>
<text x="267.6" y="234.0" font-family="Arial, sans-serif" font-size="11" font-weight="700" fill="#111">C</text>
<circle cx="202.7" cy="21.0" r="3.2" fill="#d97400"/>
<text x="207.7" y="16.0" font-family="Arial, sans-serif" font-size="11" font-weight="700" fill="#111">S</text>
</svg>
