<svg xmlns="http://www.w3.org/2000/svg" width="360" height="260" viewBox="0 0 360 260" role="img" aria-label="base_083 · 楔形体 #03">
<rect width="360" height="260" fill="#ffffff"/>
<polygon points="21.0,168.9 255.3,168.9 339.0,214.2 104.7,214.2" fill="#dcecf2" fill-opacity="0.62" stroke="none"/>
<polygon points="21.0,168.9 255.3,168.9 282.8,45.8 48.5,45.8" fill="#e8f3eb" fill-opacity="0.62" stroke="none"/>
<polygon points="104.7,214.2 339.0,214.2 282.8,45.8 48.5,45.8" fill="#f6eadf" fill-opacity="0.62" stroke="none"/>
<polygon points="21.0,168.9 104.7,214.2 48.5,45.8" fill="#eee8f6" fill-opacity="0.62" stroke="none"/>
<polygon points="255.3,168.9 339.0,214.2 282.8,45.8" fill="#eef0f3" fill-opacity="0.62" stroke="none"/>
<line x1="21.0" y1="168.9" x2="255.3" y2="168.9" stroke="#111" stroke-width="1.7" stroke-linecap="round"/>
<line x1="255.3" y1="168.9" x2="339.0" y2="214.2" stroke="#111" stroke-width="1.7" stroke-linecap="round"/>
<line x1="339.0" y1="214.2" x2="104.7" y2="214.2" stroke="#111" stroke-width="1.7" stroke-linecap="round"/>
<line x1="104.7" y1="214.2" x2="21.0" y2="168.9" stroke="#111" stroke-width="1.7" stroke-linecap="round"/>
<line x1="21.0" y1="168.9" x2="48.5" y2="45.8" stroke="#111" stroke-width="1.7" stroke-linecap="round"/>
<line x1="255.3" y1="168.9" x2="282.8" y2="45.8" stroke="#111" stroke-width="1.7" stroke-linecap="round"/>
<line x1="48.5" y1="45.8" x2="282.8" y2="45.8" stroke="#111" stroke-width="1.7" stroke-linecap="round"/>
<line x1="104.7" y1="214.2" x2="48.5" y2="45.8" stroke="#111" stroke-width="1.7" stroke-linecap="round"/>
<line x1="339.0" y1="214.2" x2="282.8" y2="45.8" stroke="#111" stroke-width="1.7" stroke-linecap="round"/>
<circle cx="21.0" cy="168.9" r="3.2" fill="#d97400"/>
<text x="26.0" y="163.9" font-family="Arial, sans-serif" font-size="11" font-weight="700" fill="#111">A</text>
<circle cx="255.3" cy="168.9" r="3.2" fill="#d97400"/>
<text x="260.3" y="163.9" font-family="Arial, sans-serif" font-size="11" font-weight="700" fill="#111">B</text>
<circle cx="339.0" cy="214.2" r="3.2" fill="#d97400"/>
<text x="344.0" y="209.2" font-family="Arial, sans-serif" font-size="11" font-weight="700" fill="#111">C</text>
<circle cx="104.7" cy="214.2" r="3.2" fill="#d97400"/>
<text x="109.7" y="209.2" font-family="Arial, sans-serif" font-size="11" font-weight="700" fill="#111">D</text>
<circle cx="48.5" cy="45.8" r="3.2" fill="#d97400"/>
<text x="53.5" y="40.8" font-family="Arial, sans-serif" font-size="11" font-weight="700" fill="#111">A1</text>
<circle cx="282.8" cy="45.8" r="3.2" fill="#d97400"/>
<text x="287.8" y="40.8" font-family="Arial, sans-serif" font-size="11" font-weight="700" fill="#111">B1</text>
</svg>
