<svg xmlns="http://www.w3.org/2000/svg" width="360" height="260" viewBox="0 0 360 260" role="img" aria-label="base_012 · 偏顶四棱锥 #02">
<rect width="360" height="260" fill="#ffffff"/>
<polygon points="21.0,186.5 250.9,186.5 339.0,234.3 109.1,234.3" fill="#dcecf2" fill-opacity="0.62" stroke="none"/>
<polygon points="152.1,25.7 21.0,186.5 250.9,186.5" fill="#e8f3eb" fill-opacity="0.62" stroke="none"/>
<polygon points="152.1,25.7 250.9,186.5 339.0,234.3" fill="#f6eadf" fill-opacity="0.62" stroke="none"/>
<polygon points="152.1,25.7 339.0,234.3 109.1,234.3" fill="#eee8f6" fill-opacity="0.62" stroke="none"/>
<polygon points="152.1,25.7 109.1,234.3 21.0,186.5" fill="#eef0f3" fill-opacity="0.62" stroke="none"/>
<line x1="21.0" y1="186.5" x2="250.9" y2="186.5" stroke="#111" stroke-width="1.7" stroke-linecap="round"/>
<line x1="250.9" y1="186.5" x2="339.0" y2="234.3" stroke="#111" stroke-width="1.7" stroke-linecap="round"/>
<line x1="339.0" y1="234.3" x2="109.1" y2="234.3" stroke="#111" stroke-width="1.7" stroke-linecap="round"/>
<line x1="109.1" y1="234.3" x2="21.0" y2="186.5" stroke="#111" stroke-width="1.7" stroke-linecap="round"/>
<line x1="152.1" y1="25.7" x2="21.0" y2="186.5" stroke="#111" stroke-width="1.7" stroke-linecap="round"/>
<line x1="152.1" y1="25.7" x2="250.9" y2="186.5" stroke="#111" stroke-width="1.7" stroke-linecap="round"/>
<line x1="152.1" y1="25.7" x2="339.0" y2="234.3" stroke="#111" stroke-width="1.7" stroke-linecap="round"/>
<line x1="152.1" y1="25.7" x2="109.1" y2="234.3" stroke="#111" stroke-width="1.7" stroke-linecap="round"/>
<circle cx="21.0" cy="186.5" r="3.2" fill="#d97400"/>
<text x="26.0" y="181.5" font-family="Arial, sans-serif" font-size="11" font-weight="700" fill="#111">A</text>
<circle cx="250.9" cy="186.5" r="3.2" fill="#d97400"/>
<text x="255.9" y="181.5" font-family="Arial, sans-serif" font-size="11" font-weight="700" fill="#111">B</text>
<circle cx="339.0" cy="234.3" r="3.2" fill="#d97400"/>
<text x="344.0" y="229.3" font-family="Arial, sans-serif" font-size="11" font-weight="700" fill="#111">C</text>
<circle cx="109.1" cy="234.3" r="3.2" fill="#d97400"/>
<text x="114.1" y="229.3" font-family="Arial, sans-serif" font-size="11" font-weight="700" fill="#111">D</text>
<circle cx="152.1" cy="25.7" r="3.2" fill="#d97400"/>
<text x="157.1" y="20.7" font-family="Arial, sans-serif" font-size="11" font-weight="700" fill="#111">S</text>
</svg>
