<svg xmlns="http://www.w3.org/2000/svg" width="360" height="260" viewBox="0 0 360 260" role="img" aria-label="base_026 · 三棱锥 #06">
<rect width="360" height="260" fill="#ffffff"/>
<polygon points="83.2,195.6 276.8,198.6 257.4,239.0" fill="#dcecf2" fill-opacity="0.62" stroke="none"/>
<polygon points="194.2,21.0 83.2,195.6 276.8,198.6" fill="#e8f3eb" fill-opacity="0.62" stroke="none"/>
<polygon points="194.2,21.0 276.8,198.6 257.4,239.0" fill="#f6eadf" fill-opacity="0.62" stroke="none"/>
<polygon points="194.2,21.0 257.4,239.0 83.2,195.6" fill="#eee8f6" fill-opacity="0.62" stroke="none"/>
<line x1="83.2" y1="195.6" x2="276.8" y2="198.6" stroke="#111" stroke-width="1.7" stroke-linecap="round"/>
<line x1="276.8" y1="198.6" x2="257.4" y2="239.0" stroke="#111" stroke-width="1.7" stroke-linecap="round"/>
<line x1="257.4" y1="239.0" x2="83.2" y2="195.6" stroke="#111" stroke-width="1.7" stroke-linecap="round"/>
<line x1="194.2" y1="21.0" x2="83.2" y2="195.6" stroke="#111" stroke-width="1.7" stroke-linecap="round"/>
<line x1="194.2" y1="21.0" x2="276.8" y2="198.6" stroke="#111" stroke-width="1.7" stroke-linecap="round"/>
<line x1="194.2" y1="21.0" x2="257.4" y2="239.0" stroke="#111" stroke-width="1.7" stroke-linecap="round"/>
<circle cx="83.2" cy="195.6" r="3.2" fill="#d97400"/>
<text x="88.2" y="190.6" font-family="Arial, sans-serif" font-size="11" font-weight="700" fill="#111">A</text>
<circle cx="276.8" cy="198.6" r="3.2" fill="#d97400"/>
<text x="281.8" y="193.6" font-family="Arial, sans-serif" font-size="11" font-weight="700" fill="#111">B</text>
<circle cx="257.4" cy="239.0" r="3.2" fill="#d97400"/>
<text x="262.4" y="234.0" font-family="Arial, sans-serif" font-size="11" font-weight="700" fill="#111">C</text>
<circle cx="194.2" cy="21.0" r="3.2" fill="#d97400"/>
<text x="199.2" y="16.0" font-family="Arial, sans-serif" font-size="11" font-weight="700" fill="#111">S</text>
</svg>
