<svg xmlns="http://www.w3.org/2000/svg" width="360" height="260" viewBox="0 0 360 260" role="img" aria-label="base_043 · 斜四棱柱 #03">
<rect width="360" height="260" fill="#ffffff"/>
<polygon points="42.6,191.5 260.9,191.5 339.0,233.9 120.7,233.9" fill="#dcecf2" fill-opacity="0.62" stroke="none"/>
<polygon points="21.0,26.1 239.3,26.1 317.4,68.5 99.1,68.5" fill="#e8f3eb" fill-opacity="0.62" stroke="none"/>
<polygon points="42.6,191.5 260.9,191.5 239.3,26.1 21.0,26.1" fill="#f6eadf" fill-opacity="0.62" stroke="none"/>
<polygon points="260.9,191.5 339.0,233.9 317.4,68.5 239.3,26.1" fill="#eee8f6" fill-opacity="0.62" stroke="none"/>
<polygon points="339.0,233.9 120.7,233.9 99.1,68.5 317.4,68.5" fill="#eef0f3" fill-opacity="0.62" stroke="none"/>
<polygon points="120.7,233.9 42.6,191.5 21.0,26.1 99.1,68.5" fill="#dcecf2" fill-opacity="0.62" stroke="none"/>
<line x1="42.6" y1="191.5" x2="260.9" y2="191.5" stroke="#111" stroke-width="1.7" stroke-linecap="round"/>
<line x1="260.9" y1="191.5" x2="339.0" y2="233.9" stroke="#111" stroke-width="1.7" stroke-linecap="round"/>
<line x1="339.0" y1="233.9" x2="120.7" y2="233.9" stroke="#111" stroke-width="1.7" stroke-linecap="round"/>
<line x1="120.7" y1="233.9" x2="42.6" y2="191.5" stroke="#111" stroke-width="1.7" stroke-linecap="round"/>
<line x1="21.0" y1="26.1" x2="239.3" y2="26.1" stroke="#111" stroke-width="1.7" stroke-linecap="round"/>
<line x1="239.3" y1="26.1" x2="317.4" y2="68.5" stroke="#111" stroke-width="1.7" stroke-linecap="round"/>
<line x1="317.4" y1="68.5" x2="99.1" y2="68.5" stroke="#111" stroke-width="1.7" stroke-linecap="round"/>
<line x1="99.1" y1="68.5" x2="21.0" y2="26.1" stroke="#111" stroke-width="1.7" stroke-linecap="round"/>
<line x1="42.6" y1="191.5" x2="21.0" y2="26.1" stroke="#111" stroke-width="1.7" stroke-linecap="round"/>
<line x1="260.9" y1="191.5" x2="239.3" y2="26.1" stroke="#111" stroke-width="1.7" stroke-linecap="round"/>
<line x1="339.0" y1="233.9" x2="317.4" y2="68.5" stroke="#111" stroke-width="1.7" stroke-linecap="round"/>
<line x1="120.7" y1="233.9" x2="99.1" y2="68.5" stroke="#111" stroke-width="1.7" stroke-linecap="round"/>
<circle cx="42.6" cy="191.5" r="3.2" fill="#d97400"/>
<text x="47.6" y="186.5" font-family="Arial, sans-serif" font-size="11" font-weight="700" fill="#111">A</text>
<circle cx="260.9" cy="191.5" r="3.2" fill="#d97400"/>
<text x="265.9" y="186.5" font-family="Arial, sans-serif" font-size="11" font-weight="700" fill="#111">B</text>
<circle cx="339.0" cy="233.9" r="3.2" fill="#d97400"/>
<text x="344.0" y="228.9" font-family="Arial, sans-serif" font-size="11" font-weight="700" fill="#111">C</text>
<circle cx="120.7" cy="233.9" r="3.2" fill="#d97400"/>
<text x="125.7" y="228.9" font-family="Arial, sans-serif" font-size="11" font-weight="700" fill="#111">D</text>
<circle cx="21.0" cy="26.1" r="3.2" fill="#d97400"/>
<text x="26.0" y="21.1" font-family="Arial, sans-serif" font-size="11" font-weight="700" fill="#111">A1</text>
<circle cx="239.3" cy="26.1" r="3.2" fill="#d97400"/>
<text x="244.3" y="21.1" font-family="Arial, sans-serif" font-size="11" font-weight="700" fill="#111">B1</text>
<circle cx="317.4" cy="68.5" r="3.2" fill="#d97400"/>
<text x="322.4" y="63.5" font-family="Arial, sans-serif" font-size="11" font-weight="700" fill="#111">C1</text>
<circle cx="99.1" cy="68.5" r="3.2" fill="#d97400"/>
<text x="104.1" y="63.5" font-family="Arial, sans-serif" font-size="11" font-weight="700" fill="#111">D1</text>
</svg>
