<svg xmlns="http://www.w3.org/2000/svg" width="360" height="260" viewBox="0 0 360 260" role="img" aria-label="base_049 · 斜四棱柱 #09">
<rect width="360" height="260" fill="#ffffff"/>
<polygon points="54.6,201.4 226.1,201.4 295.4,239.0 124.0,239.0" fill="#dcecf2" fill-opacity="0.62" stroke="none"/>
<polygon points="64.6,21.0 236.0,21.0 305.4,58.6 133.9,58.6" fill="#e8f3eb" fill-opacity="0.62" stroke="none"/>
<polygon points="54.6,201.4 226.1,201.4 236.0,21.0 64.6,21.0" fill="#f6eadf" fill-opacity="0.62" stroke="none"/>
<polygon points="226.1,201.4 295.4,239.0 305.4,58.6 236.0,21.0" fill="#eee8f6" fill-opacity="0.62" stroke="none"/>
<polygon points="295.4,239.0 124.0,239.0 133.9,58.6 305.4,58.6" fill="#eef0f3" fill-opacity="0.62" stroke="none"/>
<polygon points="124.0,239.0 54.6,201.4 64.6,21.0 133.9,58.6" fill="#dcecf2" fill-opacity="0.62" stroke="none"/>
<line x1="54.6" y1="201.4" x2="226.1" y2="201.4" stroke="#111" stroke-width="1.7" stroke-linecap="round"/>
<line x1="226.1" y1="201.4" x2="295.4" y2="239.0" stroke="#111" stroke-width="1.7" stroke-linecap="round"/>
<line x1="295.4" y1="239.0" x2="124.0" y2="239.0" stroke="#111" stroke-width="1.7" stroke-linecap="round"/>
<line x1="124.0" y1="239.0" x2="54.6" y2="201.4" stroke="#111" stroke-width="1.7" stroke-linecap="round"/>
<line x1="64.6" y1="21.0" x2="236.0" y2="21.0" stroke="#111" stroke-width="1.7" stroke-linecap="round"/>
<line x1="236.0" y1="21.0" x2="305.4" y2="58.6" stroke="#111" stroke-width="1.7" stroke-linecap="round"/>
<line x1="305.4" y1="58.6" x2="133.9" y2="58.6" stroke="#111" stroke-width="1.7" stroke-linecap="round"/>
<line x1="133.9" y1="58.6" x2="64.6" y2="21.0" stroke="#111" stroke-width="1.7" stroke-linecap="round"/>
<line x1="54.6" y1="201.4" x2="64.6" y2="21.0" stroke="#111" stroke-width="1.7" stroke-linecap="round"/>
<line x1="226.1" y1="201.4" x2="236.0" y2="21.0" stroke="#111" stroke-width="1.7" stroke-linecap="round"/>
<line x1="295.4" y1="239.0" x2="305.4" y2="58.6" stroke="#111" stroke-width="1.7" stroke-linecap="round"/>
<line x1="124.0" y1="239.0" x2="133.9" y2="58.6" stroke="#111" stroke-width="1.7" stroke-linecap="round"/>
<circle cx="54.6" cy="201.4" r="3.2" fill="#d97400"/>
<text x="59.6" y="196.4" font-family="Arial, sans-serif" font-size="11" font-weight="700" fill="#111">A</text>
<circle cx="226.1" cy="201.4" r="3.2" fill="#d97400"/>
<text x="231.1" y="196.4" font-family="Arial, sans-serif" font-size="11" font-weight="700" fill="#111">B</text>
<circle cx="295.4" cy="239.0" r="3.2" fill="#d97400"/>
<text x="300.4" y="234.0" font-family="Arial, sans-serif" font-size="11" font-weight="700" fill="#111">C</text>
<circle cx="124.0" cy="239.0" r="3.2" fill="#d97400"/>
<text x="129.0" y="234.0" font-family="Arial, sans-serif" font-size="11" font-weight="700" fill="#111">D</text>
<circle cx="64.6" cy="21.0" r="3.2" fill="#d97400"/>
<text x="69.6" y="16.0" font-family="Arial, sans-serif" font-size="11" font-weight="700" fill="#111">A1</text>
<circle cx="236.0" cy="21.0" r="3.2" fill="#d97400"/>
<text x="241.0" y="16.0" font-family="Arial, sans-serif" font-size="11" font-weight="700" fill="#111">B1</text>
<circle cx="305.4" cy="58.6" r="3.2" fill="#d97400"/>
<text x="310.4" y="53.6" font-family="Arial, sans-serif" font-size="11" font-weight="700" fill="#111">C1</text>
<circle cx="133.9" cy="58.6" r="3.2" fill="#d97400"/>
<text x="138.9" y="53.6" font-family="Arial, sans-serif" font-size="11" font-weight="700" fill="#111">D1</text>
</svg>
