<svg xmlns="http://www.w3.org/2000/svg" width="360" height="260" viewBox="0 0 360 260" role="img" aria-label="base_030 · 三棱锥 #10">
<rect width="360" height="260" fill="#ffffff"/>
<polygon points="84.1,202.1 275.9,202.1 260.4,239.0" fill="#dcecf2" fill-opacity="0.62" stroke="none"/>
<polygon points="213.1,21.0 84.1,202.1 275.9,202.1" fill="#e8f3eb" fill-opacity="0.62" stroke="none"/>
<polygon points="213.1,21.0 275.9,202.1 260.4,239.0" fill="#f6eadf" fill-opacity="0.62" stroke="none"/>
<polygon points="213.1,21.0 260.4,239.0 84.1,202.1" fill="#eee8f6" fill-opacity="0.62" stroke="none"/>
<line x1="84.1" y1="202.1" x2="275.9" y2="202.1" stroke="#111" stroke-width="1.7" stroke-linecap="round"/>
<line x1="275.9" y1="202.1" x2="260.4" y2="239.0" stroke="#111" stroke-width="1.7" stroke-linecap="round"/>
<line x1="260.4" y1="239.0" x2="84.1" y2="202.1" stroke="#111" stroke-width="1.7" stroke-linecap="round"/>
<line x1="213.1" y1="21.0" x2="84.1" y2="202.1" stroke="#111" stroke-width="1.7" stroke-linecap="round"/>
<line x1="213.1" y1="21.0" x2="275.9" y2="202.1" stroke="#111" stroke-width="1.7" stroke-linecap="round"/>
<line x1="213.1" y1="21.0" x2="260.4" y2="239.0" stroke="#111" stroke-width="1.7" stroke-linecap="round"/>
<circle cx="84.1" cy="202.1" r="3.2" fill="#d97400"/>
<text x="89.1" y="197.1" font-family="Arial, sans-serif" font-size="11" font-weight="700" fill="#111">A</text>
<circle cx="275.9" cy="202.1" r="3.2" fill="#d97400"/>
<text x="280.9" y="197.1" font-family="Arial, sans-serif" font-size="11" font-weight="700" fill="#111">B</text>
<circle cx="260.4" cy="239.0" r="3.2" fill="#d97400"/>
<text x="265.4" y="234.0" font-family="Arial, sans-serif" font-size="11" font-weight="700" fill="#111">C</text>
<circle cx="213.1" cy="21.0" r="3.2" fill="#d97400"/>
<text x="218.1" y="16.0" font-family="Arial, sans-serif" font-size="11" font-weight="700" fill="#111">S</text>
</svg>
