<svg xmlns="http://www.w3.org/2000/svg" width="360" height="260" viewBox="0 0 360 260" role="img" aria-label="base_098 · 长方体叠四棱锥 #08">
<rect width="360" height="260" fill="#ffffff"/>
<polygon points="47.7,201.5 243.1,201.5 312.3,239.0 116.9,239.0" fill="#dcecf2" fill-opacity="0.62" stroke="none"/>
<polygon points="47.7,201.5 243.1,201.5 243.1,123.3 47.7,123.3" fill="#e8f3eb" fill-opacity="0.62" stroke="none"/>
<polygon points="243.1,201.5 312.3,239.0 312.3,160.8 243.1,123.3" fill="#f6eadf" fill-opacity="0.62" stroke="none"/>
<polygon points="312.3,239.0 116.9,239.0 116.9,160.8 312.3,160.8" fill="#eee8f6" fill-opacity="0.62" stroke="none"/>
<polygon points="116.9,239.0 47.7,201.5 47.7,123.3 116.9,160.8" fill="#eef0f3" fill-opacity="0.62" stroke="none"/>
<polygon points="188.2,21.0 47.7,123.3 243.1,123.3" fill="#dcecf2" fill-opacity="0.62" stroke="none"/>
<polygon points="188.2,21.0 243.1,123.3 312.3,160.8" fill="#e8f3eb" fill-opacity="0.62" stroke="none"/>
<polygon points="188.2,21.0 312.3,160.8 116.9,160.8" fill="#f6eadf" fill-opacity="0.62" stroke="none"/>
<polygon points="188.2,21.0 116.9,160.8 47.7,123.3" fill="#eee8f6" fill-opacity="0.62" stroke="none"/>
<line x1="47.7" y1="201.5" x2="243.1" y2="201.5" stroke="#111" stroke-width="1.7" stroke-linecap="round"/>
<line x1="243.1" y1="201.5" x2="312.3" y2="239.0" stroke="#111" stroke-width="1.7" stroke-linecap="round"/>
<line x1="312.3" y1="239.0" x2="116.9" y2="239.0" stroke="#111" stroke-width="1.7" stroke-linecap="round"/>
<line x1="116.9" y1="239.0" x2="47.7" y2="201.5" stroke="#111" stroke-width="1.7" stroke-linecap="round"/>
<line x1="47.7" y1="123.3" x2="243.1" y2="123.3" stroke="#111" stroke-width="1.7" stroke-linecap="round"/>
<line x1="243.1" y1="123.3" x2="312.3" y2="160.8" stroke="#111" stroke-width="1.7" stroke-linecap="round"/>
<line x1="312.3" y1="160.8" x2="116.9" y2="160.8" stroke="#111" stroke-width="1.7" stroke-linecap="round"/>
<line x1="116.9" y1="160.8" x2="47.7" y2="123.3" stroke="#111" stroke-width="1.7" stroke-linecap="round"/>
<line x1="47.7" y1="201.5" x2="47.7" y2="123.3" stroke="#111" stroke-width="1.7" stroke-linecap="round"/>
<line x1="243.1" y1="201.5" x2="243.1" y2="123.3" stroke="#111" stroke-width="1.7" stroke-linecap="round"/>
<line x1="312.3" y1="239.0" x2="312.3" y2="160.8" stroke="#111" stroke-width="1.7" stroke-linecap="round"/>
<line x1="116.9" y1="239.0" x2="116.9" y2="160.8" stroke="#111" stroke-width="1.7" stroke-linecap="round"/>
<line x1="188.2" y1="21.0" x2="47.7" y2="123.3" stroke="#111" stroke-width="1.7" stroke-linecap="round"/>
<line x1="188.2" y1="21.0" x2="243.1" y2="123.3" stroke="#111" stroke-width="1.7" stroke-linecap="round"/>
<line x1="188.2" y1="21.0" x2="312.3" y2="160.8" stroke="#111" stroke-width="1.7" stroke-linecap="round"/>
<line x1="188.2" y1="21.0" x2="116.9" y2="160.8" stroke="#111" stroke-width="1.7" stroke-linecap="round"/>
<circle cx="47.7" cy="201.5" r="3.2" fill="#d97400"/>
<text x="52.7" y="196.5" font-family="Arial, sans-serif" font-size="11" font-weight="700" fill="#111">A</text>
<circle cx="243.1" cy="201.5" r="3.2" fill="#d97400"/>
<text x="248.1" y="196.5" font-family="Arial, sans-serif" font-size="11" font-weight="700" fill="#111">B</text>
<circle cx="312.3" cy="239.0" r="3.2" fill="#d97400"/>
<text x="317.3" y="234.0" font-family="Arial, sans-serif" font-size="11" font-weight="700" fill="#111">C</text>
<circle cx="116.9" cy="239.0" r="3.2" fill="#d97400"/>
<text x="121.9" y="234.0" font-family="Arial, sans-serif" font-size="11" font-weight="700" fill="#111">D</text>
<circle cx="47.7" cy="123.3" r="3.2" fill="#d97400"/>
<text x="52.7" y="118.3" font-family="Arial, sans-serif" font-size="11" font-weight="700" fill="#111">A1</text>
<circle cx="243.1" cy="123.3" r="3.2" fill="#d97400"/>
<text x="248.1" y="118.3" font-family="Arial, sans-serif" font-size="11" font-weight="700" fill="#111">B1</text>
<circle cx="312.3" cy="160.8" r="3.2" fill="#d97400"/>
<text x="317.3" y="155.8" font-family="Arial, sans-serif" font-size="11" font-weight="700" fill="#111">C1</text>
<circle cx="116.9" cy="160.8" r="3.2" fill="#d97400"/>
<text x="121.9" y="155.8" font-family="Arial, sans-serif" font-size="11" font-weight="700" fill="#111">D1</text>
<circle cx="188.2" cy="21.0" r="3.2" fill="#d97400"/>
<text x="193.2" y="16.0" font-family="Arial, sans-serif" font-size="11" font-weight="700" fill="#111">S</text>
</svg>
