<svg xmlns="http://www.w3.org/2000/svg" width="360" height="260" viewBox="0 0 360 260" role="img" aria-label="base_091 · 长方体叠四棱锥 #01">
<rect width="360" height="260" fill="#ffffff"/>
<polygon points="32.0,196.7 250.0,196.7 328.0,239.0 110.0,239.0" fill="#dcecf2" fill-opacity="0.62" stroke="none"/>
<polygon points="32.0,196.7 250.0,196.7 250.0,107.9 32.0,107.9" fill="#e8f3eb" fill-opacity="0.62" stroke="none"/>
<polygon points="250.0,196.7 328.0,239.0 328.0,150.2 250.0,107.9" fill="#f6eadf" fill-opacity="0.62" stroke="none"/>
<polygon points="328.0,239.0 110.0,239.0 110.0,150.2 328.0,150.2" fill="#eee8f6" fill-opacity="0.62" stroke="none"/>
<polygon points="110.0,239.0 32.0,196.7 32.0,107.9 110.0,150.2" fill="#eef0f3" fill-opacity="0.62" stroke="none"/>
<polygon points="168.6,21.0 32.0,107.9 250.0,107.9" fill="#dcecf2" fill-opacity="0.62" stroke="none"/>
<polygon points="168.6,21.0 250.0,107.9 328.0,150.2" fill="#e8f3eb" fill-opacity="0.62" stroke="none"/>
<polygon points="168.6,21.0 328.0,150.2 110.0,150.2" fill="#f6eadf" fill-opacity="0.62" stroke="none"/>
<polygon points="168.6,21.0 110.0,150.2 32.0,107.9" fill="#eee8f6" fill-opacity="0.62" stroke="none"/>
<line x1="32.0" y1="196.7" x2="250.0" y2="196.7" stroke="#111" stroke-width="1.7" stroke-linecap="round"/>
<line x1="250.0" y1="196.7" x2="328.0" y2="239.0" stroke="#111" stroke-width="1.7" stroke-linecap="round"/>
<line x1="328.0" y1="239.0" x2="110.0" y2="239.0" stroke="#111" stroke-width="1.7" stroke-linecap="round"/>
<line x1="110.0" y1="239.0" x2="32.0" y2="196.7" stroke="#111" stroke-width="1.7" stroke-linecap="round"/>
<line x1="32.0" y1="107.9" x2="250.0" y2="107.9" stroke="#111" stroke-width="1.7" stroke-linecap="round"/>
<line x1="250.0" y1="107.9" x2="328.0" y2="150.2" stroke="#111" stroke-width="1.7" stroke-linecap="round"/>
<line x1="328.0" y1="150.2" x2="110.0" y2="150.2" stroke="#111" stroke-width="1.7" stroke-linecap="round"/>
<line x1="110.0" y1="150.2" x2="32.0" y2="107.9" stroke="#111" stroke-width="1.7" stroke-linecap="round"/>
<line x1="32.0" y1="196.7" x2="32.0" y2="107.9" stroke="#111" stroke-width="1.7" stroke-linecap="round"/>
<line x1="250.0" y1="196.7" x2="250.0" y2="107.9" stroke="#111" stroke-width="1.7" stroke-linecap="round"/>
<line x1="328.0" y1="239.0" x2="328.0" y2="150.2" stroke="#111" stroke-width="1.7" stroke-linecap="round"/>
<line x1="110.0" y1="239.0" x2="110.0" y2="150.2" stroke="#111" stroke-width="1.7" stroke-linecap="round"/>
<line x1="168.6" y1="21.0" x2="32.0" y2="107.9" stroke="#111" stroke-width="1.7" stroke-linecap="round"/>
<line x1="168.6" y1="21.0" x2="250.0" y2="107.9" stroke="#111" stroke-width="1.7" stroke-linecap="round"/>
<line x1="168.6" y1="21.0" x2="328.0" y2="150.2" stroke="#111" stroke-width="1.7" stroke-linecap="round"/>
<line x1="168.6" y1="21.0" x2="110.0" y2="150.2" stroke="#111" stroke-width="1.7" stroke-linecap="round"/>
<circle cx="32.0" cy="196.7" r="3.2" fill="#d97400"/>
<text x="37.0" y="191.7" font-family="Arial, sans-serif" font-size="11" font-weight="700" fill="#111">A</text>
<circle cx="250.0" cy="196.7" r="3.2" fill="#d97400"/>
<text x="255.0" y="191.7" font-family="Arial, sans-serif" font-size="11" font-weight="700" fill="#111">B</text>
<circle cx="328.0" cy="239.0" r="3.2" fill="#d97400"/>
<text x="333.0" y="234.0" font-family="Arial, sans-serif" font-size="11" font-weight="700" fill="#111">C</text>
<circle cx="110.0" cy="239.0" r="3.2" fill="#d97400"/>
<text x="115.0" y="234.0" font-family="Arial, sans-serif" font-size="11" font-weight="700" fill="#111">D</text>
<circle cx="32.0" cy="107.9" r="3.2" fill="#d97400"/>
<text x="37.0" y="102.9" font-family="Arial, sans-serif" font-size="11" font-weight="700" fill="#111">A1</text>
<circle cx="250.0" cy="107.9" r="3.2" fill="#d97400"/>
<text x="255.0" y="102.9" font-family="Arial, sans-serif" font-size="11" font-weight="700" fill="#111">B1</text>
<circle cx="328.0" cy="150.2" r="3.2" fill="#d97400"/>
<text x="333.0" y="145.2" font-family="Arial, sans-serif" font-size="11" font-weight="700" fill="#111">C1</text>
<circle cx="110.0" cy="150.2" r="3.2" fill="#d97400"/>
<text x="115.0" y="145.2" font-family="Arial, sans-serif" font-size="11" font-weight="700" fill="#111">D1</text>
<circle cx="168.6" cy="21.0" r="3.2" fill="#d97400"/>
<text x="173.6" y="16.0" font-family="Arial, sans-serif" font-size="11" font-weight="700" fill="#111">S</text>
</svg>
