<svg xmlns="http://www.w3.org/2000/svg" width="360" height="260" viewBox="0 0 360 260" role="img" aria-label="base_072 · 三棱台 #02">
<rect width="360" height="260" fill="#ffffff"/>
<polygon points="42.3,181.5 317.7,181.5 277.3,239.0" fill="#dcecf2" fill-opacity="0.62" stroke="none"/>
<polygon points="131.4,21.0 267.7,21.0 247.8,49.5" fill="#e8f3eb" fill-opacity="0.62" stroke="none"/>
<polygon points="42.3,181.5 317.7,181.5 267.7,21.0 131.4,21.0" fill="#f6eadf" fill-opacity="0.62" stroke="none"/>
<polygon points="317.7,181.5 277.3,239.0 247.8,49.5 267.7,21.0" fill="#eee8f6" fill-opacity="0.62" stroke="none"/>
<polygon points="277.3,239.0 42.3,181.5 131.4,21.0 247.8,49.5" fill="#eef0f3" fill-opacity="0.62" stroke="none"/>
<line x1="42.3" y1="181.5" x2="317.7" y2="181.5" stroke="#111" stroke-width="1.7" stroke-linecap="round"/>
<line x1="317.7" y1="181.5" x2="277.3" y2="239.0" stroke="#111" stroke-width="1.7" stroke-linecap="round"/>
<line x1="277.3" y1="239.0" x2="42.3" y2="181.5" stroke="#111" stroke-width="1.7" stroke-linecap="round"/>
<line x1="131.4" y1="21.0" x2="267.7" y2="21.0" stroke="#111" stroke-width="1.7" stroke-linecap="round"/>
<line x1="267.7" y1="21.0" x2="247.8" y2="49.5" stroke="#111" stroke-width="1.7" stroke-linecap="round"/>
<line x1="247.8" y1="49.5" x2="131.4" y2="21.0" stroke="#111" stroke-width="1.7" stroke-linecap="round"/>
<line x1="42.3" y1="181.5" x2="131.4" y2="21.0" stroke="#111" stroke-width="1.7" stroke-linecap="round"/>
<line x1="317.7" y1="181.5" x2="267.7" y2="21.0" stroke="#111" stroke-width="1.7" stroke-linecap="round"/>
<line x1="277.3" y1="239.0" x2="247.8" y2="49.5" stroke="#111" stroke-width="1.7" stroke-linecap="round"/>
<circle cx="42.3" cy="181.5" r="3.2" fill="#d97400"/>
<text x="47.3" y="176.5" font-family="Arial, sans-serif" font-size="11" font-weight="700" fill="#111">A</text>
<circle cx="317.7" cy="181.5" r="3.2" fill="#d97400"/>
<text x="322.7" y="176.5" font-family="Arial, sans-serif" font-size="11" font-weight="700" fill="#111">B</text>
<circle cx="277.3" cy="239.0" r="3.2" fill="#d97400"/>
<text x="282.3" y="234.0" font-family="Arial, sans-serif" font-size="11" font-weight="700" fill="#111">C</text>
<circle cx="131.4" cy="21.0" r="3.2" fill="#d97400"/>
<text x="136.4" y="16.0" font-family="Arial, sans-serif" font-size="11" font-weight="700" fill="#111">A1</text>
<circle cx="267.7" cy="21.0" r="3.2" fill="#d97400"/>
<text x="272.7" y="16.0" font-family="Arial, sans-serif" font-size="11" font-weight="700" fill="#111">B1</text>
<circle cx="247.8" cy="49.5" r="3.2" fill="#d97400"/>
<text x="252.8" y="44.5" font-family="Arial, sans-serif" font-size="11" font-weight="700" fill="#111">C1</text>
</svg>
