<svg xmlns="http://www.w3.org/2000/svg" width="360" height="260" viewBox="0 0 360 260" role="img" aria-label="base_042 · 斜四棱柱 #02">
<rect width="360" height="260" fill="#ffffff"/>
<polygon points="38.1,188.8 260.4,188.8 339.0,231.4 116.6,231.4" fill="#dcecf2" fill-opacity="0.62" stroke="none"/>
<polygon points="21.0,28.6 243.4,28.6 321.9,71.2 99.6,71.2" fill="#e8f3eb" fill-opacity="0.62" stroke="none"/>
<polygon points="38.1,188.8 260.4,188.8 243.4,28.6 21.0,28.6" fill="#f6eadf" fill-opacity="0.62" stroke="none"/>
<polygon points="260.4,188.8 339.0,231.4 321.9,71.2 243.4,28.6" fill="#eee8f6" fill-opacity="0.62" stroke="none"/>
<polygon points="339.0,231.4 116.6,231.4 99.6,71.2 321.9,71.2" fill="#eef0f3" fill-opacity="0.62" stroke="none"/>
<polygon points="116.6,231.4 38.1,188.8 21.0,28.6 99.6,71.2" fill="#dcecf2" fill-opacity="0.62" stroke="none"/>
<line x1="38.1" y1="188.8" x2="260.4" y2="188.8" stroke="#111" stroke-width="1.7" stroke-linecap="round"/>
<line x1="260.4" y1="188.8" x2="339.0" y2="231.4" stroke="#111" stroke-width="1.7" stroke-linecap="round"/>
<line x1="339.0" y1="231.4" x2="116.6" y2="231.4" stroke="#111" stroke-width="1.7" stroke-linecap="round"/>
<line x1="116.6" y1="231.4" x2="38.1" y2="188.8" stroke="#111" stroke-width="1.7" stroke-linecap="round"/>
<line x1="21.0" y1="28.6" x2="243.4" y2="28.6" stroke="#111" stroke-width="1.7" stroke-linecap="round"/>
<line x1="243.4" y1="28.6" x2="321.9" y2="71.2" stroke="#111" stroke-width="1.7" stroke-linecap="round"/>
<line x1="321.9" y1="71.2" x2="99.6" y2="71.2" stroke="#111" stroke-width="1.7" stroke-linecap="round"/>
<line x1="99.6" y1="71.2" x2="21.0" y2="28.6" stroke="#111" stroke-width="1.7" stroke-linecap="round"/>
<line x1="38.1" y1="188.8" x2="21.0" y2="28.6" stroke="#111" stroke-width="1.7" stroke-linecap="round"/>
<line x1="260.4" y1="188.8" x2="243.4" y2="28.6" stroke="#111" stroke-width="1.7" stroke-linecap="round"/>
<line x1="339.0" y1="231.4" x2="321.9" y2="71.2" stroke="#111" stroke-width="1.7" stroke-linecap="round"/>
<line x1="116.6" y1="231.4" x2="99.6" y2="71.2" stroke="#111" stroke-width="1.7" stroke-linecap="round"/>
<circle cx="38.1" cy="188.8" r="3.2" fill="#d97400"/>
<text x="43.1" y="183.8" font-family="Arial, sans-serif" font-size="11" font-weight="700" fill="#111">A</text>
<circle cx="260.4" cy="188.8" r="3.2" fill="#d97400"/>
<text x="265.4" y="183.8" font-family="Arial, sans-serif" font-size="11" font-weight="700" fill="#111">B</text>
<circle cx="339.0" cy="231.4" r="3.2" fill="#d97400"/>
<text x="344.0" y="226.4" font-family="Arial, sans-serif" font-size="11" font-weight="700" fill="#111">C</text>
<circle cx="116.6" cy="231.4" r="3.2" fill="#d97400"/>
<text x="121.6" y="226.4" font-family="Arial, sans-serif" font-size="11" font-weight="700" fill="#111">D</text>
<circle cx="21.0" cy="28.6" r="3.2" fill="#d97400"/>
<text x="26.0" y="23.6" font-family="Arial, sans-serif" font-size="11" font-weight="700" fill="#111">A1</text>
<circle cx="243.4" cy="28.6" r="3.2" fill="#d97400"/>
<text x="248.4" y="23.6" font-family="Arial, sans-serif" font-size="11" font-weight="700" fill="#111">B1</text>
<circle cx="321.9" cy="71.2" r="3.2" fill="#d97400"/>
<text x="326.9" y="66.2" font-family="Arial, sans-serif" font-size="11" font-weight="700" fill="#111">C1</text>
<circle cx="99.6" cy="71.2" r="3.2" fill="#d97400"/>
<text x="104.6" y="66.2" font-family="Arial, sans-serif" font-size="11" font-weight="700" fill="#111">D1</text>
</svg>
