<svg xmlns="http://www.w3.org/2000/svg" width="360" height="260" viewBox="0 0 360 260" role="img" aria-label="base_053 · 四棱台 #03">
<rect width="360" height="260" fill="#ffffff"/>
<polygon points="21.0,187.2 264.6,187.2 339.0,227.5 95.4,227.5" fill="#dcecf2" fill-opacity="0.62" stroke="none"/>
<polygon points="87.3,32.5 221.3,32.5 262.3,54.7 128.3,54.7" fill="#e8f3eb" fill-opacity="0.62" stroke="none"/>
<polygon points="21.0,187.2 264.6,187.2 221.3,32.5 87.3,32.5" fill="#f6eadf" fill-opacity="0.62" stroke="none"/>
<polygon points="264.6,187.2 339.0,227.5 262.3,54.7 221.3,32.5" fill="#eee8f6" fill-opacity="0.62" stroke="none"/>
<polygon points="339.0,227.5 95.4,227.5 128.3,54.7 262.3,54.7" fill="#eef0f3" fill-opacity="0.62" stroke="none"/>
<polygon points="95.4,227.5 21.0,187.2 87.3,32.5 128.3,54.7" fill="#dcecf2" fill-opacity="0.62" stroke="none"/>
<line x1="21.0" y1="187.2" x2="264.6" y2="187.2" stroke="#111" stroke-width="1.7" stroke-linecap="round"/>
<line x1="264.6" y1="187.2" x2="339.0" y2="227.5" stroke="#111" stroke-width="1.7" stroke-linecap="round"/>
<line x1="339.0" y1="227.5" x2="95.4" y2="227.5" stroke="#111" stroke-width="1.7" stroke-linecap="round"/>
<line x1="95.4" y1="227.5" x2="21.0" y2="187.2" stroke="#111" stroke-width="1.7" stroke-linecap="round"/>
<line x1="87.3" y1="32.5" x2="221.3" y2="32.5" stroke="#111" stroke-width="1.7" stroke-linecap="round"/>
<line x1="221.3" y1="32.5" x2="262.3" y2="54.7" stroke="#111" stroke-width="1.7" stroke-linecap="round"/>
<line x1="262.3" y1="54.7" x2="128.3" y2="54.7" stroke="#111" stroke-width="1.7" stroke-linecap="round"/>
<line x1="128.3" y1="54.7" x2="87.3" y2="32.5" stroke="#111" stroke-width="1.7" stroke-linecap="round"/>
<line x1="21.0" y1="187.2" x2="87.3" y2="32.5" stroke="#111" stroke-width="1.7" stroke-linecap="round"/>
<line x1="264.6" y1="187.2" x2="221.3" y2="32.5" stroke="#111" stroke-width="1.7" stroke-linecap="round"/>
<line x1="339.0" y1="227.5" x2="262.3" y2="54.7" stroke="#111" stroke-width="1.7" stroke-linecap="round"/>
<line x1="95.4" y1="227.5" x2="128.3" y2="54.7" stroke="#111" stroke-width="1.7" stroke-linecap="round"/>
<circle cx="21.0" cy="187.2" r="3.2" fill="#d97400"/>
<text x="26.0" y="182.2" font-family="Arial, sans-serif" font-size="11" font-weight="700" fill="#111">A</text>
<circle cx="264.6" cy="187.2" r="3.2" fill="#d97400"/>
<text x="269.6" y="182.2" font-family="Arial, sans-serif" font-size="11" font-weight="700" fill="#111">B</text>
<circle cx="339.0" cy="227.5" r="3.2" fill="#d97400"/>
<text x="344.0" y="222.5" font-family="Arial, sans-serif" font-size="11" font-weight="700" fill="#111">C</text>
<circle cx="95.4" cy="227.5" r="3.2" fill="#d97400"/>
<text x="100.4" y="222.5" font-family="Arial, sans-serif" font-size="11" font-weight="700" fill="#111">D</text>
<circle cx="87.3" cy="32.5" r="3.2" fill="#d97400"/>
<text x="92.3" y="27.5" font-family="Arial, sans-serif" font-size="11" font-weight="700" fill="#111">A1</text>
<circle cx="221.3" cy="32.5" r="3.2" fill="#d97400"/>
<text x="226.3" y="27.5" font-family="Arial, sans-serif" font-size="11" font-weight="700" fill="#111">B1</text>
<circle cx="262.3" cy="54.7" r="3.2" fill="#d97400"/>
<text x="267.3" y="49.7" font-family="Arial, sans-serif" font-size="11" font-weight="700" fill="#111">C1</text>
<circle cx="128.3" cy="54.7" r="3.2" fill="#d97400"/>
<text x="133.3" y="49.7" font-family="Arial, sans-serif" font-size="11" font-weight="700" fill="#111">D1</text>
</svg>
