<svg xmlns="http://www.w3.org/2000/svg" width="360" height="260" viewBox="0 0 360 260" role="img" aria-label="base_096 · 长方体叠四棱锥 #06">
<rect width="360" height="260" fill="#ffffff"/>
<polygon points="45.9,201.7 245.3,201.7 314.1,239.0 114.7,239.0" fill="#dcecf2" fill-opacity="0.62" stroke="none"/>
<polygon points="45.9,201.7 245.3,201.7 245.3,123.3 45.9,123.3" fill="#e8f3eb" fill-opacity="0.62" stroke="none"/>
<polygon points="245.3,201.7 314.1,239.0 314.1,160.6 245.3,123.3" fill="#f6eadf" fill-opacity="0.62" stroke="none"/>
<polygon points="314.1,239.0 114.7,239.0 114.7,160.6 314.1,160.6" fill="#eee8f6" fill-opacity="0.62" stroke="none"/>
<polygon points="114.7,239.0 45.9,201.7 45.9,123.3 114.7,160.6" fill="#eef0f3" fill-opacity="0.62" stroke="none"/>
<polygon points="184.8,21.0 45.9,123.3 245.3,123.3" fill="#dcecf2" fill-opacity="0.62" stroke="none"/>
<polygon points="184.8,21.0 245.3,123.3 314.1,160.6" fill="#e8f3eb" fill-opacity="0.62" stroke="none"/>
<polygon points="184.8,21.0 314.1,160.6 114.7,160.6" fill="#f6eadf" fill-opacity="0.62" stroke="none"/>
<polygon points="184.8,21.0 114.7,160.6 45.9,123.3" fill="#eee8f6" fill-opacity="0.62" stroke="none"/>
<line x1="45.9" y1="201.7" x2="245.3" y2="201.7" stroke="#111" stroke-width="1.7" stroke-linecap="round"/>
<line x1="245.3" y1="201.7" x2="314.1" y2="239.0" stroke="#111" stroke-width="1.7" stroke-linecap="round"/>
<line x1="314.1" y1="239.0" x2="114.7" y2="239.0" stroke="#111" stroke-width="1.7" stroke-linecap="round"/>
<line x1="114.7" y1="239.0" x2="45.9" y2="201.7" stroke="#111" stroke-width="1.7" stroke-linecap="round"/>
<line x1="45.9" y1="123.3" x2="245.3" y2="123.3" stroke="#111" stroke-width="1.7" stroke-linecap="round"/>
<line x1="245.3" y1="123.3" x2="314.1" y2="160.6" stroke="#111" stroke-width="1.7" stroke-linecap="round"/>
<line x1="314.1" y1="160.6" x2="114.7" y2="160.6" stroke="#111" stroke-width="1.7" stroke-linecap="round"/>
<line x1="114.7" y1="160.6" x2="45.9" y2="123.3" stroke="#111" stroke-width="1.7" stroke-linecap="round"/>
<line x1="45.9" y1="201.7" x2="45.9" y2="123.3" stroke="#111" stroke-width="1.7" stroke-linecap="round"/>
<line x1="245.3" y1="201.7" x2="245.3" y2="123.3" stroke="#111" stroke-width="1.7" stroke-linecap="round"/>
<line x1="314.1" y1="239.0" x2="314.1" y2="160.6" stroke="#111" stroke-width="1.7" stroke-linecap="round"/>
<line x1="114.7" y1="239.0" x2="114.7" y2="160.6" stroke="#111" stroke-width="1.7" stroke-linecap="round"/>
<line x1="184.8" y1="21.0" x2="45.9" y2="123.3" stroke="#111" stroke-width="1.7" stroke-linecap="round"/>
<line x1="184.8" y1="21.0" x2="245.3" y2="123.3" stroke="#111" stroke-width="1.7" stroke-linecap="round"/>
<line x1="184.8" y1="21.0" x2="314.1" y2="160.6" stroke="#111" stroke-width="1.7" stroke-linecap="round"/>
<line x1="184.8" y1="21.0" x2="114.7" y2="160.6" stroke="#111" stroke-width="1.7" stroke-linecap="round"/>
<circle cx="45.9" cy="201.7" r="3.2" fill="#d97400"/>
<text x="50.9" y="196.7" font-family="Arial, sans-serif" font-size="11" font-weight="700" fill="#111">A</text>
<circle cx="245.3" cy="201.7" r="3.2" fill="#d97400"/>
<text x="250.3" y="196.7" font-family="Arial, sans-serif" font-size="11" font-weight="700" fill="#111">B</text>
<circle cx="314.1" cy="239.0" r="3.2" fill="#d97400"/>
<text x="319.1" y="234.0" font-family="Arial, sans-serif" font-size="11" font-weight="700" fill="#111">C</text>
<circle cx="114.7" cy="239.0" r="3.2" fill="#d97400"/>
<text x="119.7" y="234.0" font-family="Arial, sans-serif" font-size="11" font-weight="700" fill="#111">D</text>
<circle cx="45.9" cy="123.3" r="3.2" fill="#d97400"/>
<text x="50.9" y="118.3" font-family="Arial, sans-serif" font-size="11" font-weight="700" fill="#111">A1</text>
<circle cx="245.3" cy="123.3" r="3.2" fill="#d97400"/>
<text x="250.3" y="118.3" font-family="Arial, sans-serif" font-size="11" font-weight="700" fill="#111">B1</text>
<circle cx="314.1" cy="160.6" r="3.2" fill="#d97400"/>
<text x="319.1" y="155.6" font-family="Arial, sans-serif" font-size="11" font-weight="700" fill="#111">C1</text>
<circle cx="114.7" cy="160.6" r="3.2" fill="#d97400"/>
<text x="119.7" y="155.6" font-family="Arial, sans-serif" font-size="11" font-weight="700" fill="#111">D1</text>
<circle cx="184.8" cy="21.0" r="3.2" fill="#d97400"/>
<text x="189.8" y="16.0" font-family="Arial, sans-serif" font-size="11" font-weight="700" fill="#111">S</text>
</svg>
