<svg xmlns="http://www.w3.org/2000/svg" width="360" height="260" viewBox="0 0 360 260" role="img" aria-label="base_069 · 三棱柱 #09">
<rect width="360" height="260" fill="#ffffff"/>
<polygon points="74.8,199.6 281.4,199.6 256.2,239.0" fill="#dcecf2" fill-opacity="0.62" stroke="none"/>
<polygon points="78.6,21.0 285.2,21.0 260.0,60.4" fill="#e8f3eb" fill-opacity="0.62" stroke="none"/>
<polygon points="74.8,199.6 281.4,199.6 285.2,21.0 78.6,21.0" fill="#f6eadf" fill-opacity="0.62" stroke="none"/>
<polygon points="281.4,199.6 256.2,239.0 260.0,60.4 285.2,21.0" fill="#eee8f6" fill-opacity="0.62" stroke="none"/>
<polygon points="256.2,239.0 74.8,199.6 78.6,21.0 260.0,60.4" fill="#eef0f3" fill-opacity="0.62" stroke="none"/>
<line x1="74.8" y1="199.6" x2="281.4" y2="199.6" stroke="#111" stroke-width="1.7" stroke-linecap="round"/>
<line x1="281.4" y1="199.6" x2="256.2" y2="239.0" stroke="#111" stroke-width="1.7" stroke-linecap="round"/>
<line x1="256.2" y1="239.0" x2="74.8" y2="199.6" stroke="#111" stroke-width="1.7" stroke-linecap="round"/>
<line x1="78.6" y1="21.0" x2="285.2" y2="21.0" stroke="#111" stroke-width="1.7" stroke-linecap="round"/>
<line x1="285.2" y1="21.0" x2="260.0" y2="60.4" stroke="#111" stroke-width="1.7" stroke-linecap="round"/>
<line x1="260.0" y1="60.4" x2="78.6" y2="21.0" stroke="#111" stroke-width="1.7" stroke-linecap="round"/>
<line x1="74.8" y1="199.6" x2="78.6" y2="21.0" stroke="#111" stroke-width="1.7" stroke-linecap="round"/>
<line x1="281.4" y1="199.6" x2="285.2" y2="21.0" stroke="#111" stroke-width="1.7" stroke-linecap="round"/>
<line x1="256.2" y1="239.0" x2="260.0" y2="60.4" stroke="#111" stroke-width="1.7" stroke-linecap="round"/>
<circle cx="74.8" cy="199.6" r="3.2" fill="#d97400"/>
<text x="79.8" y="194.6" font-family="Arial, sans-serif" font-size="11" font-weight="700" fill="#111">A</text>
<circle cx="281.4" cy="199.6" r="3.2" fill="#d97400"/>
<text x="286.4" y="194.6" font-family="Arial, sans-serif" font-size="11" font-weight="700" fill="#111">B</text>
<circle cx="256.2" cy="239.0" r="3.2" fill="#d97400"/>
<text x="261.2" y="234.0" font-family="Arial, sans-serif" font-size="11" font-weight="700" fill="#111">C</text>
<circle cx="78.6" cy="21.0" r="3.2" fill="#d97400"/>
<text x="83.6" y="16.0" font-family="Arial, sans-serif" font-size="11" font-weight="700" fill="#111">A1</text>
<circle cx="285.2" cy="21.0" r="3.2" fill="#d97400"/>
<text x="290.2" y="16.0" font-family="Arial, sans-serif" font-size="11" font-weight="700" fill="#111">B1</text>
<circle cx="260.0" cy="60.4" r="3.2" fill="#d97400"/>
<text x="265.0" y="55.4" font-family="Arial, sans-serif" font-size="11" font-weight="700" fill="#111">C1</text>
</svg>
