<svg xmlns="http://www.w3.org/2000/svg" width="360" height="260" viewBox="0 0 360 260" role="img" aria-label="base_021 · 三棱锥 #01">
<rect width="360" height="260" fill="#ffffff"/>
<polygon points="58.9,185.0 301.1,185.0 256.4,239.0" fill="#dcecf2" fill-opacity="0.62" stroke="none"/>
<polygon points="211.2,21.0 58.9,185.0 301.1,185.0" fill="#e8f3eb" fill-opacity="0.62" stroke="none"/>
<polygon points="211.2,21.0 301.1,185.0 256.4,239.0" fill="#f6eadf" fill-opacity="0.62" stroke="none"/>
<polygon points="211.2,21.0 256.4,239.0 58.9,185.0" fill="#eee8f6" fill-opacity="0.62" stroke="none"/>
<line x1="58.9" y1="185.0" x2="301.1" y2="185.0" stroke="#111" stroke-width="1.7" stroke-linecap="round"/>
<line x1="301.1" y1="185.0" x2="256.4" y2="239.0" stroke="#111" stroke-width="1.7" stroke-linecap="round"/>
<line x1="256.4" y1="239.0" x2="58.9" y2="185.0" stroke="#111" stroke-width="1.7" stroke-linecap="round"/>
<line x1="211.2" y1="21.0" x2="58.9" y2="185.0" stroke="#111" stroke-width="1.7" stroke-linecap="round"/>
<line x1="211.2" y1="21.0" x2="301.1" y2="185.0" stroke="#111" stroke-width="1.7" stroke-linecap="round"/>
<line x1="211.2" y1="21.0" x2="256.4" y2="239.0" stroke="#111" stroke-width="1.7" stroke-linecap="round"/>
<circle cx="58.9" cy="185.0" r="3.2" fill="#d97400"/>
<text x="63.9" y="180.0" font-family="Arial, sans-serif" font-size="11" font-weight="700" fill="#111">A</text>
<circle cx="301.1" cy="185.0" r="3.2" fill="#d97400"/>
<text x="306.1" y="180.0" font-family="Arial, sans-serif" font-size="11" font-weight="700" fill="#111">B</text>
<circle cx="256.4" cy="239.0" r="3.2" fill="#d97400"/>
<text x="261.4" y="234.0" font-family="Arial, sans-serif" font-size="11" font-weight="700" fill="#111">C</text>
<circle cx="211.2" cy="21.0" r="3.2" fill="#d97400"/>
<text x="216.2" y="16.0" font-family="Arial, sans-serif" font-size="11" font-weight="700" fill="#111">S</text>
</svg>
