<svg xmlns="http://www.w3.org/2000/svg" width="360" height="260" viewBox="0 0 360 260" role="img" aria-label="base_016 · 偏顶四棱锥 #06">
<rect width="360" height="260" fill="#ffffff"/>
<polygon points="32.7,196.2 248.3,196.2 327.3,239.0 111.7,239.0" fill="#dcecf2" fill-opacity="0.62" stroke="none"/>
<polygon points="174.8,21.0 32.7,196.2 248.3,196.2" fill="#e8f3eb" fill-opacity="0.62" stroke="none"/>
<polygon points="174.8,21.0 248.3,196.2 327.3,239.0" fill="#f6eadf" fill-opacity="0.62" stroke="none"/>
<polygon points="174.8,21.0 327.3,239.0 111.7,239.0" fill="#eee8f6" fill-opacity="0.62" stroke="none"/>
<polygon points="174.8,21.0 111.7,239.0 32.7,196.2" fill="#eef0f3" fill-opacity="0.62" stroke="none"/>
<line x1="32.7" y1="196.2" x2="248.3" y2="196.2" stroke="#111" stroke-width="1.7" stroke-linecap="round"/>
<line x1="248.3" y1="196.2" x2="327.3" y2="239.0" stroke="#111" stroke-width="1.7" stroke-linecap="round"/>
<line x1="327.3" y1="239.0" x2="111.7" y2="239.0" stroke="#111" stroke-width="1.7" stroke-linecap="round"/>
<line x1="111.7" y1="239.0" x2="32.7" y2="196.2" stroke="#111" stroke-width="1.7" stroke-linecap="round"/>
<line x1="174.8" y1="21.0" x2="32.7" y2="196.2" stroke="#111" stroke-width="1.7" stroke-linecap="round"/>
<line x1="174.8" y1="21.0" x2="248.3" y2="196.2" stroke="#111" stroke-width="1.7" stroke-linecap="round"/>
<line x1="174.8" y1="21.0" x2="327.3" y2="239.0" stroke="#111" stroke-width="1.7" stroke-linecap="round"/>
<line x1="174.8" y1="21.0" x2="111.7" y2="239.0" stroke="#111" stroke-width="1.7" stroke-linecap="round"/>
<circle cx="32.7" cy="196.2" r="3.2" fill="#d97400"/>
<text x="37.7" y="191.2" font-family="Arial, sans-serif" font-size="11" font-weight="700" fill="#111">A</text>
<circle cx="248.3" cy="196.2" r="3.2" fill="#d97400"/>
<text x="253.3" y="191.2" font-family="Arial, sans-serif" font-size="11" font-weight="700" fill="#111">B</text>
<circle cx="327.3" cy="239.0" r="3.2" fill="#d97400"/>
<text x="332.3" y="234.0" font-family="Arial, sans-serif" font-size="11" font-weight="700" fill="#111">C</text>
<circle cx="111.7" cy="239.0" r="3.2" fill="#d97400"/>
<text x="116.7" y="234.0" font-family="Arial, sans-serif" font-size="11" font-weight="700" fill="#111">D</text>
<circle cx="174.8" cy="21.0" r="3.2" fill="#d97400"/>
<text x="179.8" y="16.0" font-family="Arial, sans-serif" font-size="11" font-weight="700" fill="#111">S</text>
</svg>
