<svg xmlns="http://www.w3.org/2000/svg" width="360" height="260" viewBox="0 0 360 260" role="img" aria-label="base_013 · 偏顶四棱锥 #03">
<rect width="360" height="260" fill="#ffffff"/>
<polygon points="21.0,195.4 264.1,195.4 339.0,236.0 95.9,236.0" fill="#dcecf2" fill-opacity="0.62" stroke="none"/>
<polygon points="164.3,24.0 21.0,195.4 264.1,195.4" fill="#e8f3eb" fill-opacity="0.62" stroke="none"/>
<polygon points="164.3,24.0 264.1,195.4 339.0,236.0" fill="#f6eadf" fill-opacity="0.62" stroke="none"/>
<polygon points="164.3,24.0 339.0,236.0 95.9,236.0" fill="#eee8f6" fill-opacity="0.62" stroke="none"/>
<polygon points="164.3,24.0 95.9,236.0 21.0,195.4" fill="#eef0f3" fill-opacity="0.62" stroke="none"/>
<line x1="21.0" y1="195.4" x2="264.1" y2="195.4" stroke="#111" stroke-width="1.7" stroke-linecap="round"/>
<line x1="264.1" y1="195.4" x2="339.0" y2="236.0" stroke="#111" stroke-width="1.7" stroke-linecap="round"/>
<line x1="339.0" y1="236.0" x2="95.9" y2="236.0" stroke="#111" stroke-width="1.7" stroke-linecap="round"/>
<line x1="95.9" y1="236.0" x2="21.0" y2="195.4" stroke="#111" stroke-width="1.7" stroke-linecap="round"/>
<line x1="164.3" y1="24.0" x2="21.0" y2="195.4" stroke="#111" stroke-width="1.7" stroke-linecap="round"/>
<line x1="164.3" y1="24.0" x2="264.1" y2="195.4" stroke="#111" stroke-width="1.7" stroke-linecap="round"/>
<line x1="164.3" y1="24.0" x2="339.0" y2="236.0" stroke="#111" stroke-width="1.7" stroke-linecap="round"/>
<line x1="164.3" y1="24.0" x2="95.9" y2="236.0" stroke="#111" stroke-width="1.7" stroke-linecap="round"/>
<circle cx="21.0" cy="195.4" r="3.2" fill="#d97400"/>
<text x="26.0" y="190.4" font-family="Arial, sans-serif" font-size="11" font-weight="700" fill="#111">A</text>
<circle cx="264.1" cy="195.4" r="3.2" fill="#d97400"/>
<text x="269.1" y="190.4" font-family="Arial, sans-serif" font-size="11" font-weight="700" fill="#111">B</text>
<circle cx="339.0" cy="236.0" r="3.2" fill="#d97400"/>
<text x="344.0" y="231.0" font-family="Arial, sans-serif" font-size="11" font-weight="700" fill="#111">C</text>
<circle cx="95.9" cy="236.0" r="3.2" fill="#d97400"/>
<text x="100.9" y="231.0" font-family="Arial, sans-serif" font-size="11" font-weight="700" fill="#111">D</text>
<circle cx="164.3" cy="24.0" r="3.2" fill="#d97400"/>
<text x="169.3" y="19.0" font-family="Arial, sans-serif" font-size="11" font-weight="700" fill="#111">S</text>
</svg>
