<svg xmlns="http://www.w3.org/2000/svg" width="360" height="260" viewBox="0 0 360 260" role="img" aria-label="base_078 · 三棱台 #08">
<rect width="360" height="260" fill="#ffffff"/>
<polygon points="60.9,190.8 299.1,190.8 261.8,239.0" fill="#dcecf2" fill-opacity="0.62" stroke="none"/>
<polygon points="149.3,21.0 275.4,21.0 255.7,46.6" fill="#e8f3eb" fill-opacity="0.62" stroke="none"/>
<polygon points="60.9,190.8 299.1,190.8 275.4,21.0 149.3,21.0" fill="#f6eadf" fill-opacity="0.62" stroke="none"/>
<polygon points="299.1,190.8 261.8,239.0 255.7,46.6 275.4,21.0" fill="#eee8f6" fill-opacity="0.62" stroke="none"/>
<polygon points="261.8,239.0 60.9,190.8 149.3,21.0 255.7,46.6" fill="#eef0f3" fill-opacity="0.62" stroke="none"/>
<line x1="60.9" y1="190.8" x2="299.1" y2="190.8" stroke="#111" stroke-width="1.7" stroke-linecap="round"/>
<line x1="299.1" y1="190.8" x2="261.8" y2="239.0" stroke="#111" stroke-width="1.7" stroke-linecap="round"/>
<line x1="261.8" y1="239.0" x2="60.9" y2="190.8" stroke="#111" stroke-width="1.7" stroke-linecap="round"/>
<line x1="149.3" y1="21.0" x2="275.4" y2="21.0" stroke="#111" stroke-width="1.7" stroke-linecap="round"/>
<line x1="275.4" y1="21.0" x2="255.7" y2="46.6" stroke="#111" stroke-width="1.7" stroke-linecap="round"/>
<line x1="255.7" y1="46.6" x2="149.3" y2="21.0" stroke="#111" stroke-width="1.7" stroke-linecap="round"/>
<line x1="60.9" y1="190.8" x2="149.3" y2="21.0" stroke="#111" stroke-width="1.7" stroke-linecap="round"/>
<line x1="299.1" y1="190.8" x2="275.4" y2="21.0" stroke="#111" stroke-width="1.7" stroke-linecap="round"/>
<line x1="261.8" y1="239.0" x2="255.7" y2="46.6" stroke="#111" stroke-width="1.7" stroke-linecap="round"/>
<circle cx="60.9" cy="190.8" r="3.2" fill="#d97400"/>
<text x="65.9" y="185.8" font-family="Arial, sans-serif" font-size="11" font-weight="700" fill="#111">A</text>
<circle cx="299.1" cy="190.8" r="3.2" fill="#d97400"/>
<text x="304.1" y="185.8" font-family="Arial, sans-serif" font-size="11" font-weight="700" fill="#111">B</text>
<circle cx="261.8" cy="239.0" r="3.2" fill="#d97400"/>
<text x="266.8" y="234.0" font-family="Arial, sans-serif" font-size="11" font-weight="700" fill="#111">C</text>
<circle cx="149.3" cy="21.0" r="3.2" fill="#d97400"/>
<text x="154.3" y="16.0" font-family="Arial, sans-serif" font-size="11" font-weight="700" fill="#111">A1</text>
<circle cx="275.4" cy="21.0" r="3.2" fill="#d97400"/>
<text x="280.4" y="16.0" font-family="Arial, sans-serif" font-size="11" font-weight="700" fill="#111">B1</text>
<circle cx="255.7" cy="46.6" r="3.2" fill="#d97400"/>
<text x="260.7" y="41.6" font-family="Arial, sans-serif" font-size="11" font-weight="700" fill="#111">C1</text>
</svg>
