<svg xmlns="http://www.w3.org/2000/svg" width="360" height="260" viewBox="0 0 360 260" role="img" aria-label="base_081 · 楔形体 #01">
<rect width="360" height="260" fill="#ffffff"/>
<polygon points="21.0,166.4 256.2,166.4 339.0,211.2 103.8,211.2" fill="#dcecf2" fill-opacity="0.62" stroke="none"/>
<polygon points="21.0,166.4 256.2,166.4 275.6,48.8 40.4,48.8" fill="#e8f3eb" fill-opacity="0.62" stroke="none"/>
<polygon points="103.8,211.2 339.0,211.2 275.6,48.8 40.4,48.8" fill="#f6eadf" fill-opacity="0.62" stroke="none"/>
<polygon points="21.0,166.4 103.8,211.2 40.4,48.8" fill="#eee8f6" fill-opacity="0.62" stroke="none"/>
<polygon points="256.2,166.4 339.0,211.2 275.6,48.8" fill="#eef0f3" fill-opacity="0.62" stroke="none"/>
<line x1="21.0" y1="166.4" x2="256.2" y2="166.4" stroke="#111" stroke-width="1.7" stroke-linecap="round"/>
<line x1="256.2" y1="166.4" x2="339.0" y2="211.2" stroke="#111" stroke-width="1.7" stroke-linecap="round"/>
<line x1="339.0" y1="211.2" x2="103.8" y2="211.2" stroke="#111" stroke-width="1.7" stroke-linecap="round"/>
<line x1="103.8" y1="211.2" x2="21.0" y2="166.4" stroke="#111" stroke-width="1.7" stroke-linecap="round"/>
<line x1="21.0" y1="166.4" x2="40.4" y2="48.8" stroke="#111" stroke-width="1.7" stroke-linecap="round"/>
<line x1="256.2" y1="166.4" x2="275.6" y2="48.8" stroke="#111" stroke-width="1.7" stroke-linecap="round"/>
<line x1="40.4" y1="48.8" x2="275.6" y2="48.8" stroke="#111" stroke-width="1.7" stroke-linecap="round"/>
<line x1="103.8" y1="211.2" x2="40.4" y2="48.8" stroke="#111" stroke-width="1.7" stroke-linecap="round"/>
<line x1="339.0" y1="211.2" x2="275.6" y2="48.8" stroke="#111" stroke-width="1.7" stroke-linecap="round"/>
<circle cx="21.0" cy="166.4" r="3.2" fill="#d97400"/>
<text x="26.0" y="161.4" font-family="Arial, sans-serif" font-size="11" font-weight="700" fill="#111">A</text>
<circle cx="256.2" cy="166.4" r="3.2" fill="#d97400"/>
<text x="261.2" y="161.4" font-family="Arial, sans-serif" font-size="11" font-weight="700" fill="#111">B</text>
<circle cx="339.0" cy="211.2" r="3.2" fill="#d97400"/>
<text x="344.0" y="206.2" font-family="Arial, sans-serif" font-size="11" font-weight="700" fill="#111">C</text>
<circle cx="103.8" cy="211.2" r="3.2" fill="#d97400"/>
<text x="108.8" y="206.2" font-family="Arial, sans-serif" font-size="11" font-weight="700" fill="#111">D</text>
<circle cx="40.4" cy="48.8" r="3.2" fill="#d97400"/>
<text x="45.4" y="43.8" font-family="Arial, sans-serif" font-size="11" font-weight="700" fill="#111">A1</text>
<circle cx="275.6" cy="48.8" r="3.2" fill="#d97400"/>
<text x="280.6" y="43.8" font-family="Arial, sans-serif" font-size="11" font-weight="700" fill="#111">B1</text>
</svg>
