<svg xmlns="http://www.w3.org/2000/svg" width="360" height="260" viewBox="0 0 360 260" role="img" aria-label="base_020 · 偏顶四棱锥 #10">
<rect width="360" height="260" fill="#ffffff"/>
<polygon points="56.0,200.5 232.9,200.5 304.0,239.0 127.1,239.0" fill="#dcecf2" fill-opacity="0.62" stroke="none"/>
<polygon points="204.2,21.0 56.0,200.5 232.9,200.5" fill="#e8f3eb" fill-opacity="0.62" stroke="none"/>
<polygon points="204.2,21.0 232.9,200.5 304.0,239.0" fill="#f6eadf" fill-opacity="0.62" stroke="none"/>
<polygon points="204.2,21.0 304.0,239.0 127.1,239.0" fill="#eee8f6" fill-opacity="0.62" stroke="none"/>
<polygon points="204.2,21.0 127.1,239.0 56.0,200.5" fill="#eef0f3" fill-opacity="0.62" stroke="none"/>
<line x1="56.0" y1="200.5" x2="232.9" y2="200.5" stroke="#111" stroke-width="1.7" stroke-linecap="round"/>
<line x1="232.9" y1="200.5" x2="304.0" y2="239.0" stroke="#111" stroke-width="1.7" stroke-linecap="round"/>
<line x1="304.0" y1="239.0" x2="127.1" y2="239.0" stroke="#111" stroke-width="1.7" stroke-linecap="round"/>
<line x1="127.1" y1="239.0" x2="56.0" y2="200.5" stroke="#111" stroke-width="1.7" stroke-linecap="round"/>
<line x1="204.2" y1="21.0" x2="56.0" y2="200.5" stroke="#111" stroke-width="1.7" stroke-linecap="round"/>
<line x1="204.2" y1="21.0" x2="232.9" y2="200.5" stroke="#111" stroke-width="1.7" stroke-linecap="round"/>
<line x1="204.2" y1="21.0" x2="304.0" y2="239.0" stroke="#111" stroke-width="1.7" stroke-linecap="round"/>
<line x1="204.2" y1="21.0" x2="127.1" y2="239.0" stroke="#111" stroke-width="1.7" stroke-linecap="round"/>
<circle cx="56.0" cy="200.5" r="3.2" fill="#d97400"/>
<text x="61.0" y="195.5" font-family="Arial, sans-serif" font-size="11" font-weight="700" fill="#111">A</text>
<circle cx="232.9" cy="200.5" r="3.2" fill="#d97400"/>
<text x="237.9" y="195.5" font-family="Arial, sans-serif" font-size="11" font-weight="700" fill="#111">B</text>
<circle cx="304.0" cy="239.0" r="3.2" fill="#d97400"/>
<text x="309.0" y="234.0" font-family="Arial, sans-serif" font-size="11" font-weight="700" fill="#111">C</text>
<circle cx="127.1" cy="239.0" r="3.2" fill="#d97400"/>
<text x="132.1" y="234.0" font-family="Arial, sans-serif" font-size="11" font-weight="700" fill="#111">D</text>
<circle cx="204.2" cy="21.0" r="3.2" fill="#d97400"/>
<text x="209.2" y="16.0" font-family="Arial, sans-serif" font-size="11" font-weight="700" fill="#111">S</text>
</svg>
