<svg xmlns="http://www.w3.org/2000/svg" width="360" height="260" viewBox="0 0 360 260" role="img" aria-label="base_008 · 四棱锥 #08">
<rect width="360" height="260" fill="#ffffff"/>
<polygon points="38.6,199.3 248.2,199.3 321.4,239.0 111.8,239.0" fill="#dcecf2" fill-opacity="0.62" stroke="none"/>
<polygon points="190.4,21.0 38.6,199.3 248.2,199.3" fill="#e8f3eb" fill-opacity="0.62" stroke="none"/>
<polygon points="190.4,21.0 248.2,199.3 321.4,239.0" fill="#f6eadf" fill-opacity="0.62" stroke="none"/>
<polygon points="190.4,21.0 321.4,239.0 111.8,239.0" fill="#eee8f6" fill-opacity="0.62" stroke="none"/>
<polygon points="190.4,21.0 111.8,239.0 38.6,199.3" fill="#eef0f3" fill-opacity="0.62" stroke="none"/>
<line x1="38.6" y1="199.3" x2="248.2" y2="199.3" stroke="#111" stroke-width="1.7" stroke-linecap="round"/>
<line x1="248.2" y1="199.3" x2="321.4" y2="239.0" stroke="#111" stroke-width="1.7" stroke-linecap="round"/>
<line x1="321.4" y1="239.0" x2="111.8" y2="239.0" stroke="#111" stroke-width="1.7" stroke-linecap="round"/>
<line x1="111.8" y1="239.0" x2="38.6" y2="199.3" stroke="#111" stroke-width="1.7" stroke-linecap="round"/>
<line x1="190.4" y1="21.0" x2="38.6" y2="199.3" stroke="#111" stroke-width="1.7" stroke-linecap="round"/>
<line x1="190.4" y1="21.0" x2="248.2" y2="199.3" stroke="#111" stroke-width="1.7" stroke-linecap="round"/>
<line x1="190.4" y1="21.0" x2="321.4" y2="239.0" stroke="#111" stroke-width="1.7" stroke-linecap="round"/>
<line x1="190.4" y1="21.0" x2="111.8" y2="239.0" stroke="#111" stroke-width="1.7" stroke-linecap="round"/>
<circle cx="38.6" cy="199.3" r="3.2" fill="#d97400"/>
<text x="43.6" y="194.3" font-family="Arial, sans-serif" font-size="11" font-weight="700" fill="#111">A</text>
<circle cx="248.2" cy="199.3" r="3.2" fill="#d97400"/>
<text x="253.2" y="194.3" font-family="Arial, sans-serif" font-size="11" font-weight="700" fill="#111">B</text>
<circle cx="321.4" cy="239.0" r="3.2" fill="#d97400"/>
<text x="326.4" y="234.0" font-family="Arial, sans-serif" font-size="11" font-weight="700" fill="#111">C</text>
<circle cx="111.8" cy="239.0" r="3.2" fill="#d97400"/>
<text x="116.8" y="234.0" font-family="Arial, sans-serif" font-size="11" font-weight="700" fill="#111">D</text>
<circle cx="190.4" cy="21.0" r="3.2" fill="#d97400"/>
<text x="195.4" y="16.0" font-family="Arial, sans-serif" font-size="11" font-weight="700" fill="#111">S</text>
</svg>
