<svg xmlns="http://www.w3.org/2000/svg" width="360" height="260" viewBox="0 0 360 260" role="img" aria-label="base_100 · 长方体叠四棱锥 #10">
<rect width="360" height="260" fill="#ffffff"/>
<polygon points="66.1,208.5 237.6,208.5 293.9,239.0 122.4,239.0" fill="#dcecf2" fill-opacity="0.62" stroke="none"/>
<polygon points="66.1,208.5 237.6,208.5 237.6,129.1 66.1,129.1" fill="#e8f3eb" fill-opacity="0.62" stroke="none"/>
<polygon points="237.6,208.5 293.9,239.0 293.9,159.6 237.6,129.1" fill="#f6eadf" fill-opacity="0.62" stroke="none"/>
<polygon points="293.9,239.0 122.4,239.0 122.4,159.6 293.9,159.6" fill="#eee8f6" fill-opacity="0.62" stroke="none"/>
<polygon points="122.4,239.0 66.1,208.5 66.1,129.1 122.4,159.6" fill="#eef0f3" fill-opacity="0.62" stroke="none"/>
<polygon points="191.3,21.0 66.1,129.1 237.6,129.1" fill="#dcecf2" fill-opacity="0.62" stroke="none"/>
<polygon points="191.3,21.0 237.6,129.1 293.9,159.6" fill="#e8f3eb" fill-opacity="0.62" stroke="none"/>
<polygon points="191.3,21.0 293.9,159.6 122.4,159.6" fill="#f6eadf" fill-opacity="0.62" stroke="none"/>
<polygon points="191.3,21.0 122.4,159.6 66.1,129.1" fill="#eee8f6" fill-opacity="0.62" stroke="none"/>
<line x1="66.1" y1="208.5" x2="237.6" y2="208.5" stroke="#111" stroke-width="1.7" stroke-linecap="round"/>
<line x1="237.6" y1="208.5" x2="293.9" y2="239.0" stroke="#111" stroke-width="1.7" stroke-linecap="round"/>
<line x1="293.9" y1="239.0" x2="122.4" y2="239.0" stroke="#111" stroke-width="1.7" stroke-linecap="round"/>
<line x1="122.4" y1="239.0" x2="66.1" y2="208.5" stroke="#111" stroke-width="1.7" stroke-linecap="round"/>
<line x1="66.1" y1="129.1" x2="237.6" y2="129.1" stroke="#111" stroke-width="1.7" stroke-linecap="round"/>
<line x1="237.6" y1="129.1" x2="293.9" y2="159.6" stroke="#111" stroke-width="1.7" stroke-linecap="round"/>
<line x1="293.9" y1="159.6" x2="122.4" y2="159.6" stroke="#111" stroke-width="1.7" stroke-linecap="round"/>
<line x1="122.4" y1="159.6" x2="66.1" y2="129.1" stroke="#111" stroke-width="1.7" stroke-linecap="round"/>
<line x1="66.1" y1="208.5" x2="66.1" y2="129.1" stroke="#111" stroke-width="1.7" stroke-linecap="round"/>
<line x1="237.6" y1="208.5" x2="237.6" y2="129.1" stroke="#111" stroke-width="1.7" stroke-linecap="round"/>
<line x1="293.9" y1="239.0" x2="293.9" y2="159.6" stroke="#111" stroke-width="1.7" stroke-linecap="round"/>
<line x1="122.4" y1="239.0" x2="122.4" y2="159.6" stroke="#111" stroke-width="1.7" stroke-linecap="round"/>
<line x1="191.3" y1="21.0" x2="66.1" y2="129.1" stroke="#111" stroke-width="1.7" stroke-linecap="round"/>
<line x1="191.3" y1="21.0" x2="237.6" y2="129.1" stroke="#111" stroke-width="1.7" stroke-linecap="round"/>
<line x1="191.3" y1="21.0" x2="293.9" y2="159.6" stroke="#111" stroke-width="1.7" stroke-linecap="round"/>
<line x1="191.3" y1="21.0" x2="122.4" y2="159.6" stroke="#111" stroke-width="1.7" stroke-linecap="round"/>
<circle cx="66.1" cy="208.5" r="3.2" fill="#d97400"/>
<text x="71.1" y="203.5" font-family="Arial, sans-serif" font-size="11" font-weight="700" fill="#111">A</text>
<circle cx="237.6" cy="208.5" r="3.2" fill="#d97400"/>
<text x="242.6" y="203.5" font-family="Arial, sans-serif" font-size="11" font-weight="700" fill="#111">B</text>
<circle cx="293.9" cy="239.0" r="3.2" fill="#d97400"/>
<text x="298.9" y="234.0" font-family="Arial, sans-serif" font-size="11" font-weight="700" fill="#111">C</text>
<circle cx="122.4" cy="239.0" r="3.2" fill="#d97400"/>
<text x="127.4" y="234.0" font-family="Arial, sans-serif" font-size="11" font-weight="700" fill="#111">D</text>
<circle cx="66.1" cy="129.1" r="3.2" fill="#d97400"/>
<text x="71.1" y="124.1" font-family="Arial, sans-serif" font-size="11" font-weight="700" fill="#111">A1</text>
<circle cx="237.6" cy="129.1" r="3.2" fill="#d97400"/>
<text x="242.6" y="124.1" font-family="Arial, sans-serif" font-size="11" font-weight="700" fill="#111">B1</text>
<circle cx="293.9" cy="159.6" r="3.2" fill="#d97400"/>
<text x="298.9" y="154.6" font-family="Arial, sans-serif" font-size="11" font-weight="700" fill="#111">C1</text>
<circle cx="122.4" cy="159.6" r="3.2" fill="#d97400"/>
<text x="127.4" y="154.6" font-family="Arial, sans-serif" font-size="11" font-weight="700" fill="#111">D1</text>
<circle cx="191.3" cy="21.0" r="3.2" fill="#d97400"/>
<text x="196.3" y="16.0" font-family="Arial, sans-serif" font-size="11" font-weight="700" fill="#111">S</text>
</svg>
