<svg xmlns="http://www.w3.org/2000/svg" width="360" height="260" viewBox="0 0 360 260" role="img" aria-label="base_031 · 长方体 #01">
<rect width="360" height="260" fill="#ffffff"/>
<polygon points="21.0,188.4 257.8,188.4 339.0,232.3 102.2,232.3" fill="#dcecf2" fill-opacity="0.62" stroke="none"/>
<polygon points="21.0,27.7 257.8,27.7 339.0,71.6 102.2,71.6" fill="#e8f3eb" fill-opacity="0.62" stroke="none"/>
<polygon points="21.0,188.4 257.8,188.4 257.8,27.7 21.0,27.7" fill="#f6eadf" fill-opacity="0.62" stroke="none"/>
<polygon points="257.8,188.4 339.0,232.3 339.0,71.6 257.8,27.7" fill="#eee8f6" fill-opacity="0.62" stroke="none"/>
<polygon points="339.0,232.3 102.2,232.3 102.2,71.6 339.0,71.6" fill="#eef0f3" fill-opacity="0.62" stroke="none"/>
<polygon points="102.2,232.3 21.0,188.4 21.0,27.7 102.2,71.6" fill="#dcecf2" fill-opacity="0.62" stroke="none"/>
<line x1="21.0" y1="188.4" x2="257.8" y2="188.4" stroke="#111" stroke-width="1.7" stroke-linecap="round"/>
<line x1="257.8" y1="188.4" x2="339.0" y2="232.3" stroke="#111" stroke-width="1.7" stroke-linecap="round"/>
<line x1="339.0" y1="232.3" x2="102.2" y2="232.3" stroke="#111" stroke-width="1.7" stroke-linecap="round"/>
<line x1="102.2" y1="232.3" x2="21.0" y2="188.4" stroke="#111" stroke-width="1.7" stroke-linecap="round"/>
<line x1="21.0" y1="27.7" x2="257.8" y2="27.7" stroke="#111" stroke-width="1.7" stroke-linecap="round"/>
<line x1="257.8" y1="27.7" x2="339.0" y2="71.6" stroke="#111" stroke-width="1.7" stroke-linecap="round"/>
<line x1="339.0" y1="71.6" x2="102.2" y2="71.6" stroke="#111" stroke-width="1.7" stroke-linecap="round"/>
<line x1="102.2" y1="71.6" x2="21.0" y2="27.7" stroke="#111" stroke-width="1.7" stroke-linecap="round"/>
<line x1="21.0" y1="188.4" x2="21.0" y2="27.7" stroke="#111" stroke-width="1.7" stroke-linecap="round"/>
<line x1="257.8" y1="188.4" x2="257.8" y2="27.7" stroke="#111" stroke-width="1.7" stroke-linecap="round"/>
<line x1="339.0" y1="232.3" x2="339.0" y2="71.6" stroke="#111" stroke-width="1.7" stroke-linecap="round"/>
<line x1="102.2" y1="232.3" x2="102.2" y2="71.6" stroke="#111" stroke-width="1.7" stroke-linecap="round"/>
<circle cx="21.0" cy="188.4" r="3.2" fill="#d97400"/>
<text x="26.0" y="183.4" font-family="Arial, sans-serif" font-size="11" font-weight="700" fill="#111">A</text>
<circle cx="257.8" cy="188.4" r="3.2" fill="#d97400"/>
<text x="262.8" y="183.4" font-family="Arial, sans-serif" font-size="11" font-weight="700" fill="#111">B</text>
<circle cx="339.0" cy="232.3" r="3.2" fill="#d97400"/>
<text x="344.0" y="227.3" font-family="Arial, sans-serif" font-size="11" font-weight="700" fill="#111">C</text>
<circle cx="102.2" cy="232.3" r="3.2" fill="#d97400"/>
<text x="107.2" y="227.3" font-family="Arial, sans-serif" font-size="11" font-weight="700" fill="#111">D</text>
<circle cx="21.0" cy="27.7" r="3.2" fill="#d97400"/>
<text x="26.0" y="22.7" font-family="Arial, sans-serif" font-size="11" font-weight="700" fill="#111">A1</text>
<circle cx="257.8" cy="27.7" r="3.2" fill="#d97400"/>
<text x="262.8" y="22.7" font-family="Arial, sans-serif" font-size="11" font-weight="700" fill="#111">B1</text>
<circle cx="339.0" cy="71.6" r="3.2" fill="#d97400"/>
<text x="344.0" y="66.6" font-family="Arial, sans-serif" font-size="11" font-weight="700" fill="#111">C1</text>
<circle cx="102.2" cy="71.6" r="3.2" fill="#d97400"/>
<text x="107.2" y="66.6" font-family="Arial, sans-serif" font-size="11" font-weight="700" fill="#111">D1</text>
</svg>
