<svg xmlns="http://www.w3.org/2000/svg" width="360" height="260" viewBox="0 0 360 260" role="img" aria-label="base_058 · 四棱台 #08">
<rect width="360" height="260" fill="#ffffff"/>
<polygon points="24.5,199.1 261.9,199.1 335.5,239.0 98.1,239.0" fill="#dcecf2" fill-opacity="0.62" stroke="none"/>
<polygon points="105.7,21.0 236.4,21.0 276.8,42.9 146.2,42.9" fill="#e8f3eb" fill-opacity="0.62" stroke="none"/>
<polygon points="24.5,199.1 261.9,199.1 236.4,21.0 105.7,21.0" fill="#f6eadf" fill-opacity="0.62" stroke="none"/>
<polygon points="261.9,199.1 335.5,239.0 276.8,42.9 236.4,21.0" fill="#eee8f6" fill-opacity="0.62" stroke="none"/>
<polygon points="335.5,239.0 98.1,239.0 146.2,42.9 276.8,42.9" fill="#eef0f3" fill-opacity="0.62" stroke="none"/>
<polygon points="98.1,239.0 24.5,199.1 105.7,21.0 146.2,42.9" fill="#dcecf2" fill-opacity="0.62" stroke="none"/>
<line x1="24.5" y1="199.1" x2="261.9" y2="199.1" stroke="#111" stroke-width="1.7" stroke-linecap="round"/>
<line x1="261.9" y1="199.1" x2="335.5" y2="239.0" stroke="#111" stroke-width="1.7" stroke-linecap="round"/>
<line x1="335.5" y1="239.0" x2="98.1" y2="239.0" stroke="#111" stroke-width="1.7" stroke-linecap="round"/>
<line x1="98.1" y1="239.0" x2="24.5" y2="199.1" stroke="#111" stroke-width="1.7" stroke-linecap="round"/>
<line x1="105.7" y1="21.0" x2="236.4" y2="21.0" stroke="#111" stroke-width="1.7" stroke-linecap="round"/>
<line x1="236.4" y1="21.0" x2="276.8" y2="42.9" stroke="#111" stroke-width="1.7" stroke-linecap="round"/>
<line x1="276.8" y1="42.9" x2="146.2" y2="42.9" stroke="#111" stroke-width="1.7" stroke-linecap="round"/>
<line x1="146.2" y1="42.9" x2="105.7" y2="21.0" stroke="#111" stroke-width="1.7" stroke-linecap="round"/>
<line x1="24.5" y1="199.1" x2="105.7" y2="21.0" stroke="#111" stroke-width="1.7" stroke-linecap="round"/>
<line x1="261.9" y1="199.1" x2="236.4" y2="21.0" stroke="#111" stroke-width="1.7" stroke-linecap="round"/>
<line x1="335.5" y1="239.0" x2="276.8" y2="42.9" stroke="#111" stroke-width="1.7" stroke-linecap="round"/>
<line x1="98.1" y1="239.0" x2="146.2" y2="42.9" stroke="#111" stroke-width="1.7" stroke-linecap="round"/>
<circle cx="24.5" cy="199.1" r="3.2" fill="#d97400"/>
<text x="29.5" y="194.1" font-family="Arial, sans-serif" font-size="11" font-weight="700" fill="#111">A</text>
<circle cx="261.9" cy="199.1" r="3.2" fill="#d97400"/>
<text x="266.9" y="194.1" font-family="Arial, sans-serif" font-size="11" font-weight="700" fill="#111">B</text>
<circle cx="335.5" cy="239.0" r="3.2" fill="#d97400"/>
<text x="340.5" y="234.0" font-family="Arial, sans-serif" font-size="11" font-weight="700" fill="#111">C</text>
<circle cx="98.1" cy="239.0" r="3.2" fill="#d97400"/>
<text x="103.1" y="234.0" font-family="Arial, sans-serif" font-size="11" font-weight="700" fill="#111">D</text>
<circle cx="105.7" cy="21.0" r="3.2" fill="#d97400"/>
<text x="110.7" y="16.0" font-family="Arial, sans-serif" font-size="11" font-weight="700" fill="#111">A1</text>
<circle cx="236.4" cy="21.0" r="3.2" fill="#d97400"/>
<text x="241.4" y="16.0" font-family="Arial, sans-serif" font-size="11" font-weight="700" fill="#111">B1</text>
<circle cx="276.8" cy="42.9" r="3.2" fill="#d97400"/>
<text x="281.8" y="37.9" font-family="Arial, sans-serif" font-size="11" font-weight="700" fill="#111">C1</text>
<circle cx="146.2" cy="42.9" r="3.2" fill="#d97400"/>
<text x="151.2" y="37.9" font-family="Arial, sans-serif" font-size="11" font-weight="700" fill="#111">D1</text>
</svg>
