<svg xmlns="http://www.w3.org/2000/svg" width="360" height="260" viewBox="0 0 360 260" role="img" aria-label="base_085 · 楔形体 #05">
<rect width="360" height="260" fill="#ffffff"/>
<polygon points="21.0,185.0 258.9,185.0 339.0,228.4 101.1,228.4" fill="#dcecf2" fill-opacity="0.62" stroke="none"/>
<polygon points="21.0,185.0 258.9,185.0 290.1,31.6 52.2,31.6" fill="#e8f3eb" fill-opacity="0.62" stroke="none"/>
<polygon points="101.1,228.4 339.0,228.4 290.1,31.6 52.2,31.6" fill="#f6eadf" fill-opacity="0.62" stroke="none"/>
<polygon points="21.0,185.0 101.1,228.4 52.2,31.6" fill="#eee8f6" fill-opacity="0.62" stroke="none"/>
<polygon points="258.9,185.0 339.0,228.4 290.1,31.6" fill="#eef0f3" fill-opacity="0.62" stroke="none"/>
<line x1="21.0" y1="185.0" x2="258.9" y2="185.0" stroke="#111" stroke-width="1.7" stroke-linecap="round"/>
<line x1="258.9" y1="185.0" x2="339.0" y2="228.4" stroke="#111" stroke-width="1.7" stroke-linecap="round"/>
<line x1="339.0" y1="228.4" x2="101.1" y2="228.4" stroke="#111" stroke-width="1.7" stroke-linecap="round"/>
<line x1="101.1" y1="228.4" x2="21.0" y2="185.0" stroke="#111" stroke-width="1.7" stroke-linecap="round"/>
<line x1="21.0" y1="185.0" x2="52.2" y2="31.6" stroke="#111" stroke-width="1.7" stroke-linecap="round"/>
<line x1="258.9" y1="185.0" x2="290.1" y2="31.6" stroke="#111" stroke-width="1.7" stroke-linecap="round"/>
<line x1="52.2" y1="31.6" x2="290.1" y2="31.6" stroke="#111" stroke-width="1.7" stroke-linecap="round"/>
<line x1="101.1" y1="228.4" x2="52.2" y2="31.6" stroke="#111" stroke-width="1.7" stroke-linecap="round"/>
<line x1="339.0" y1="228.4" x2="290.1" y2="31.6" stroke="#111" stroke-width="1.7" stroke-linecap="round"/>
<circle cx="21.0" cy="185.0" r="3.2" fill="#d97400"/>
<text x="26.0" y="180.0" font-family="Arial, sans-serif" font-size="11" font-weight="700" fill="#111">A</text>
<circle cx="258.9" cy="185.0" r="3.2" fill="#d97400"/>
<text x="263.9" y="180.0" font-family="Arial, sans-serif" font-size="11" font-weight="700" fill="#111">B</text>
<circle cx="339.0" cy="228.4" r="3.2" fill="#d97400"/>
<text x="344.0" y="223.4" font-family="Arial, sans-serif" font-size="11" font-weight="700" fill="#111">C</text>
<circle cx="101.1" cy="228.4" r="3.2" fill="#d97400"/>
<text x="106.1" y="223.4" font-family="Arial, sans-serif" font-size="11" font-weight="700" fill="#111">D</text>
<circle cx="52.2" cy="31.6" r="3.2" fill="#d97400"/>
<text x="57.2" y="26.6" font-family="Arial, sans-serif" font-size="11" font-weight="700" fill="#111">A1</text>
<circle cx="290.1" cy="31.6" r="3.2" fill="#d97400"/>
<text x="295.1" y="26.6" font-family="Arial, sans-serif" font-size="11" font-weight="700" fill="#111">B1</text>
</svg>
