<svg xmlns="http://www.w3.org/2000/svg" width="360" height="260" viewBox="0 0 360 260" role="img" aria-label="base_047 · 斜四棱柱 #07">
<rect width="360" height="260" fill="#ffffff"/>
<polygon points="45.4,202.0 245.8,202.0 314.1,239.0 113.6,239.0" fill="#dcecf2" fill-opacity="0.62" stroke="none"/>
<polygon points="45.9,21.0 246.4,21.0 314.6,58.0 114.2,58.0" fill="#e8f3eb" fill-opacity="0.62" stroke="none"/>
<polygon points="45.4,202.0 245.8,202.0 246.4,21.0 45.9,21.0" fill="#f6eadf" fill-opacity="0.62" stroke="none"/>
<polygon points="245.8,202.0 314.1,239.0 314.6,58.0 246.4,21.0" fill="#eee8f6" fill-opacity="0.62" stroke="none"/>
<polygon points="314.1,239.0 113.6,239.0 114.2,58.0 314.6,58.0" fill="#eef0f3" fill-opacity="0.62" stroke="none"/>
<polygon points="113.6,239.0 45.4,202.0 45.9,21.0 114.2,58.0" fill="#dcecf2" fill-opacity="0.62" stroke="none"/>
<line x1="45.4" y1="202.0" x2="245.8" y2="202.0" stroke="#111" stroke-width="1.7" stroke-linecap="round"/>
<line x1="245.8" y1="202.0" x2="314.1" y2="239.0" stroke="#111" stroke-width="1.7" stroke-linecap="round"/>
<line x1="314.1" y1="239.0" x2="113.6" y2="239.0" stroke="#111" stroke-width="1.7" stroke-linecap="round"/>
<line x1="113.6" y1="239.0" x2="45.4" y2="202.0" stroke="#111" stroke-width="1.7" stroke-linecap="round"/>
<line x1="45.9" y1="21.0" x2="246.4" y2="21.0" stroke="#111" stroke-width="1.7" stroke-linecap="round"/>
<line x1="246.4" y1="21.0" x2="314.6" y2="58.0" stroke="#111" stroke-width="1.7" stroke-linecap="round"/>
<line x1="314.6" y1="58.0" x2="114.2" y2="58.0" stroke="#111" stroke-width="1.7" stroke-linecap="round"/>
<line x1="114.2" y1="58.0" x2="45.9" y2="21.0" stroke="#111" stroke-width="1.7" stroke-linecap="round"/>
<line x1="45.4" y1="202.0" x2="45.9" y2="21.0" stroke="#111" stroke-width="1.7" stroke-linecap="round"/>
<line x1="245.8" y1="202.0" x2="246.4" y2="21.0" stroke="#111" stroke-width="1.7" stroke-linecap="round"/>
<line x1="314.1" y1="239.0" x2="314.6" y2="58.0" stroke="#111" stroke-width="1.7" stroke-linecap="round"/>
<line x1="113.6" y1="239.0" x2="114.2" y2="58.0" stroke="#111" stroke-width="1.7" stroke-linecap="round"/>
<circle cx="45.4" cy="202.0" r="3.2" fill="#d97400"/>
<text x="50.4" y="197.0" font-family="Arial, sans-serif" font-size="11" font-weight="700" fill="#111">A</text>
<circle cx="245.8" cy="202.0" r="3.2" fill="#d97400"/>
<text x="250.8" y="197.0" font-family="Arial, sans-serif" font-size="11" font-weight="700" fill="#111">B</text>
<circle cx="314.1" cy="239.0" r="3.2" fill="#d97400"/>
<text x="319.1" y="234.0" font-family="Arial, sans-serif" font-size="11" font-weight="700" fill="#111">C</text>
<circle cx="113.6" cy="239.0" r="3.2" fill="#d97400"/>
<text x="118.6" y="234.0" font-family="Arial, sans-serif" font-size="11" font-weight="700" fill="#111">D</text>
<circle cx="45.9" cy="21.0" r="3.2" fill="#d97400"/>
<text x="50.9" y="16.0" font-family="Arial, sans-serif" font-size="11" font-weight="700" fill="#111">A1</text>
<circle cx="246.4" cy="21.0" r="3.2" fill="#d97400"/>
<text x="251.4" y="16.0" font-family="Arial, sans-serif" font-size="11" font-weight="700" fill="#111">B1</text>
<circle cx="314.6" cy="58.0" r="3.2" fill="#d97400"/>
<text x="319.6" y="53.0" font-family="Arial, sans-serif" font-size="11" font-weight="700" fill="#111">C1</text>
<circle cx="114.2" cy="58.0" r="3.2" fill="#d97400"/>
<text x="119.2" y="53.0" font-family="Arial, sans-serif" font-size="11" font-weight="700" fill="#111">D1</text>
</svg>
