<svg xmlns="http://www.w3.org/2000/svg" width="360" height="260" viewBox="0 0 360 260" role="img" aria-label="base_066 · 三棱柱 #06">
<rect width="360" height="260" fill="#ffffff"/>
<polygon points="74.1,193.9 277.8,193.9 258.4,239.0" fill="#dcecf2" fill-opacity="0.62" stroke="none"/>
<polygon points="82.2,21.0 285.9,21.0 266.5,66.1" fill="#e8f3eb" fill-opacity="0.62" stroke="none"/>
<polygon points="74.1,193.9 277.8,193.9 285.9,21.0 82.2,21.0" fill="#f6eadf" fill-opacity="0.62" stroke="none"/>
<polygon points="277.8,193.9 258.4,239.0 266.5,66.1 285.9,21.0" fill="#eee8f6" fill-opacity="0.62" stroke="none"/>
<polygon points="258.4,239.0 74.1,193.9 82.2,21.0 266.5,66.1" fill="#eef0f3" fill-opacity="0.62" stroke="none"/>
<line x1="74.1" y1="193.9" x2="277.8" y2="193.9" stroke="#111" stroke-width="1.7" stroke-linecap="round"/>
<line x1="277.8" y1="193.9" x2="258.4" y2="239.0" stroke="#111" stroke-width="1.7" stroke-linecap="round"/>
<line x1="258.4" y1="239.0" x2="74.1" y2="193.9" stroke="#111" stroke-width="1.7" stroke-linecap="round"/>
<line x1="82.2" y1="21.0" x2="285.9" y2="21.0" stroke="#111" stroke-width="1.7" stroke-linecap="round"/>
<line x1="285.9" y1="21.0" x2="266.5" y2="66.1" stroke="#111" stroke-width="1.7" stroke-linecap="round"/>
<line x1="266.5" y1="66.1" x2="82.2" y2="21.0" stroke="#111" stroke-width="1.7" stroke-linecap="round"/>
<line x1="74.1" y1="193.9" x2="82.2" y2="21.0" stroke="#111" stroke-width="1.7" stroke-linecap="round"/>
<line x1="277.8" y1="193.9" x2="285.9" y2="21.0" stroke="#111" stroke-width="1.7" stroke-linecap="round"/>
<line x1="258.4" y1="239.0" x2="266.5" y2="66.1" stroke="#111" stroke-width="1.7" stroke-linecap="round"/>
<circle cx="74.1" cy="193.9" r="3.2" fill="#d97400"/>
<text x="79.1" y="188.9" font-family="Arial, sans-serif" font-size="11" font-weight="700" fill="#111">A</text>
<circle cx="277.8" cy="193.9" r="3.2" fill="#d97400"/>
<text x="282.8" y="188.9" font-family="Arial, sans-serif" font-size="11" font-weight="700" fill="#111">B</text>
<circle cx="258.4" cy="239.0" r="3.2" fill="#d97400"/>
<text x="263.4" y="234.0" font-family="Arial, sans-serif" font-size="11" font-weight="700" fill="#111">C</text>
<circle cx="82.2" cy="21.0" r="3.2" fill="#d97400"/>
<text x="87.2" y="16.0" font-family="Arial, sans-serif" font-size="11" font-weight="700" fill="#111">A1</text>
<circle cx="285.9" cy="21.0" r="3.2" fill="#d97400"/>
<text x="290.9" y="16.0" font-family="Arial, sans-serif" font-size="11" font-weight="700" fill="#111">B1</text>
<circle cx="266.5" cy="66.1" r="3.2" fill="#d97400"/>
<text x="271.5" y="61.1" font-family="Arial, sans-serif" font-size="11" font-weight="700" fill="#111">C1</text>
</svg>
