<svg xmlns="http://www.w3.org/2000/svg" width="360" height="260" viewBox="0 0 360 260" role="img" aria-label="base_002 · 四棱锥 #02">
<rect width="360" height="260" fill="#ffffff"/>
<polygon points="21.0,188.8 254.5,188.8 339.0,234.6 105.5,234.6" fill="#dcecf2" fill-opacity="0.62" stroke="none"/>
<polygon points="173.4,25.4 21.0,188.8 254.5,188.8" fill="#e8f3eb" fill-opacity="0.62" stroke="none"/>
<polygon points="173.4,25.4 254.5,188.8 339.0,234.6" fill="#f6eadf" fill-opacity="0.62" stroke="none"/>
<polygon points="173.4,25.4 339.0,234.6 105.5,234.6" fill="#eee8f6" fill-opacity="0.62" stroke="none"/>
<polygon points="173.4,25.4 105.5,234.6 21.0,188.8" fill="#eef0f3" fill-opacity="0.62" stroke="none"/>
<line x1="21.0" y1="188.8" x2="254.5" y2="188.8" stroke="#111" stroke-width="1.7" stroke-linecap="round"/>
<line x1="254.5" y1="188.8" x2="339.0" y2="234.6" stroke="#111" stroke-width="1.7" stroke-linecap="round"/>
<line x1="339.0" y1="234.6" x2="105.5" y2="234.6" stroke="#111" stroke-width="1.7" stroke-linecap="round"/>
<line x1="105.5" y1="234.6" x2="21.0" y2="188.8" stroke="#111" stroke-width="1.7" stroke-linecap="round"/>
<line x1="173.4" y1="25.4" x2="21.0" y2="188.8" stroke="#111" stroke-width="1.7" stroke-linecap="round"/>
<line x1="173.4" y1="25.4" x2="254.5" y2="188.8" stroke="#111" stroke-width="1.7" stroke-linecap="round"/>
<line x1="173.4" y1="25.4" x2="339.0" y2="234.6" stroke="#111" stroke-width="1.7" stroke-linecap="round"/>
<line x1="173.4" y1="25.4" x2="105.5" y2="234.6" stroke="#111" stroke-width="1.7" stroke-linecap="round"/>
<circle cx="21.0" cy="188.8" r="3.2" fill="#d97400"/>
<text x="26.0" y="183.8" font-family="Arial, sans-serif" font-size="11" font-weight="700" fill="#111">A</text>
<circle cx="254.5" cy="188.8" r="3.2" fill="#d97400"/>
<text x="259.5" y="183.8" font-family="Arial, sans-serif" font-size="11" font-weight="700" fill="#111">B</text>
<circle cx="339.0" cy="234.6" r="3.2" fill="#d97400"/>
<text x="344.0" y="229.6" font-family="Arial, sans-serif" font-size="11" font-weight="700" fill="#111">C</text>
<circle cx="105.5" cy="234.6" r="3.2" fill="#d97400"/>
<text x="110.5" y="229.6" font-family="Arial, sans-serif" font-size="11" font-weight="700" fill="#111">D</text>
<circle cx="173.4" cy="25.4" r="3.2" fill="#d97400"/>
<text x="178.4" y="20.4" font-family="Arial, sans-serif" font-size="11" font-weight="700" fill="#111">S</text>
</svg>
