<svg xmlns="http://www.w3.org/2000/svg" width="360" height="260" viewBox="0 0 360 260" role="img" aria-label="base_088 · 楔形体 #08">
<rect width="360" height="260" fill="#ffffff"/>
<polygon points="21.0,186.7 257.3,186.7 339.0,231.0 102.7,231.0" fill="#dcecf2" fill-opacity="0.62" stroke="none"/>
<polygon points="21.0,186.7 257.3,186.7 299.2,29.0 62.9,29.0" fill="#e8f3eb" fill-opacity="0.62" stroke="none"/>
<polygon points="102.7,231.0 339.0,231.0 299.2,29.0 62.9,29.0" fill="#f6eadf" fill-opacity="0.62" stroke="none"/>
<polygon points="21.0,186.7 102.7,231.0 62.9,29.0" fill="#eee8f6" fill-opacity="0.62" stroke="none"/>
<polygon points="257.3,186.7 339.0,231.0 299.2,29.0" fill="#eef0f3" fill-opacity="0.62" stroke="none"/>
<line x1="21.0" y1="186.7" x2="257.3" y2="186.7" stroke="#111" stroke-width="1.7" stroke-linecap="round"/>
<line x1="257.3" y1="186.7" x2="339.0" y2="231.0" stroke="#111" stroke-width="1.7" stroke-linecap="round"/>
<line x1="339.0" y1="231.0" x2="102.7" y2="231.0" stroke="#111" stroke-width="1.7" stroke-linecap="round"/>
<line x1="102.7" y1="231.0" x2="21.0" y2="186.7" stroke="#111" stroke-width="1.7" stroke-linecap="round"/>
<line x1="21.0" y1="186.7" x2="62.9" y2="29.0" stroke="#111" stroke-width="1.7" stroke-linecap="round"/>
<line x1="257.3" y1="186.7" x2="299.2" y2="29.0" stroke="#111" stroke-width="1.7" stroke-linecap="round"/>
<line x1="62.9" y1="29.0" x2="299.2" y2="29.0" stroke="#111" stroke-width="1.7" stroke-linecap="round"/>
<line x1="102.7" y1="231.0" x2="62.9" y2="29.0" stroke="#111" stroke-width="1.7" stroke-linecap="round"/>
<line x1="339.0" y1="231.0" x2="299.2" y2="29.0" stroke="#111" stroke-width="1.7" stroke-linecap="round"/>
<circle cx="21.0" cy="186.7" r="3.2" fill="#d97400"/>
<text x="26.0" y="181.7" font-family="Arial, sans-serif" font-size="11" font-weight="700" fill="#111">A</text>
<circle cx="257.3" cy="186.7" r="3.2" fill="#d97400"/>
<text x="262.3" y="181.7" font-family="Arial, sans-serif" font-size="11" font-weight="700" fill="#111">B</text>
<circle cx="339.0" cy="231.0" r="3.2" fill="#d97400"/>
<text x="344.0" y="226.0" font-family="Arial, sans-serif" font-size="11" font-weight="700" fill="#111">C</text>
<circle cx="102.7" cy="231.0" r="3.2" fill="#d97400"/>
<text x="107.7" y="226.0" font-family="Arial, sans-serif" font-size="11" font-weight="700" fill="#111">D</text>
<circle cx="62.9" cy="29.0" r="3.2" fill="#d97400"/>
<text x="67.9" y="24.0" font-family="Arial, sans-serif" font-size="11" font-weight="700" fill="#111">A1</text>
<circle cx="299.2" cy="29.0" r="3.2" fill="#d97400"/>
<text x="304.2" y="24.0" font-family="Arial, sans-serif" font-size="11" font-weight="700" fill="#111">B1</text>
</svg>
