<svg xmlns="http://www.w3.org/2000/svg" width="360" height="260" viewBox="0 0 360 260" role="img" aria-label="base_079 · 三棱台 #09">
<rect width="360" height="260" fill="#ffffff"/>
<polygon points="74.3,197.8 285.7,197.8 249.1,239.0" fill="#dcecf2" fill-opacity="0.62" stroke="none"/>
<polygon points="146.0,21.0 265.5,21.0 244.8,44.3" fill="#e8f3eb" fill-opacity="0.62" stroke="none"/>
<polygon points="74.3,197.8 285.7,197.8 265.5,21.0 146.0,21.0" fill="#f6eadf" fill-opacity="0.62" stroke="none"/>
<polygon points="285.7,197.8 249.1,239.0 244.8,44.3 265.5,21.0" fill="#eee8f6" fill-opacity="0.62" stroke="none"/>
<polygon points="249.1,239.0 74.3,197.8 146.0,21.0 244.8,44.3" fill="#eef0f3" fill-opacity="0.62" stroke="none"/>
<line x1="74.3" y1="197.8" x2="285.7" y2="197.8" stroke="#111" stroke-width="1.7" stroke-linecap="round"/>
<line x1="285.7" y1="197.8" x2="249.1" y2="239.0" stroke="#111" stroke-width="1.7" stroke-linecap="round"/>
<line x1="249.1" y1="239.0" x2="74.3" y2="197.8" stroke="#111" stroke-width="1.7" stroke-linecap="round"/>
<line x1="146.0" y1="21.0" x2="265.5" y2="21.0" stroke="#111" stroke-width="1.7" stroke-linecap="round"/>
<line x1="265.5" y1="21.0" x2="244.8" y2="44.3" stroke="#111" stroke-width="1.7" stroke-linecap="round"/>
<line x1="244.8" y1="44.3" x2="146.0" y2="21.0" stroke="#111" stroke-width="1.7" stroke-linecap="round"/>
<line x1="74.3" y1="197.8" x2="146.0" y2="21.0" stroke="#111" stroke-width="1.7" stroke-linecap="round"/>
<line x1="285.7" y1="197.8" x2="265.5" y2="21.0" stroke="#111" stroke-width="1.7" stroke-linecap="round"/>
<line x1="249.1" y1="239.0" x2="244.8" y2="44.3" stroke="#111" stroke-width="1.7" stroke-linecap="round"/>
<circle cx="74.3" cy="197.8" r="3.2" fill="#d97400"/>
<text x="79.3" y="192.8" font-family="Arial, sans-serif" font-size="11" font-weight="700" fill="#111">A</text>
<circle cx="285.7" cy="197.8" r="3.2" fill="#d97400"/>
<text x="290.7" y="192.8" font-family="Arial, sans-serif" font-size="11" font-weight="700" fill="#111">B</text>
<circle cx="249.1" cy="239.0" r="3.2" fill="#d97400"/>
<text x="254.1" y="234.0" font-family="Arial, sans-serif" font-size="11" font-weight="700" fill="#111">C</text>
<circle cx="146.0" cy="21.0" r="3.2" fill="#d97400"/>
<text x="151.0" y="16.0" font-family="Arial, sans-serif" font-size="11" font-weight="700" fill="#111">A1</text>
<circle cx="265.5" cy="21.0" r="3.2" fill="#d97400"/>
<text x="270.5" y="16.0" font-family="Arial, sans-serif" font-size="11" font-weight="700" fill="#111">B1</text>
<circle cx="244.8" cy="44.3" r="3.2" fill="#d97400"/>
<text x="249.8" y="39.3" font-family="Arial, sans-serif" font-size="11" font-weight="700" fill="#111">C1</text>
</svg>
