<svg xmlns="http://www.w3.org/2000/svg" width="360" height="260" viewBox="0 0 360 260" role="img" aria-label="base_086 · 楔形体 #06">
<rect width="360" height="260" fill="#ffffff"/>
<polygon points="21.0,185.6 258.3,185.6 339.0,229.3 101.7,229.3" fill="#dcecf2" fill-opacity="0.62" stroke="none"/>
<polygon points="21.0,185.6 258.3,185.6 293.3,30.7 56.0,30.7" fill="#e8f3eb" fill-opacity="0.62" stroke="none"/>
<polygon points="101.7,229.3 339.0,229.3 293.3,30.7 56.0,30.7" fill="#f6eadf" fill-opacity="0.62" stroke="none"/>
<polygon points="21.0,185.6 101.7,229.3 56.0,30.7" fill="#eee8f6" fill-opacity="0.62" stroke="none"/>
<polygon points="258.3,185.6 339.0,229.3 293.3,30.7" fill="#eef0f3" fill-opacity="0.62" stroke="none"/>
<line x1="21.0" y1="185.6" x2="258.3" y2="185.6" stroke="#111" stroke-width="1.7" stroke-linecap="round"/>
<line x1="258.3" y1="185.6" x2="339.0" y2="229.3" stroke="#111" stroke-width="1.7" stroke-linecap="round"/>
<line x1="339.0" y1="229.3" x2="101.7" y2="229.3" stroke="#111" stroke-width="1.7" stroke-linecap="round"/>
<line x1="101.7" y1="229.3" x2="21.0" y2="185.6" stroke="#111" stroke-width="1.7" stroke-linecap="round"/>
<line x1="21.0" y1="185.6" x2="56.0" y2="30.7" stroke="#111" stroke-width="1.7" stroke-linecap="round"/>
<line x1="258.3" y1="185.6" x2="293.3" y2="30.7" stroke="#111" stroke-width="1.7" stroke-linecap="round"/>
<line x1="56.0" y1="30.7" x2="293.3" y2="30.7" stroke="#111" stroke-width="1.7" stroke-linecap="round"/>
<line x1="101.7" y1="229.3" x2="56.0" y2="30.7" stroke="#111" stroke-width="1.7" stroke-linecap="round"/>
<line x1="339.0" y1="229.3" x2="293.3" y2="30.7" stroke="#111" stroke-width="1.7" stroke-linecap="round"/>
<circle cx="21.0" cy="185.6" r="3.2" fill="#d97400"/>
<text x="26.0" y="180.6" font-family="Arial, sans-serif" font-size="11" font-weight="700" fill="#111">A</text>
<circle cx="258.3" cy="185.6" r="3.2" fill="#d97400"/>
<text x="263.3" y="180.6" font-family="Arial, sans-serif" font-size="11" font-weight="700" fill="#111">B</text>
<circle cx="339.0" cy="229.3" r="3.2" fill="#d97400"/>
<text x="344.0" y="224.3" font-family="Arial, sans-serif" font-size="11" font-weight="700" fill="#111">C</text>
<circle cx="101.7" cy="229.3" r="3.2" fill="#d97400"/>
<text x="106.7" y="224.3" font-family="Arial, sans-serif" font-size="11" font-weight="700" fill="#111">D</text>
<circle cx="56.0" cy="30.7" r="3.2" fill="#d97400"/>
<text x="61.0" y="25.7" font-family="Arial, sans-serif" font-size="11" font-weight="700" fill="#111">A1</text>
<circle cx="293.3" cy="30.7" r="3.2" fill="#d97400"/>
<text x="298.3" y="25.7" font-family="Arial, sans-serif" font-size="11" font-weight="700" fill="#111">B1</text>
</svg>
