<svg xmlns="http://www.w3.org/2000/svg" width="360" height="260" viewBox="0 0 360 260" role="img" aria-label="base_023 · 三棱锥 #03">
<rect width="360" height="260" fill="#ffffff"/>
<polygon points="58.1,187.4 301.9,190.9 259.6,239.0" fill="#dcecf2" fill-opacity="0.62" stroke="none"/>
<polygon points="220.4,21.0 58.1,187.4 301.9,190.9" fill="#e8f3eb" fill-opacity="0.62" stroke="none"/>
<polygon points="220.4,21.0 301.9,190.9 259.6,239.0" fill="#f6eadf" fill-opacity="0.62" stroke="none"/>
<polygon points="220.4,21.0 259.6,239.0 58.1,187.4" fill="#eee8f6" fill-opacity="0.62" stroke="none"/>
<line x1="58.1" y1="187.4" x2="301.9" y2="190.9" stroke="#111" stroke-width="1.7" stroke-linecap="round"/>
<line x1="301.9" y1="190.9" x2="259.6" y2="239.0" stroke="#111" stroke-width="1.7" stroke-linecap="round"/>
<line x1="259.6" y1="239.0" x2="58.1" y2="187.4" stroke="#111" stroke-width="1.7" stroke-linecap="round"/>
<line x1="220.4" y1="21.0" x2="58.1" y2="187.4" stroke="#111" stroke-width="1.7" stroke-linecap="round"/>
<line x1="220.4" y1="21.0" x2="301.9" y2="190.9" stroke="#111" stroke-width="1.7" stroke-linecap="round"/>
<line x1="220.4" y1="21.0" x2="259.6" y2="239.0" stroke="#111" stroke-width="1.7" stroke-linecap="round"/>
<circle cx="58.1" cy="187.4" r="3.2" fill="#d97400"/>
<text x="63.1" y="182.4" font-family="Arial, sans-serif" font-size="11" font-weight="700" fill="#111">A</text>
<circle cx="301.9" cy="190.9" r="3.2" fill="#d97400"/>
<text x="306.9" y="185.9" font-family="Arial, sans-serif" font-size="11" font-weight="700" fill="#111">B</text>
<circle cx="259.6" cy="239.0" r="3.2" fill="#d97400"/>
<text x="264.6" y="234.0" font-family="Arial, sans-serif" font-size="11" font-weight="700" fill="#111">C</text>
<circle cx="220.4" cy="21.0" r="3.2" fill="#d97400"/>
<text x="225.4" y="16.0" font-family="Arial, sans-serif" font-size="11" font-weight="700" fill="#111">S</text>
</svg>
