<svg xmlns="http://www.w3.org/2000/svg" width="360" height="260" viewBox="0 0 360 260" role="img" aria-label="base_011 · 偏顶四棱锥 #01">
<rect width="360" height="260" fill="#ffffff"/>
<polygon points="21.0,188.8 251.4,188.8 339.0,236.2 108.6,236.2" fill="#dcecf2" fill-opacity="0.62" stroke="none"/>
<polygon points="137.8,23.8 21.0,188.8 251.4,188.8" fill="#e8f3eb" fill-opacity="0.62" stroke="none"/>
<polygon points="137.8,23.8 251.4,188.8 339.0,236.2" fill="#f6eadf" fill-opacity="0.62" stroke="none"/>
<polygon points="137.8,23.8 339.0,236.2 108.6,236.2" fill="#eee8f6" fill-opacity="0.62" stroke="none"/>
<polygon points="137.8,23.8 108.6,236.2 21.0,188.8" fill="#eef0f3" fill-opacity="0.62" stroke="none"/>
<line x1="21.0" y1="188.8" x2="251.4" y2="188.8" stroke="#111" stroke-width="1.7" stroke-linecap="round"/>
<line x1="251.4" y1="188.8" x2="339.0" y2="236.2" stroke="#111" stroke-width="1.7" stroke-linecap="round"/>
<line x1="339.0" y1="236.2" x2="108.6" y2="236.2" stroke="#111" stroke-width="1.7" stroke-linecap="round"/>
<line x1="108.6" y1="236.2" x2="21.0" y2="188.8" stroke="#111" stroke-width="1.7" stroke-linecap="round"/>
<line x1="137.8" y1="23.8" x2="21.0" y2="188.8" stroke="#111" stroke-width="1.7" stroke-linecap="round"/>
<line x1="137.8" y1="23.8" x2="251.4" y2="188.8" stroke="#111" stroke-width="1.7" stroke-linecap="round"/>
<line x1="137.8" y1="23.8" x2="339.0" y2="236.2" stroke="#111" stroke-width="1.7" stroke-linecap="round"/>
<line x1="137.8" y1="23.8" x2="108.6" y2="236.2" stroke="#111" stroke-width="1.7" stroke-linecap="round"/>
<circle cx="21.0" cy="188.8" r="3.2" fill="#d97400"/>
<text x="26.0" y="183.8" font-family="Arial, sans-serif" font-size="11" font-weight="700" fill="#111">A</text>
<circle cx="251.4" cy="188.8" r="3.2" fill="#d97400"/>
<text x="256.4" y="183.8" font-family="Arial, sans-serif" font-size="11" font-weight="700" fill="#111">B</text>
<circle cx="339.0" cy="236.2" r="3.2" fill="#d97400"/>
<text x="344.0" y="231.2" font-family="Arial, sans-serif" font-size="11" font-weight="700" fill="#111">C</text>
<circle cx="108.6" cy="236.2" r="3.2" fill="#d97400"/>
<text x="113.6" y="231.2" font-family="Arial, sans-serif" font-size="11" font-weight="700" fill="#111">D</text>
<circle cx="137.8" cy="23.8" r="3.2" fill="#d97400"/>
<text x="142.8" y="18.8" font-family="Arial, sans-serif" font-size="11" font-weight="700" fill="#111">S</text>
</svg>
