<svg xmlns="http://www.w3.org/2000/svg" width="360" height="260" viewBox="0 0 360 260" role="img" aria-label="base_074 · 三棱台 #04">
<rect width="360" height="260" fill="#ffffff"/>
<polygon points="42.0,190.1 318.0,190.1 261.9,239.0" fill="#dcecf2" fill-opacity="0.62" stroke="none"/>
<polygon points="121.6,21.0 277.4,21.0 245.8,48.7" fill="#e8f3eb" fill-opacity="0.62" stroke="none"/>
<polygon points="42.0,190.1 318.0,190.1 277.4,21.0 121.6,21.0" fill="#f6eadf" fill-opacity="0.62" stroke="none"/>
<polygon points="318.0,190.1 261.9,239.0 245.8,48.7 277.4,21.0" fill="#eee8f6" fill-opacity="0.62" stroke="none"/>
<polygon points="261.9,239.0 42.0,190.1 121.6,21.0 245.8,48.7" fill="#eef0f3" fill-opacity="0.62" stroke="none"/>
<line x1="42.0" y1="190.1" x2="318.0" y2="190.1" stroke="#111" stroke-width="1.7" stroke-linecap="round"/>
<line x1="318.0" y1="190.1" x2="261.9" y2="239.0" stroke="#111" stroke-width="1.7" stroke-linecap="round"/>
<line x1="261.9" y1="239.0" x2="42.0" y2="190.1" stroke="#111" stroke-width="1.7" stroke-linecap="round"/>
<line x1="121.6" y1="21.0" x2="277.4" y2="21.0" stroke="#111" stroke-width="1.7" stroke-linecap="round"/>
<line x1="277.4" y1="21.0" x2="245.8" y2="48.7" stroke="#111" stroke-width="1.7" stroke-linecap="round"/>
<line x1="245.8" y1="48.7" x2="121.6" y2="21.0" stroke="#111" stroke-width="1.7" stroke-linecap="round"/>
<line x1="42.0" y1="190.1" x2="121.6" y2="21.0" stroke="#111" stroke-width="1.7" stroke-linecap="round"/>
<line x1="318.0" y1="190.1" x2="277.4" y2="21.0" stroke="#111" stroke-width="1.7" stroke-linecap="round"/>
<line x1="261.9" y1="239.0" x2="245.8" y2="48.7" stroke="#111" stroke-width="1.7" stroke-linecap="round"/>
<circle cx="42.0" cy="190.1" r="3.2" fill="#d97400"/>
<text x="47.0" y="185.1" font-family="Arial, sans-serif" font-size="11" font-weight="700" fill="#111">A</text>
<circle cx="318.0" cy="190.1" r="3.2" fill="#d97400"/>
<text x="323.0" y="185.1" font-family="Arial, sans-serif" font-size="11" font-weight="700" fill="#111">B</text>
<circle cx="261.9" cy="239.0" r="3.2" fill="#d97400"/>
<text x="266.9" y="234.0" font-family="Arial, sans-serif" font-size="11" font-weight="700" fill="#111">C</text>
<circle cx="121.6" cy="21.0" r="3.2" fill="#d97400"/>
<text x="126.6" y="16.0" font-family="Arial, sans-serif" font-size="11" font-weight="700" fill="#111">A1</text>
<circle cx="277.4" cy="21.0" r="3.2" fill="#d97400"/>
<text x="282.4" y="16.0" font-family="Arial, sans-serif" font-size="11" font-weight="700" fill="#111">B1</text>
<circle cx="245.8" cy="48.7" r="3.2" fill="#d97400"/>
<text x="250.8" y="43.7" font-family="Arial, sans-serif" font-size="11" font-weight="700" fill="#111">C1</text>
</svg>
