<svg xmlns="http://www.w3.org/2000/svg" width="360" height="260" viewBox="0 0 360 260" role="img" aria-label="base_080 · 三棱台 #10">
<rect width="360" height="260" fill="#ffffff"/>
<polygon points="73.5,197.4 286.5,197.4 250.0,239.0" fill="#dcecf2" fill-opacity="0.62" stroke="none"/>
<polygon points="147.9,21.0 275.6,21.0 253.7,46.0" fill="#e8f3eb" fill-opacity="0.62" stroke="none"/>
<polygon points="73.5,197.4 286.5,197.4 275.6,21.0 147.9,21.0" fill="#f6eadf" fill-opacity="0.62" stroke="none"/>
<polygon points="286.5,197.4 250.0,239.0 253.7,46.0 275.6,21.0" fill="#eee8f6" fill-opacity="0.62" stroke="none"/>
<polygon points="250.0,239.0 73.5,197.4 147.9,21.0 253.7,46.0" fill="#eef0f3" fill-opacity="0.62" stroke="none"/>
<line x1="73.5" y1="197.4" x2="286.5" y2="197.4" stroke="#111" stroke-width="1.7" stroke-linecap="round"/>
<line x1="286.5" y1="197.4" x2="250.0" y2="239.0" stroke="#111" stroke-width="1.7" stroke-linecap="round"/>
<line x1="250.0" y1="239.0" x2="73.5" y2="197.4" stroke="#111" stroke-width="1.7" stroke-linecap="round"/>
<line x1="147.9" y1="21.0" x2="275.6" y2="21.0" stroke="#111" stroke-width="1.7" stroke-linecap="round"/>
<line x1="275.6" y1="21.0" x2="253.7" y2="46.0" stroke="#111" stroke-width="1.7" stroke-linecap="round"/>
<line x1="253.7" y1="46.0" x2="147.9" y2="21.0" stroke="#111" stroke-width="1.7" stroke-linecap="round"/>
<line x1="73.5" y1="197.4" x2="147.9" y2="21.0" stroke="#111" stroke-width="1.7" stroke-linecap="round"/>
<line x1="286.5" y1="197.4" x2="275.6" y2="21.0" stroke="#111" stroke-width="1.7" stroke-linecap="round"/>
<line x1="250.0" y1="239.0" x2="253.7" y2="46.0" stroke="#111" stroke-width="1.7" stroke-linecap="round"/>
<circle cx="73.5" cy="197.4" r="3.2" fill="#d97400"/>
<text x="78.5" y="192.4" font-family="Arial, sans-serif" font-size="11" font-weight="700" fill="#111">A</text>
<circle cx="286.5" cy="197.4" r="3.2" fill="#d97400"/>
<text x="291.5" y="192.4" font-family="Arial, sans-serif" font-size="11" font-weight="700" fill="#111">B</text>
<circle cx="250.0" cy="239.0" r="3.2" fill="#d97400"/>
<text x="255.0" y="234.0" font-family="Arial, sans-serif" font-size="11" font-weight="700" fill="#111">C</text>
<circle cx="147.9" cy="21.0" r="3.2" fill="#d97400"/>
<text x="152.9" y="16.0" font-family="Arial, sans-serif" font-size="11" font-weight="700" fill="#111">A1</text>
<circle cx="275.6" cy="21.0" r="3.2" fill="#d97400"/>
<text x="280.6" y="16.0" font-family="Arial, sans-serif" font-size="11" font-weight="700" fill="#111">B1</text>
<circle cx="253.7" cy="46.0" r="3.2" fill="#d97400"/>
<text x="258.7" y="41.0" font-family="Arial, sans-serif" font-size="11" font-weight="700" fill="#111">C1</text>
</svg>
