<svg xmlns="http://www.w3.org/2000/svg" width="360" height="260" viewBox="0 0 360 260" role="img" aria-label="base_062 · 三棱柱 #02">
<rect width="360" height="260" fill="#ffffff"/>
<polygon points="56.2,186.8 301.4,186.8 263.9,239.0" fill="#dcecf2" fill-opacity="0.62" stroke="none"/>
<polygon points="58.6,21.0 303.8,21.0 266.4,73.2" fill="#e8f3eb" fill-opacity="0.62" stroke="none"/>
<polygon points="56.2,186.8 301.4,186.8 303.8,21.0 58.6,21.0" fill="#f6eadf" fill-opacity="0.62" stroke="none"/>
<polygon points="301.4,186.8 263.9,239.0 266.4,73.2 303.8,21.0" fill="#eee8f6" fill-opacity="0.62" stroke="none"/>
<polygon points="263.9,239.0 56.2,186.8 58.6,21.0 266.4,73.2" fill="#eef0f3" fill-opacity="0.62" stroke="none"/>
<line x1="56.2" y1="186.8" x2="301.4" y2="186.8" stroke="#111" stroke-width="1.7" stroke-linecap="round"/>
<line x1="301.4" y1="186.8" x2="263.9" y2="239.0" stroke="#111" stroke-width="1.7" stroke-linecap="round"/>
<line x1="263.9" y1="239.0" x2="56.2" y2="186.8" stroke="#111" stroke-width="1.7" stroke-linecap="round"/>
<line x1="58.6" y1="21.0" x2="303.8" y2="21.0" stroke="#111" stroke-width="1.7" stroke-linecap="round"/>
<line x1="303.8" y1="21.0" x2="266.4" y2="73.2" stroke="#111" stroke-width="1.7" stroke-linecap="round"/>
<line x1="266.4" y1="73.2" x2="58.6" y2="21.0" stroke="#111" stroke-width="1.7" stroke-linecap="round"/>
<line x1="56.2" y1="186.8" x2="58.6" y2="21.0" stroke="#111" stroke-width="1.7" stroke-linecap="round"/>
<line x1="301.4" y1="186.8" x2="303.8" y2="21.0" stroke="#111" stroke-width="1.7" stroke-linecap="round"/>
<line x1="263.9" y1="239.0" x2="266.4" y2="73.2" stroke="#111" stroke-width="1.7" stroke-linecap="round"/>
<circle cx="56.2" cy="186.8" r="3.2" fill="#d97400"/>
<text x="61.2" y="181.8" font-family="Arial, sans-serif" font-size="11" font-weight="700" fill="#111">A</text>
<circle cx="301.4" cy="186.8" r="3.2" fill="#d97400"/>
<text x="306.4" y="181.8" font-family="Arial, sans-serif" font-size="11" font-weight="700" fill="#111">B</text>
<circle cx="263.9" cy="239.0" r="3.2" fill="#d97400"/>
<text x="268.9" y="234.0" font-family="Arial, sans-serif" font-size="11" font-weight="700" fill="#111">C</text>
<circle cx="58.6" cy="21.0" r="3.2" fill="#d97400"/>
<text x="63.6" y="16.0" font-family="Arial, sans-serif" font-size="11" font-weight="700" fill="#111">A1</text>
<circle cx="303.8" cy="21.0" r="3.2" fill="#d97400"/>
<text x="308.8" y="16.0" font-family="Arial, sans-serif" font-size="11" font-weight="700" fill="#111">B1</text>
<circle cx="266.4" cy="73.2" r="3.2" fill="#d97400"/>
<text x="271.4" y="68.2" font-family="Arial, sans-serif" font-size="11" font-weight="700" fill="#111">C1</text>
</svg>
