<svg xmlns="http://www.w3.org/2000/svg" width="360" height="260" viewBox="0 0 360 260" role="img" aria-label="base_019 · 偏顶四棱锥 #09">
<rect width="360" height="260" fill="#ffffff"/>
<polygon points="46.3,201.7 244.8,201.7 313.7,239.0 115.2,239.0" fill="#dcecf2" fill-opacity="0.62" stroke="none"/>
<polygon points="194.5,21.0 46.3,201.7 244.8,201.7" fill="#e8f3eb" fill-opacity="0.62" stroke="none"/>
<polygon points="194.5,21.0 244.8,201.7 313.7,239.0" fill="#f6eadf" fill-opacity="0.62" stroke="none"/>
<polygon points="194.5,21.0 313.7,239.0 115.2,239.0" fill="#eee8f6" fill-opacity="0.62" stroke="none"/>
<polygon points="194.5,21.0 115.2,239.0 46.3,201.7" fill="#eef0f3" fill-opacity="0.62" stroke="none"/>
<line x1="46.3" y1="201.7" x2="244.8" y2="201.7" stroke="#111" stroke-width="1.7" stroke-linecap="round"/>
<line x1="244.8" y1="201.7" x2="313.7" y2="239.0" stroke="#111" stroke-width="1.7" stroke-linecap="round"/>
<line x1="313.7" y1="239.0" x2="115.2" y2="239.0" stroke="#111" stroke-width="1.7" stroke-linecap="round"/>
<line x1="115.2" y1="239.0" x2="46.3" y2="201.7" stroke="#111" stroke-width="1.7" stroke-linecap="round"/>
<line x1="194.5" y1="21.0" x2="46.3" y2="201.7" stroke="#111" stroke-width="1.7" stroke-linecap="round"/>
<line x1="194.5" y1="21.0" x2="244.8" y2="201.7" stroke="#111" stroke-width="1.7" stroke-linecap="round"/>
<line x1="194.5" y1="21.0" x2="313.7" y2="239.0" stroke="#111" stroke-width="1.7" stroke-linecap="round"/>
<line x1="194.5" y1="21.0" x2="115.2" y2="239.0" stroke="#111" stroke-width="1.7" stroke-linecap="round"/>
<circle cx="46.3" cy="201.7" r="3.2" fill="#d97400"/>
<text x="51.3" y="196.7" font-family="Arial, sans-serif" font-size="11" font-weight="700" fill="#111">A</text>
<circle cx="244.8" cy="201.7" r="3.2" fill="#d97400"/>
<text x="249.8" y="196.7" font-family="Arial, sans-serif" font-size="11" font-weight="700" fill="#111">B</text>
<circle cx="313.7" cy="239.0" r="3.2" fill="#d97400"/>
<text x="318.7" y="234.0" font-family="Arial, sans-serif" font-size="11" font-weight="700" fill="#111">C</text>
<circle cx="115.2" cy="239.0" r="3.2" fill="#d97400"/>
<text x="120.2" y="234.0" font-family="Arial, sans-serif" font-size="11" font-weight="700" fill="#111">D</text>
<circle cx="194.5" cy="21.0" r="3.2" fill="#d97400"/>
<text x="199.5" y="16.0" font-family="Arial, sans-serif" font-size="11" font-weight="700" fill="#111">S</text>
</svg>
