<svg xmlns="http://www.w3.org/2000/svg" width="360" height="260" viewBox="0 0 360 260" role="img" aria-label="base_005 · 四棱锥 #05">
<rect width="360" height="260" fill="#ffffff"/>
<polygon points="42.0,200.8 247.5,200.8 318.0,239.0 112.5,239.0" fill="#dcecf2" fill-opacity="0.62" stroke="none"/>
<polygon points="175.7,21.0 42.0,200.8 247.5,200.8" fill="#e8f3eb" fill-opacity="0.62" stroke="none"/>
<polygon points="175.7,21.0 247.5,200.8 318.0,239.0" fill="#f6eadf" fill-opacity="0.62" stroke="none"/>
<polygon points="175.7,21.0 318.0,239.0 112.5,239.0" fill="#eee8f6" fill-opacity="0.62" stroke="none"/>
<polygon points="175.7,21.0 112.5,239.0 42.0,200.8" fill="#eef0f3" fill-opacity="0.62" stroke="none"/>
<line x1="42.0" y1="200.8" x2="247.5" y2="200.8" stroke="#111" stroke-width="1.7" stroke-linecap="round"/>
<line x1="247.5" y1="200.8" x2="318.0" y2="239.0" stroke="#111" stroke-width="1.7" stroke-linecap="round"/>
<line x1="318.0" y1="239.0" x2="112.5" y2="239.0" stroke="#111" stroke-width="1.7" stroke-linecap="round"/>
<line x1="112.5" y1="239.0" x2="42.0" y2="200.8" stroke="#111" stroke-width="1.7" stroke-linecap="round"/>
<line x1="175.7" y1="21.0" x2="42.0" y2="200.8" stroke="#111" stroke-width="1.7" stroke-linecap="round"/>
<line x1="175.7" y1="21.0" x2="247.5" y2="200.8" stroke="#111" stroke-width="1.7" stroke-linecap="round"/>
<line x1="175.7" y1="21.0" x2="318.0" y2="239.0" stroke="#111" stroke-width="1.7" stroke-linecap="round"/>
<line x1="175.7" y1="21.0" x2="112.5" y2="239.0" stroke="#111" stroke-width="1.7" stroke-linecap="round"/>
<circle cx="42.0" cy="200.8" r="3.2" fill="#d97400"/>
<text x="47.0" y="195.8" font-family="Arial, sans-serif" font-size="11" font-weight="700" fill="#111">A</text>
<circle cx="247.5" cy="200.8" r="3.2" fill="#d97400"/>
<text x="252.5" y="195.8" font-family="Arial, sans-serif" font-size="11" font-weight="700" fill="#111">B</text>
<circle cx="318.0" cy="239.0" r="3.2" fill="#d97400"/>
<text x="323.0" y="234.0" font-family="Arial, sans-serif" font-size="11" font-weight="700" fill="#111">C</text>
<circle cx="112.5" cy="239.0" r="3.2" fill="#d97400"/>
<text x="117.5" y="234.0" font-family="Arial, sans-serif" font-size="11" font-weight="700" fill="#111">D</text>
<circle cx="175.7" cy="21.0" r="3.2" fill="#d97400"/>
<text x="180.7" y="16.0" font-family="Arial, sans-serif" font-size="11" font-weight="700" fill="#111">S</text>
</svg>
