<svg xmlns="http://www.w3.org/2000/svg" width="360" height="260" viewBox="0 0 360 260" role="img" aria-label="base_051 · 四棱台 #01">
<rect width="360" height="260" fill="#ffffff"/>
<polygon points="21.0,177.9 254.8,177.9 339.0,223.5 105.2,223.5" fill="#dcecf2" fill-opacity="0.62" stroke="none"/>
<polygon points="93.6,36.5 205.9,36.5 246.3,58.4 134.0,58.4" fill="#e8f3eb" fill-opacity="0.62" stroke="none"/>
<polygon points="21.0,177.9 254.8,177.9 205.9,36.5 93.6,36.5" fill="#f6eadf" fill-opacity="0.62" stroke="none"/>
<polygon points="254.8,177.9 339.0,223.5 246.3,58.4 205.9,36.5" fill="#eee8f6" fill-opacity="0.62" stroke="none"/>
<polygon points="339.0,223.5 105.2,223.5 134.0,58.4 246.3,58.4" fill="#eef0f3" fill-opacity="0.62" stroke="none"/>
<polygon points="105.2,223.5 21.0,177.9 93.6,36.5 134.0,58.4" fill="#dcecf2" fill-opacity="0.62" stroke="none"/>
<line x1="21.0" y1="177.9" x2="254.8" y2="177.9" stroke="#111" stroke-width="1.7" stroke-linecap="round"/>
<line x1="254.8" y1="177.9" x2="339.0" y2="223.5" stroke="#111" stroke-width="1.7" stroke-linecap="round"/>
<line x1="339.0" y1="223.5" x2="105.2" y2="223.5" stroke="#111" stroke-width="1.7" stroke-linecap="round"/>
<line x1="105.2" y1="223.5" x2="21.0" y2="177.9" stroke="#111" stroke-width="1.7" stroke-linecap="round"/>
<line x1="93.6" y1="36.5" x2="205.9" y2="36.5" stroke="#111" stroke-width="1.7" stroke-linecap="round"/>
<line x1="205.9" y1="36.5" x2="246.3" y2="58.4" stroke="#111" stroke-width="1.7" stroke-linecap="round"/>
<line x1="246.3" y1="58.4" x2="134.0" y2="58.4" stroke="#111" stroke-width="1.7" stroke-linecap="round"/>
<line x1="134.0" y1="58.4" x2="93.6" y2="36.5" stroke="#111" stroke-width="1.7" stroke-linecap="round"/>
<line x1="21.0" y1="177.9" x2="93.6" y2="36.5" stroke="#111" stroke-width="1.7" stroke-linecap="round"/>
<line x1="254.8" y1="177.9" x2="205.9" y2="36.5" stroke="#111" stroke-width="1.7" stroke-linecap="round"/>
<line x1="339.0" y1="223.5" x2="246.3" y2="58.4" stroke="#111" stroke-width="1.7" stroke-linecap="round"/>
<line x1="105.2" y1="223.5" x2="134.0" y2="58.4" stroke="#111" stroke-width="1.7" stroke-linecap="round"/>
<circle cx="21.0" cy="177.9" r="3.2" fill="#d97400"/>
<text x="26.0" y="172.9" font-family="Arial, sans-serif" font-size="11" font-weight="700" fill="#111">A</text>
<circle cx="254.8" cy="177.9" r="3.2" fill="#d97400"/>
<text x="259.8" y="172.9" font-family="Arial, sans-serif" font-size="11" font-weight="700" fill="#111">B</text>
<circle cx="339.0" cy="223.5" r="3.2" fill="#d97400"/>
<text x="344.0" y="218.5" font-family="Arial, sans-serif" font-size="11" font-weight="700" fill="#111">C</text>
<circle cx="105.2" cy="223.5" r="3.2" fill="#d97400"/>
<text x="110.2" y="218.5" font-family="Arial, sans-serif" font-size="11" font-weight="700" fill="#111">D</text>
<circle cx="93.6" cy="36.5" r="3.2" fill="#d97400"/>
<text x="98.6" y="31.5" font-family="Arial, sans-serif" font-size="11" font-weight="700" fill="#111">A1</text>
<circle cx="205.9" cy="36.5" r="3.2" fill="#d97400"/>
<text x="210.9" y="31.5" font-family="Arial, sans-serif" font-size="11" font-weight="700" fill="#111">B1</text>
<circle cx="246.3" cy="58.4" r="3.2" fill="#d97400"/>
<text x="251.3" y="53.4" font-family="Arial, sans-serif" font-size="11" font-weight="700" fill="#111">C1</text>
<circle cx="134.0" cy="58.4" r="3.2" fill="#d97400"/>
<text x="139.0" y="53.4" font-family="Arial, sans-serif" font-size="11" font-weight="700" fill="#111">D1</text>
</svg>
