<svg xmlns="http://www.w3.org/2000/svg" width="320" height="230" viewBox="0 0 320 230" role="img" aria-label="B+++03 · 端侧面互动网">
<rect width="320" height="230" fill="#fff"/>
<polygon points="54.6,169.6 269.0,169.6 229.7,209.0" fill="#e9f0f4" fill-opacity="0.45" stroke="none"/>
<polygon points="51.0,21.0 265.4,21.0 226.2,60.4" fill="#edf4ee" fill-opacity="0.45" stroke="none"/>
<polygon points="54.6,169.6 269.0,169.6 265.4,21.0 51.0,21.0" fill="#f6eee5" fill-opacity="0.45" stroke="none"/>
<polygon points="269.0,169.6 229.7,209.0 226.2,60.4 265.4,21.0" fill="#f0ecf8" fill-opacity="0.45" stroke="none"/>
<polygon points="229.7,209.0 54.6,169.6 51.0,21.0 226.2,60.4" fill="#eef0f3" fill-opacity="0.45" stroke="none"/>
<polygon points="229.7,209.0 54.6,169.6 269.0,169.6" fill="#1971c2" fill-opacity="0.11" stroke="#1971c2" stroke-width="1.4"/>
<polygon points="226.2,60.4 51.0,21.0 265.4,21.0" fill="#d9480f" fill-opacity="0.11" stroke="#d9480f" stroke-width="1.4"/>
<polygon points="228.0,134.7 52.8,95.3 267.2,95.3" fill="#2f9e44" fill-opacity="0.22" stroke="#2f9e44" stroke-width="1.4"/>
<polygon points="229.7,209.0 54.6,169.6 51.0,21.0 226.2,60.4" fill="#7048e8" fill-opacity="0.18" stroke="#7048e8" stroke-width="1.4"/>
<polygon points="269.0,169.6 142.2,189.3 138.6,40.7 265.4,21.0" fill="#c2255c" fill-opacity="0.18" stroke="#c2255c" stroke-width="1.4" stroke-dasharray="5 4"/>
<line x1="54.6" y1="169.6" x2="269.0" y2="169.6" stroke="#111" stroke-width="1.45" stroke-linecap="round"/>
<line x1="269.0" y1="169.6" x2="229.7" y2="209.0" stroke="#111" stroke-width="1.45" stroke-linecap="round"/>
<line x1="229.7" y1="209.0" x2="54.6" y2="169.6" stroke="#111" stroke-width="1.45" stroke-linecap="round"/>
<line x1="51.0" y1="21.0" x2="265.4" y2="21.0" stroke="#111" stroke-width="1.45" stroke-linecap="round"/>
<line x1="265.4" y1="21.0" x2="226.2" y2="60.4" stroke="#111" stroke-width="1.45" stroke-linecap="round"/>
<line x1="226.2" y1="60.4" x2="51.0" y2="21.0" stroke="#111" stroke-width="1.45" stroke-linecap="round"/>
<line x1="54.6" y1="169.6" x2="51.0" y2="21.0" stroke="#111" stroke-width="1.45" stroke-linecap="round"/>
<line x1="269.0" y1="169.6" x2="265.4" y2="21.0" stroke="#111" stroke-width="1.45" stroke-linecap="round"/>
<line x1="229.7" y1="209.0" x2="226.2" y2="60.4" stroke="#111" stroke-width="1.45" stroke-linecap="round"/>
<line x1="184.5" y1="182.7" x2="180.9" y2="34.2" stroke="#c2255c" stroke-width="2.15" stroke-linecap="round" stroke-opacity="0.88"/>
<line x1="142.2" y1="189.3" x2="138.6" y2="40.7" stroke="#2f9e44" stroke-width="2.15" stroke-linecap="round" stroke-opacity="0.88"/>
<line x1="269.0" y1="169.6" x2="142.2" y2="189.3" stroke="#c2255c" stroke-width="2.15" stroke-linecap="round" stroke-opacity="0.88"/>
<line x1="265.4" y1="21.0" x2="138.6" y2="40.7" stroke="#c2255c" stroke-width="2.15" stroke-linecap="round" stroke-opacity="0.88"/>
<line x1="184.5" y1="182.7" x2="142.2" y2="189.3" stroke="#d97400" stroke-width="2.15" stroke-linecap="round" stroke-opacity="0.88"/>
<line x1="180.9" y1="34.2" x2="138.6" y2="40.7" stroke="#d97400" stroke-width="2.15" stroke-linecap="round" stroke-opacity="0.88"/>
<line x1="140.4" y1="115.0" x2="160.0" y2="95.3" stroke="#d9480f" stroke-width="2.15" stroke-linecap="round" stroke-opacity="0.88"/>
<line x1="140.4" y1="115.0" x2="228.0" y2="134.7" stroke="#7048e8" stroke-width="2.15" stroke-linecap="round" stroke-opacity="0.88"/>
<line x1="140.4" y1="115.0" x2="52.8" y2="95.3" stroke="#7048e8" stroke-width="2.15" stroke-linecap="round" stroke-opacity="0.88"/>
<line x1="160.0" y1="95.3" x2="52.8" y2="95.3" stroke="#2f9e44" stroke-width="2.15" stroke-linecap="round" stroke-opacity="0.88"/>
<line x1="160.0" y1="95.3" x2="267.2" y2="95.3" stroke="#2f9e44" stroke-width="2.15" stroke-linecap="round" stroke-opacity="0.88"/>
<line x1="228.0" y1="134.7" x2="52.8" y2="95.3" stroke="#c2255c" stroke-width="2.15" stroke-linecap="round" stroke-opacity="0.78" stroke-dasharray="6 4"/>
<line x1="52.8" y1="95.3" x2="267.2" y2="95.3" stroke="#c2255c" stroke-width="2.15" stroke-linecap="round" stroke-opacity="0.78" stroke-dasharray="6 4"/>
<line x1="267.2" y1="95.3" x2="228.0" y2="134.7" stroke="#c2255c" stroke-width="2.15" stroke-linecap="round" stroke-opacity="0.78" stroke-dasharray="6 4"/>
<circle cx="54.6" cy="169.6" r="3.4" fill="#111111"/>
<text x="60.1" y="164.1" font-family="Arial, sans-serif" font-size="10.5" font-weight="700" paint-order="stroke" stroke="#fff" stroke-width="3" fill="#111111">A</text>
<text x="60.1" y="164.1" font-family="Arial, sans-serif" font-size="10.5" font-weight="700" fill="#111111">A</text>
<circle cx="51.0" cy="21.0" r="3.4" fill="#111111"/>
<text x="56.5" y="15.5" font-family="Arial, sans-serif" font-size="10.5" font-weight="700" paint-order="stroke" stroke="#fff" stroke-width="3" fill="#111111">A1</text>
<text x="56.5" y="15.5" font-family="Arial, sans-serif" font-size="10.5" font-weight="700" fill="#111111">A1</text>
<circle cx="269.0" cy="169.6" r="3.4" fill="#111111"/>
<text x="274.5" y="164.1" font-family="Arial, sans-serif" font-size="10.5" font-weight="700" paint-order="stroke" stroke="#fff" stroke-width="3" fill="#111111">B</text>
<text x="274.5" y="164.1" font-family="Arial, sans-serif" font-size="10.5" font-weight="700" fill="#111111">B</text>
<circle cx="265.4" cy="21.0" r="3.4" fill="#111111"/>
<text x="270.9" y="15.5" font-family="Arial, sans-serif" font-size="10.5" font-weight="700" paint-order="stroke" stroke="#fff" stroke-width="3" fill="#111111">B1</text>
<text x="270.9" y="15.5" font-family="Arial, sans-serif" font-size="10.5" font-weight="700" fill="#111111">B1</text>
<circle cx="229.7" cy="209.0" r="3.4" fill="#111111"/>
<text x="235.2" y="203.5" font-family="Arial, sans-serif" font-size="10.5" font-weight="700" paint-order="stroke" stroke="#fff" stroke-width="3" fill="#111111">C</text>
<text x="235.2" y="203.5" font-family="Arial, sans-serif" font-size="10.5" font-weight="700" fill="#111111">C</text>
<circle cx="226.2" cy="60.4" r="3.4" fill="#111111"/>
<text x="231.7" y="54.9" font-family="Arial, sans-serif" font-size="10.5" font-weight="700" paint-order="stroke" stroke="#fff" stroke-width="3" fill="#111111">C1</text>
<text x="231.7" y="54.9" font-family="Arial, sans-serif" font-size="10.5" font-weight="700" fill="#111111">C1</text>
<circle cx="142.2" cy="189.3" r="3.4" fill="#d97400"/>
<text x="147.7" y="183.8" font-family="Arial, sans-serif" font-size="10.5" font-weight="700" paint-order="stroke" stroke="#fff" stroke-width="3" fill="#d97400">M</text>
<text x="147.7" y="183.8" font-family="Arial, sans-serif" font-size="10.5" font-weight="700" fill="#d97400">M</text>
<circle cx="138.6" cy="40.7" r="3.4" fill="#d97400"/>
<text x="144.1" y="35.2" font-family="Arial, sans-serif" font-size="10.5" font-weight="700" paint-order="stroke" stroke="#fff" stroke-width="3" fill="#d97400">N</text>
<text x="144.1" y="35.2" font-family="Arial, sans-serif" font-size="10.5" font-weight="700" fill="#d97400">N</text>
<circle cx="184.5" cy="182.7" r="3.4" fill="#d97400"/>
<text x="190.0" y="177.2" font-family="Arial, sans-serif" font-size="10.5" font-weight="700" paint-order="stroke" stroke="#fff" stroke-width="3" fill="#d97400">O</text>
<text x="190.0" y="177.2" font-family="Arial, sans-serif" font-size="10.5" font-weight="700" fill="#d97400">O</text>
<circle cx="180.9" cy="34.2" r="3.4" fill="#d97400"/>
<text x="186.4" y="28.7" font-family="Arial, sans-serif" font-size="10.5" font-weight="700" paint-order="stroke" stroke="#fff" stroke-width="3" fill="#d97400">O1</text>
<text x="186.4" y="28.7" font-family="Arial, sans-serif" font-size="10.5" font-weight="700" fill="#d97400">O1</text>
<circle cx="228.0" cy="134.7" r="3.4" fill="#d97400"/>
<text x="233.5" y="129.2" font-family="Arial, sans-serif" font-size="10.5" font-weight="700" paint-order="stroke" stroke="#fff" stroke-width="3" fill="#d97400">P</text>
<text x="233.5" y="129.2" font-family="Arial, sans-serif" font-size="10.5" font-weight="700" fill="#d97400">P</text>
<circle cx="52.8" cy="95.3" r="3.4" fill="#d97400"/>
<text x="58.3" y="89.8" font-family="Arial, sans-serif" font-size="10.5" font-weight="700" paint-order="stroke" stroke="#fff" stroke-width="3" fill="#d97400">Q</text>
<text x="58.3" y="89.8" font-family="Arial, sans-serif" font-size="10.5" font-weight="700" fill="#d97400">Q</text>
<circle cx="267.2" cy="95.3" r="3.4" fill="#d97400"/>
<text x="272.7" y="89.8" font-family="Arial, sans-serif" font-size="10.5" font-weight="700" paint-order="stroke" stroke="#fff" stroke-width="3" fill="#d97400">R</text>
<text x="272.7" y="89.8" font-family="Arial, sans-serif" font-size="10.5" font-weight="700" fill="#d97400">R</text>
<circle cx="140.4" cy="115.0" r="3.4" fill="#d97400"/>
<text x="145.9" y="109.5" font-family="Arial, sans-serif" font-size="10.5" font-weight="700" paint-order="stroke" stroke="#fff" stroke-width="3" fill="#d97400">X</text>
<text x="145.9" y="109.5" font-family="Arial, sans-serif" font-size="10.5" font-weight="700" fill="#d97400">X</text>
<circle cx="160.0" cy="95.3" r="3.4" fill="#d97400"/>
<text x="165.5" y="89.8" font-family="Arial, sans-serif" font-size="10.5" font-weight="700" paint-order="stroke" stroke="#fff" stroke-width="3" fill="#d97400">Y</text>
<text x="165.5" y="89.8" font-family="Arial, sans-serif" font-size="10.5" font-weight="700" fill="#d97400">Y</text>
<text x="10" y="20" font-family="Arial, sans-serif" font-size="12" font-weight="700" paint-order="stroke" stroke="#fff" stroke-width="4" fill="#0b7285">B+++ · 9P/14L/5F</text>
</svg>
