<svg xmlns="http://www.w3.org/2000/svg" width="320" height="230" viewBox="0 0 320 230" role="img" aria-label="B04 · 三角面中心轴">
<rect width="320" height="230" fill="#fff"/>
<polygon points="41.0,166.8 279.0,166.8 230.7,209.0" fill="#e9f0f4" fill-opacity="0.45" stroke="none"/>
<polygon points="109.6,21.0 244.0,21.0 216.7,44.8" fill="#edf4ee" fill-opacity="0.45" stroke="none"/>
<polygon points="41.0,166.8 279.0,166.8 244.0,21.0 109.6,21.0" fill="#f6eee5" fill-opacity="0.45" stroke="none"/>
<polygon points="279.0,166.8 230.7,209.0 216.7,44.8 244.0,21.0" fill="#f0ecf8" fill-opacity="0.45" stroke="none"/>
<polygon points="230.7,209.0 41.0,166.8 109.6,21.0 216.7,44.8" fill="#eef0f3" fill-opacity="0.45" stroke="none"/>
<polygon points="41.0,166.8 279.0,166.8 244.0,21.0 109.6,21.0" fill="#1971c2" fill-opacity="0.18" stroke="#1971c2" stroke-width="1.4"/>
<line x1="41.0" y1="166.8" x2="279.0" y2="166.8" stroke="#111" stroke-width="1.45" stroke-linecap="round"/>
<line x1="279.0" y1="166.8" x2="230.7" y2="209.0" stroke="#111" stroke-width="1.45" stroke-linecap="round"/>
<line x1="230.7" y1="209.0" x2="41.0" y2="166.8" stroke="#111" stroke-width="1.45" stroke-linecap="round"/>
<line x1="109.6" y1="21.0" x2="244.0" y2="21.0" stroke="#111" stroke-width="1.45" stroke-linecap="round"/>
<line x1="244.0" y1="21.0" x2="216.7" y2="44.8" stroke="#111" stroke-width="1.45" stroke-linecap="round"/>
<line x1="216.7" y1="44.8" x2="109.6" y2="21.0" stroke="#111" stroke-width="1.45" stroke-linecap="round"/>
<line x1="41.0" y1="166.8" x2="109.6" y2="21.0" stroke="#111" stroke-width="1.45" stroke-linecap="round"/>
<line x1="279.0" y1="166.8" x2="244.0" y2="21.0" stroke="#111" stroke-width="1.45" stroke-linecap="round"/>
<line x1="230.7" y1="209.0" x2="216.7" y2="44.8" stroke="#111" stroke-width="1.45" stroke-linecap="round"/>
<line x1="183.6" y1="180.9" x2="190.1" y2="28.9" stroke="#c2255c" stroke-width="2.15" stroke-linecap="round" stroke-opacity="0.88"/>
<line x1="41.0" y1="166.8" x2="279.0" y2="166.8" stroke="#d97400" stroke-width="2.15" stroke-linecap="round" stroke-opacity="0.88" stroke-dasharray="6 4"/>
<line x1="109.6" y1="21.0" x2="244.0" y2="21.0" stroke="#7048e8" stroke-width="2.15" stroke-linecap="round" stroke-opacity="0.88" stroke-dasharray="6 4"/>
<line x1="230.7" y1="209.0" x2="216.7" y2="44.8" stroke="#d97400" stroke-width="2.15" stroke-linecap="round" stroke-opacity="0.78" stroke-dasharray="6 4"/>
<circle cx="41.0" cy="166.8" r="3.4" fill="#111111"/>
<text x="46.5" y="161.3" font-family="Arial, sans-serif" font-size="10.5" font-weight="700" paint-order="stroke" stroke="#fff" stroke-width="3" fill="#111111">A</text>
<text x="46.5" y="161.3" font-family="Arial, sans-serif" font-size="10.5" font-weight="700" fill="#111111">A</text>
<circle cx="109.6" cy="21.0" r="3.4" fill="#111111"/>
<text x="115.1" y="15.5" font-family="Arial, sans-serif" font-size="10.5" font-weight="700" paint-order="stroke" stroke="#fff" stroke-width="3" fill="#111111">A1</text>
<text x="115.1" y="15.5" font-family="Arial, sans-serif" font-size="10.5" font-weight="700" fill="#111111">A1</text>
<circle cx="279.0" cy="166.8" r="3.4" fill="#111111"/>
<text x="284.5" y="161.3" font-family="Arial, sans-serif" font-size="10.5" font-weight="700" paint-order="stroke" stroke="#fff" stroke-width="3" fill="#111111">B</text>
<text x="284.5" y="161.3" font-family="Arial, sans-serif" font-size="10.5" font-weight="700" fill="#111111">B</text>
<circle cx="244.0" cy="21.0" r="3.4" fill="#111111"/>
<text x="249.5" y="15.5" font-family="Arial, sans-serif" font-size="10.5" font-weight="700" paint-order="stroke" stroke="#fff" stroke-width="3" fill="#111111">B1</text>
<text x="249.5" y="15.5" font-family="Arial, sans-serif" font-size="10.5" font-weight="700" fill="#111111">B1</text>
<circle cx="230.7" cy="209.0" r="3.4" fill="#111111"/>
<text x="236.2" y="203.5" font-family="Arial, sans-serif" font-size="10.5" font-weight="700" paint-order="stroke" stroke="#fff" stroke-width="3" fill="#111111">C</text>
<text x="236.2" y="203.5" font-family="Arial, sans-serif" font-size="10.5" font-weight="700" fill="#111111">C</text>
<circle cx="216.7" cy="44.8" r="3.4" fill="#111111"/>
<text x="222.2" y="39.3" font-family="Arial, sans-serif" font-size="10.5" font-weight="700" paint-order="stroke" stroke="#fff" stroke-width="3" fill="#111111">C1</text>
<text x="222.2" y="39.3" font-family="Arial, sans-serif" font-size="10.5" font-weight="700" fill="#111111">C1</text>
<circle cx="183.6" cy="180.9" r="3.4" fill="#d97400"/>
<text x="189.1" y="175.4" font-family="Arial, sans-serif" font-size="10.5" font-weight="700" paint-order="stroke" stroke="#fff" stroke-width="3" fill="#d97400">O</text>
<text x="189.1" y="175.4" font-family="Arial, sans-serif" font-size="10.5" font-weight="700" fill="#d97400">O</text>
<circle cx="190.1" cy="28.9" r="3.4" fill="#d97400"/>
<text x="195.6" y="23.4" font-family="Arial, sans-serif" font-size="10.5" font-weight="700" paint-order="stroke" stroke="#fff" stroke-width="3" fill="#d97400">O1</text>
<text x="195.6" y="23.4" font-family="Arial, sans-serif" font-size="10.5" font-weight="700" fill="#d97400">O1</text>
<text x="10" y="20" font-family="Arial, sans-serif" font-size="12" font-weight="700" paint-order="stroke" stroke="#fff" stroke-width="4" fill="#0b7285">B · 2P/4L/1F</text>
</svg>
