<svg xmlns="http://www.w3.org/2000/svg" width="320" height="230" viewBox="0 0 320 230" role="img" aria-label="B+++03 · 双三角截面格">
<rect width="320" height="230" fill="#fff"/>
<polygon points="41.0,166.8 279.0,166.8 230.7,209.0" fill="#e9f0f4" fill-opacity="0.45" stroke="none"/>
<polygon points="109.6,21.0 244.0,21.0 216.7,44.8" fill="#edf4ee" fill-opacity="0.45" stroke="none"/>
<polygon points="41.0,166.8 279.0,166.8 244.0,21.0 109.6,21.0" fill="#f6eee5" fill-opacity="0.45" stroke="none"/>
<polygon points="279.0,166.8 230.7,209.0 216.7,44.8 244.0,21.0" fill="#f0ecf8" fill-opacity="0.45" stroke="none"/>
<polygon points="230.7,209.0 41.0,166.8 109.6,21.0 216.7,44.8" fill="#eef0f3" fill-opacity="0.45" stroke="none"/>
<polygon points="225.9,153.2 267.1,117.2 64.3,117.2" fill="#2f9e44" fill-opacity="0.26" stroke="#2f9e44" stroke-width="1.4"/>
<polygon points="221.2,97.4 255.2,67.6 87.7,67.6" fill="#7048e8" fill-opacity="0.24" stroke="#7048e8" stroke-width="1.4"/>
<polygon points="225.9,153.2 267.1,117.2 255.2,67.6 221.2,97.4" fill="#c2255c" fill-opacity="0.15" stroke="#c2255c" stroke-width="1.4" stroke-dasharray="5 4"/>
<polygon points="267.1,117.2 64.3,117.2 87.7,67.6 255.2,67.6" fill="#d9480f" fill-opacity="0.15" stroke="#d9480f" stroke-width="1.4" stroke-dasharray="5 4"/>
<polygon points="64.3,117.2 225.9,153.2 221.2,97.4 87.7,67.6" fill="#1971c2" fill-opacity="0.13" stroke="#1971c2" stroke-width="1.4" stroke-dasharray="5 4"/>
<line x1="41.0" y1="166.8" x2="279.0" y2="166.8" stroke="#111" stroke-width="1.45" stroke-linecap="round"/>
<line x1="279.0" y1="166.8" x2="230.7" y2="209.0" stroke="#111" stroke-width="1.45" stroke-linecap="round"/>
<line x1="230.7" y1="209.0" x2="41.0" y2="166.8" stroke="#111" stroke-width="1.45" stroke-linecap="round"/>
<line x1="109.6" y1="21.0" x2="244.0" y2="21.0" stroke="#111" stroke-width="1.45" stroke-linecap="round"/>
<line x1="244.0" y1="21.0" x2="216.7" y2="44.8" stroke="#111" stroke-width="1.45" stroke-linecap="round"/>
<line x1="216.7" y1="44.8" x2="109.6" y2="21.0" stroke="#111" stroke-width="1.45" stroke-linecap="round"/>
<line x1="41.0" y1="166.8" x2="109.6" y2="21.0" stroke="#111" stroke-width="1.45" stroke-linecap="round"/>
<line x1="279.0" y1="166.8" x2="244.0" y2="21.0" stroke="#111" stroke-width="1.45" stroke-linecap="round"/>
<line x1="230.7" y1="209.0" x2="216.7" y2="44.8" stroke="#111" stroke-width="1.45" stroke-linecap="round"/>
<line x1="225.9" y1="153.2" x2="267.1" y2="117.2" stroke="#c2255c" stroke-width="2.15" stroke-linecap="round" stroke-opacity="0.88"/>
<line x1="267.1" y1="117.2" x2="64.3" y2="117.2" stroke="#c2255c" stroke-width="2.15" stroke-linecap="round" stroke-opacity="0.88"/>
<line x1="64.3" y1="117.2" x2="225.9" y2="153.2" stroke="#c2255c" stroke-width="2.15" stroke-linecap="round" stroke-opacity="0.88"/>
<line x1="221.2" y1="97.4" x2="255.2" y2="67.6" stroke="#7048e8" stroke-width="2.15" stroke-linecap="round" stroke-opacity="0.88"/>
<line x1="255.2" y1="67.6" x2="87.7" y2="67.6" stroke="#7048e8" stroke-width="2.15" stroke-linecap="round" stroke-opacity="0.88"/>
<line x1="87.7" y1="67.6" x2="221.2" y2="97.4" stroke="#7048e8" stroke-width="2.15" stroke-linecap="round" stroke-opacity="0.88"/>
<line x1="225.9" y1="153.2" x2="221.2" y2="97.4" stroke="#d97400" stroke-width="2.15" stroke-linecap="round" stroke-opacity="0.88" stroke-dasharray="6 4"/>
<line x1="267.1" y1="117.2" x2="255.2" y2="67.6" stroke="#d97400" stroke-width="2.15" stroke-linecap="round" stroke-opacity="0.88" stroke-dasharray="6 4"/>
<line x1="64.3" y1="117.2" x2="87.7" y2="67.6" stroke="#d97400" stroke-width="2.15" stroke-linecap="round" stroke-opacity="0.88" stroke-dasharray="6 4"/>
<line x1="185.8" y1="129.2" x2="188.0" y2="77.5" stroke="#d9480f" stroke-width="2.15" stroke-linecap="round" stroke-opacity="0.88"/>
<line x1="185.8" y1="129.2" x2="225.9" y2="153.2" stroke="#2f9e44" stroke-width="2.15" stroke-linecap="round" stroke-opacity="0.78" stroke-dasharray="6 4"/>
<line x1="188.0" y1="77.5" x2="221.2" y2="97.4" stroke="#2f9e44" stroke-width="2.15" stroke-linecap="round" stroke-opacity="0.78" stroke-dasharray="6 4"/>
<circle cx="41.0" cy="166.8" r="3.4" fill="#111111"/>
<text x="46.5" y="161.3" font-family="Arial, sans-serif" font-size="10.5" font-weight="700" paint-order="stroke" stroke="#fff" stroke-width="3" fill="#111111">A</text>
<text x="46.5" y="161.3" font-family="Arial, sans-serif" font-size="10.5" font-weight="700" fill="#111111">A</text>
<circle cx="109.6" cy="21.0" r="3.4" fill="#111111"/>
<text x="115.1" y="15.5" font-family="Arial, sans-serif" font-size="10.5" font-weight="700" paint-order="stroke" stroke="#fff" stroke-width="3" fill="#111111">A1</text>
<text x="115.1" y="15.5" font-family="Arial, sans-serif" font-size="10.5" font-weight="700" fill="#111111">A1</text>
<circle cx="279.0" cy="166.8" r="3.4" fill="#111111"/>
<text x="284.5" y="161.3" font-family="Arial, sans-serif" font-size="10.5" font-weight="700" paint-order="stroke" stroke="#fff" stroke-width="3" fill="#111111">B</text>
<text x="284.5" y="161.3" font-family="Arial, sans-serif" font-size="10.5" font-weight="700" fill="#111111">B</text>
<circle cx="244.0" cy="21.0" r="3.4" fill="#111111"/>
<text x="249.5" y="15.5" font-family="Arial, sans-serif" font-size="10.5" font-weight="700" paint-order="stroke" stroke="#fff" stroke-width="3" fill="#111111">B1</text>
<text x="249.5" y="15.5" font-family="Arial, sans-serif" font-size="10.5" font-weight="700" fill="#111111">B1</text>
<circle cx="230.7" cy="209.0" r="3.4" fill="#111111"/>
<text x="236.2" y="203.5" font-family="Arial, sans-serif" font-size="10.5" font-weight="700" paint-order="stroke" stroke="#fff" stroke-width="3" fill="#111111">C</text>
<text x="236.2" y="203.5" font-family="Arial, sans-serif" font-size="10.5" font-weight="700" fill="#111111">C</text>
<circle cx="216.7" cy="44.8" r="3.4" fill="#111111"/>
<text x="222.2" y="39.3" font-family="Arial, sans-serif" font-size="10.5" font-weight="700" paint-order="stroke" stroke="#fff" stroke-width="3" fill="#111111">C1</text>
<text x="222.2" y="39.3" font-family="Arial, sans-serif" font-size="10.5" font-weight="700" fill="#111111">C1</text>
<circle cx="225.9" cy="153.2" r="3.4" fill="#d97400"/>
<text x="231.4" y="147.7" font-family="Arial, sans-serif" font-size="10.5" font-weight="700" paint-order="stroke" stroke="#fff" stroke-width="3" fill="#d97400">P</text>
<text x="231.4" y="147.7" font-family="Arial, sans-serif" font-size="10.5" font-weight="700" fill="#d97400">P</text>
<circle cx="267.1" cy="117.2" r="3.4" fill="#d97400"/>
<text x="272.6" y="111.7" font-family="Arial, sans-serif" font-size="10.5" font-weight="700" paint-order="stroke" stroke="#fff" stroke-width="3" fill="#d97400">Q</text>
<text x="272.6" y="111.7" font-family="Arial, sans-serif" font-size="10.5" font-weight="700" fill="#d97400">Q</text>
<circle cx="64.3" cy="117.2" r="3.4" fill="#d97400"/>
<text x="69.8" y="111.7" font-family="Arial, sans-serif" font-size="10.5" font-weight="700" paint-order="stroke" stroke="#fff" stroke-width="3" fill="#d97400">R</text>
<text x="69.8" y="111.7" font-family="Arial, sans-serif" font-size="10.5" font-weight="700" fill="#d97400">R</text>
<circle cx="221.2" cy="97.4" r="3.4" fill="#d97400"/>
<text x="226.7" y="91.9" font-family="Arial, sans-serif" font-size="10.5" font-weight="700" paint-order="stroke" stroke="#fff" stroke-width="3" fill="#d97400">U</text>
<text x="226.7" y="91.9" font-family="Arial, sans-serif" font-size="10.5" font-weight="700" fill="#d97400">U</text>
<circle cx="255.2" cy="67.6" r="3.4" fill="#d97400"/>
<text x="260.7" y="62.1" font-family="Arial, sans-serif" font-size="10.5" font-weight="700" paint-order="stroke" stroke="#fff" stroke-width="3" fill="#d97400">V</text>
<text x="260.7" y="62.1" font-family="Arial, sans-serif" font-size="10.5" font-weight="700" fill="#d97400">V</text>
<circle cx="87.7" cy="67.6" r="3.4" fill="#d97400"/>
<text x="93.2" y="62.1" font-family="Arial, sans-serif" font-size="10.5" font-weight="700" paint-order="stroke" stroke="#fff" stroke-width="3" fill="#d97400">W</text>
<text x="93.2" y="62.1" font-family="Arial, sans-serif" font-size="10.5" font-weight="700" fill="#d97400">W</text>
<circle cx="185.8" cy="129.2" r="3.4" fill="#d97400"/>
<text x="191.3" y="123.7" font-family="Arial, sans-serif" font-size="10.5" font-weight="700" paint-order="stroke" stroke="#fff" stroke-width="3" fill="#d97400">X</text>
<text x="191.3" y="123.7" font-family="Arial, sans-serif" font-size="10.5" font-weight="700" fill="#d97400">X</text>
<circle cx="188.0" cy="77.5" r="3.4" fill="#d97400"/>
<text x="193.5" y="72.0" font-family="Arial, sans-serif" font-size="10.5" font-weight="700" paint-order="stroke" stroke="#fff" stroke-width="3" fill="#d97400">Y</text>
<text x="193.5" y="72.0" font-family="Arial, sans-serif" font-size="10.5" font-weight="700" fill="#d97400">Y</text>
<text x="10" y="20" font-family="Arial, sans-serif" font-size="12" font-weight="700" paint-order="stroke" stroke="#fff" stroke-width="4" fill="#0b7285">B+++ · 8P/12L/5F</text>
</svg>
